<svg width="38" height="37" viewBox="0 0 38 37" fill="none" xmlns="http://www.w3.org/2000/svg">
<g clip-path="url(#clip0_2027_5040)">
<path d="M24.6994 0.0185162C24.6185 -0.0693588 21.7033 0.0532038 19.1665 2.72877C16.6298 5.40202 17.02 8.46839 17.0772 8.54702C17.1343 8.62564 20.6943 8.7482 22.9669 5.63789C25.2396 2.52758 24.7803 0.108704 24.6994 0.0185162ZM32.5857 27.1511C32.4715 26.9291 27.0529 24.2975 27.5574 19.2377C28.0619 14.1756 31.5434 12.7881 31.5982 12.6378C31.6529 12.4875 30.1775 10.811 28.614 9.96227C27.4661 9.36391 26.1956 9.0211 24.8945 8.95864C24.6375 8.9517 23.7451 8.73895 21.9104 9.22689C20.7015 9.54833 17.9767 10.589 17.2271 10.6306C16.4751 10.6722 14.2382 9.42345 11.8323 9.09277C10.2926 8.8037 8.66012 9.3957 7.49168 9.85127C6.32562 10.3045 4.10773 11.5949 2.55615 15.0243C1.00458 18.4515 1.81606 23.8812 2.39671 25.5693C2.97736 27.2551 3.88403 30.0186 5.42609 32.0351C6.7968 34.3106 8.6149 35.89 9.37403 36.4265C10.1332 36.963 12.2749 37.3191 13.7598 36.5815C14.9545 35.8692 17.1105 35.4599 17.9624 35.49C18.812 35.52 20.4873 35.8461 22.2031 36.7364C23.5619 37.192 24.8469 37.0023 26.1343 36.4936C27.4218 35.9825 29.2851 34.0446 31.4601 30.1157C32.2859 28.2888 32.6619 27.3014 32.5857 27.1511Z" fill="#0E101A"/>
</g>
<defs>
<clipPath id="clip0_2027_5040">
<rect width="38" height="37" fill="white"/>
</clipPath>
</defs>
</svg>
