<svg width="258" height="273" fill="none" xmlns="http://www.w3.org/2000/svg"><rect x="60" y="2" width="137" height="268" rx="22" fill="#fff" stroke="#DDE1E6" stroke-width="4"/><path d="M95 2h66v7a7 7 0 0 1-7 7h-52a7 7 0 0 1-7-7V2Z" fill="#DDE1E6"/><g filter="url(#a)"><rect x="145" y="61" width="96" height="48" rx="14" fill="#fff"/></g><g filter="url(#b)"><rect width="96" height="48" rx="14" transform="matrix(-1 0 0 1 113 153)" fill="#fff"/></g><path stroke="#B4B4B4" stroke-linecap="round" d="M165.5 76.5h46M92.5 168.5h-46M165.5 86.5h46M92.5 178.5h-46"/><g filter="url(#c)"><circle cx="111.5" cy="84.5" r="18.5" fill="#fff"/></g><g filter="url(#d)"><circle r="18.5" transform="matrix(-1 0 0 1 146.5 176.5)" fill="#fff"/></g><path stroke="#B4B4B4" stroke-linecap="round" d="M165.5 96.5h22M92.5 188.5h-22"/><g filter="url(#e)"><circle cx="111.5" cy="76.5" r="5.5" fill="#19E29E" fill-opacity=".4" shape-rendering="crispEdges"/></g><g filter="url(#f)"><circle r="5.5" transform="matrix(-1 0 0 1 146.5 168.5)" fill="#19E29E" fill-opacity=".4" shape-rendering="crispEdges"/></g><g filter="url(#g)"><ellipse cx="111.5" cy="90.5" rx="9.5" ry="5.5" fill="#19E29E" fill-opacity=".4" shape-rendering="crispEdges"/></g><g filter="url(#h)"><ellipse rx="9.5" ry="5.5" transform="matrix(-1 0 0 1 146.5 182.5)" fill="#19E29E" fill-opacity=".4" shape-rendering="crispEdges"/></g><g filter="url(#i)"><rect x="72" y="221" width="113" height="29" rx="14.5" fill="#fff"/></g><path d="M104.758 240v-7.506h2.724v-.949h-6.503v.949h2.724V240h1.055Zm4.002 2.285c1.119 0 1.623-.433 2.162-1.898l2.467-6.703h-1.073l-1.728 5.197h-.094l-1.734-5.197h-1.09l2.338 6.322-.117.375c-.264.762-.58 1.037-1.161 1.037-.14 0-.298-.006-.421-.029v.861c.14.023.316.035.451.035Zm9.052-8.713c-.861 0-1.617.44-2.021 1.166h-.094v-1.054h-.961v8.425h1.008v-3.058h.094c.346.668 1.072 1.06 1.974 1.06 1.606 0 2.655-1.295 2.655-3.269 0-1.987-1.043-3.27-2.655-3.27Zm-.24 5.631c-1.136 0-1.857-.914-1.857-2.361 0-1.453.721-2.362 1.863-2.362 1.154 0 1.846.885 1.846 2.362 0 1.476-.692 2.361-1.852 2.361Zm6.996-4.74c1.002 0 1.67.738 1.694 1.857h-3.481c.076-1.119.78-1.857 1.787-1.857Zm1.664 3.902c-.263.557-.814.856-1.628.856-1.073 0-1.77-.791-1.823-2.039v-.047h4.541v-.387c0-1.963-1.037-3.176-2.742-3.176-1.734 0-2.848 1.289-2.848 3.276 0 1.998 1.096 3.263 2.848 3.263 1.383 0 2.356-.662 2.66-1.746h-1.008ZM132.35 240h1.007v-3.738c0-1.067.622-1.782 1.752-1.782.955 0 1.459.557 1.459 1.676V240h1.008v-4.09c0-1.482-.844-2.338-2.18-2.338-.966 0-1.628.41-1.945 1.108h-.094v-3.504h-1.007V240Zm9.586-5.537c1.002 0 1.669.738 1.693 1.857h-3.481c.077-1.119.78-1.857 1.788-1.857Zm1.664 3.902c-.264.557-.815.856-1.629.856-1.073 0-1.77-.791-1.823-2.039v-.047h4.541v-.387c0-1.963-1.037-3.176-2.742-3.176-1.734 0-2.847 1.289-2.847 3.276 0 1.998 1.095 3.263 2.847 3.263 1.383 0 2.356-.662 2.66-1.746H143.6Zm2.671 1.635h1.008v-3.914c0-.891.698-1.535 1.659-1.535.199 0 .562.035.644.058v-1.007a4.232 4.232 0 0 0-.504-.03c-.838 0-1.564.434-1.752 1.049h-.094v-.937h-.961V240Zm6.915-5.537c1.002 0 1.669.738 1.693 1.857h-3.481c.077-1.119.78-1.857 1.788-1.857Zm1.664 3.902c-.264.557-.815.856-1.629.856-1.073 0-1.77-.791-1.823-2.039v-.047h4.541v-.387c0-1.963-1.037-3.176-2.742-3.176-1.734 0-2.847 1.289-2.847 3.276 0 1.998 1.095 3.263 2.847 3.263 1.383 0 2.356-.662 2.66-1.746h-1.007Z" fill="#DDE1E6"/><path d="m120.334 195.5-4.584 4.583-2.083-2.083" stroke="#19E29E" stroke-width=".833" stroke-linecap="round" stroke-linejoin="round"/><path d="m123.667 195.5-4.584 4.583L117 198" stroke="#19E29E" stroke-width=".833" stroke-linecap="round" stroke-linejoin="round"/><defs><filter id="a" x="128" y="50" width="130" height="82" filterUnits="userSpaceOnUse" color-interpolation-filters="sRGB"><feFlood flood-opacity="0" result="BackgroundImageFix"/><feColorMatrix in="SourceAlpha" values="0 0 0 0 0 0 0 0 0 0 0 0 0 0 0 0 0 0 127 0" result="hardAlpha"/><feMorphology radius="2" operator="dilate" in="SourceAlpha" result="effect1_dropShadow_510_3168"/><feOffset dy="6"/><feGaussianBlur stdDeviation="7.5"/><feComposite in2="hardAlpha" operator="out"/><feColorMatrix values="0 0 0 0 0.427451 0 0 0 0 0.552941 0 0 0 0 0.678431 0 0 0 0.15 0"/><feBlend in2="BackgroundImageFix" result="effect1_dropShadow_510_3168"/><feBlend in="SourceGraphic" in2="effect1_dropShadow_510_3168" result="shape"/></filter><filter id="b" x="0" y="142" width="130" height="82" filterUnits="userSpaceOnUse" color-interpolation-filters="sRGB"><feFlood flood-opacity="0" result="BackgroundImageFix"/><feColorMatrix in="SourceAlpha" values="0 0 0 0 0 0 0 0 0 0 0 0 0 0 0 0 0 0 127 0" result="hardAlpha"/><feMorphology radius="2" operator="dilate" in="SourceAlpha" result="effect1_dropShadow_510_3168"/><feOffset dy="6"/><feGaussianBlur stdDeviation="7.5"/><feComposite in2="hardAlpha" operator="out"/><feColorMatrix values="0 0 0 0 0.427451 0 0 0 0 0.552941 0 0 0 0 0.678431 0 0 0 0.15 0"/><feBlend in2="BackgroundImageFix" result="effect1_dropShadow_510_3168"/><feBlend in="SourceGraphic" in2="effect1_dropShadow_510_3168" result="shape"/></filter><filter id="c" x="76" y="55" width="71" height="71" filterUnits="userSpaceOnUse" color-interpolation-filters="sRGB"><feFlood flood-opacity="0" result="BackgroundImageFix"/><feColorMatrix in="SourceAlpha" values="0 0 0 0 0 0 0 0 0 0 0 0 0 0 0 0 0 0 127 0" result="hardAlpha"/><feMorphology radius="2" operator="dilate" in="SourceAlpha" result="effect1_dropShadow_510_3168"/><feOffset dy="6"/><feGaussianBlur stdDeviation="7.5"/><feComposite in2="hardAlpha" operator="out"/><feColorMatrix values="0 0 0 0 0.427451 0 0 0 0 0.552941 0 0 0 0 0.678431 0 0 0 0.15 0"/><feBlend in2="BackgroundImageFix" result="effect1_dropShadow_510_3168"/><feBlend in="SourceGraphic" in2="effect1_dropShadow_510_3168" result="shape"/></filter><filter id="d" x="111" y="147" width="71" height="71" filterUnits="userSpaceOnUse" color-interpolation-filters="sRGB"><feFlood flood-opacity="0" result="BackgroundImageFix"/><feColorMatrix in="SourceAlpha" values="0 0 0 0 0 0 0 0 0 0 0 0 0 0 0 0 0 0 127 0" result="hardAlpha"/><feMorphology radius="2" operator="dilate" in="SourceAlpha" result="effect1_dropShadow_510_3168"/><feOffset dy="6"/><feGaussianBlur stdDeviation="7.5"/><feComposite in2="hardAlpha" operator="out"/><feColorMatrix values="0 0 0 0 0.427451 0 0 0 0 0.552941 0 0 0 0 0.678431 0 0 0 0.15 0"/><feBlend in2="BackgroundImageFix" result="effect1_dropShadow_510_3168"/><feBlend in="SourceGraphic" in2="effect1_dropShadow_510_3168" result="shape"/></filter><filter id="e" x="89" y="60" width="45" height="45" filterUnits="userSpaceOnUse" color-interpolation-filters="sRGB"><feFlood flood-opacity="0" result="BackgroundImageFix"/><feColorMatrix in="SourceAlpha" values="0 0 0 0 0 0 0 0 0 0 0 0 0 0 0 0 0 0 127 0" result="hardAlpha"/><feMorphology radius="2" operator="dilate" in="SourceAlpha" result="effect1_dropShadow_510_3168"/><feOffset dy="6"/><feGaussianBlur stdDeviation="7.5"/><feComposite in2="hardAlpha" operator="out"/><feColorMatrix values="0 0 0 0 0.427451 0 0 0 0 0.552941 0 0 0 0 0.678431 0 0 0 0.15 0"/><feBlend in2="BackgroundImageFix" result="effect1_dropShadow_510_3168"/><feBlend in="SourceGraphic" in2="effect1_dropShadow_510_3168" result="shape"/></filter><filter id="f" x="124" y="152" width="45" height="45" filterUnits="userSpaceOnUse" color-interpolation-filters="sRGB"><feFlood flood-opacity="0" result="BackgroundImageFix"/><feColorMatrix in="SourceAlpha" values="0 0 0 0 0 0 0 0 0 0 0 0 0 0 0 0 0 0 127 0" result="hardAlpha"/><feMorphology radius="2" operator="dilate" in="SourceAlpha" result="effect1_dropShadow_510_3168"/><feOffset dy="6"/><feGaussianBlur stdDeviation="7.5"/><feComposite in2="hardAlpha" operator="out"/><feColorMatrix values="0 0 0 0 0.427451 0 0 0 0 0.552941 0 0 0 0 0.678431 0 0 0 0.15 0"/><feBlend in2="BackgroundImageFix" result="effect1_dropShadow_510_3168"/><feBlend in="SourceGraphic" in2="effect1_dropShadow_510_3168" result="shape"/></filter><filter id="g" x="85" y="74" width="53" height="45" filterUnits="userSpaceOnUse" color-interpolation-filters="sRGB"><feFlood flood-opacity="0" result="BackgroundImageFix"/><feColorMatrix in="SourceAlpha" values="0 0 0 0 0 0 0 0 0 0 0 0 0 0 0 0 0 0 127 0" result="hardAlpha"/><feMorphology radius="2" operator="dilate" in="SourceAlpha" result="effect1_dropShadow_510_3168"/><feOffset dy="6"/><feGaussianBlur stdDeviation="7.5"/><feComposite in2="hardAlpha" operator="out"/><feColorMatrix values="0 0 0 0 0.427451 0 0 0 0 0.552941 0 0 0 0 0.678431 0 0 0 0.15 0"/><feBlend in2="BackgroundImageFix" result="effect1_dropShadow_510_3168"/><feBlend in="SourceGraphic" in2="effect1_dropShadow_510_3168" result="shape"/></filter><filter id="h" x="120" y="166" width="53" height="45" filterUnits="userSpaceOnUse" color-interpolation-filters="sRGB"><feFlood flood-opacity="0" result="BackgroundImageFix"/><feColorMatrix in="SourceAlpha" values="0 0 0 0 0 0 0 0 0 0 0 0 0 0 0 0 0 0 127 0" result="hardAlpha"/><feMorphology radius="2" operator="dilate" in="SourceAlpha" result="effect1_dropShadow_510_3168"/><feOffset dy="6"/><feGaussianBlur stdDeviation="7.5"/><feComposite in2="hardAlpha" operator="out"/><feColorMatrix values="0 0 0 0 0.427451 0 0 0 0 0.552941 0 0 0 0 0.678431 0 0 0 0.15 0"/><feBlend in2="BackgroundImageFix" result="effect1_dropShadow_510_3168"/><feBlend in="SourceGraphic" in2="effect1_dropShadow_510_3168" result="shape"/></filter><filter id="i" x="55" y="210" width="147" height="63" filterUnits="userSpaceOnUse" color-interpolation-filters="sRGB"><feFlood flood-opacity="0" result="BackgroundImageFix"/><feColorMatrix in="SourceAlpha" values="0 0 0 0 0 0 0 0 0 0 0 0 0 0 0 0 0 0 127 0" result="hardAlpha"/><feMorphology radius="2" operator="dilate" in="SourceAlpha" result="effect1_dropShadow_510_3168"/><feOffset dy="6"/><feGaussianBlur stdDeviation="7.5"/><feComposite in2="hardAlpha" operator="out"/><feColorMatrix values="0 0 0 0 0.427451 0 0 0 0 0.552941 0 0 0 0 0.678431 0 0 0 0.15 0"/><feBlend in2="BackgroundImageFix" result="effect1_dropShadow_510_3168"/><feBlend in="SourceGraphic" in2="effect1_dropShadow_510_3168" result="shape"/></filter></defs></svg>