<svg width="20" height="22" viewBox="0 0 20 22" fill="none" xmlns="http://www.w3.org/2000/svg">
<path d="M10.4812 20.9483L10.1959 21.3589L10.4777 21.5547L10.7618 21.3622L10.4812 20.9483ZM10.4812 0.50293C5.62858 0.50293 1.69434 4.43717 1.69434 9.28981H2.69434C2.69434 4.98945 6.18086 1.50293 10.4812 1.50293V0.50293ZM19.2681 9.28981C19.2681 4.43717 15.3339 0.50293 10.4812 0.50293V1.50293C14.7816 1.50293 18.2681 4.98945 18.2681 9.28981H19.2681ZM10.4812 20.9483C10.7618 21.3622 10.7619 21.3621 10.7621 21.362C10.7622 21.3619 10.7624 21.3618 10.7626 21.3616C10.7629 21.3614 10.7635 21.361 10.7641 21.3606C10.7654 21.3597 10.7671 21.3585 10.7694 21.357C10.7739 21.3539 10.7804 21.3494 10.7889 21.3436C10.8057 21.332 10.8301 21.3151 10.8616 21.2929C10.9247 21.2486 11.0162 21.1836 11.1321 21.099C11.3639 20.9298 11.6934 20.6823 12.0882 20.3667C12.8771 19.7361 13.9304 18.8303 14.9855 17.7306C17.0705 15.5572 19.2681 12.5182 19.2681 9.28981H18.2681C18.2681 12.1024 16.3222 14.8927 14.2639 17.0383C13.2472 18.098 12.2288 18.9741 11.4638 19.5856C11.0818 19.891 10.7639 20.1296 10.5425 20.2913C10.4318 20.3721 10.3453 20.4336 10.287 20.4745C10.2578 20.495 10.2357 20.5103 10.2211 20.5204C10.2139 20.5254 10.2085 20.5291 10.205 20.5314C10.2033 20.5326 10.2021 20.5334 10.2014 20.5339C10.201 20.5342 10.2008 20.5344 10.2006 20.5344C10.2006 20.5345 10.2006 20.5345 10.2006 20.5345C10.2006 20.5345 10.2007 20.5344 10.4812 20.9483ZM1.69434 9.28981C1.69434 12.4482 3.89374 15.4879 5.97556 17.6758C7.02992 18.7839 8.08253 19.7026 8.87083 20.344C9.26537 20.665 9.59468 20.9174 9.82621 21.0901C9.94199 21.1764 10.0334 21.2429 10.0963 21.2882C10.1278 21.3108 10.1522 21.3281 10.1689 21.3399C10.1773 21.3459 10.1838 21.3504 10.1883 21.3536C10.1906 21.3552 10.1923 21.3564 10.1936 21.3573C10.1942 21.3577 10.1947 21.3581 10.1951 21.3583C10.1953 21.3585 10.1955 21.3586 10.1956 21.3587C10.1957 21.3588 10.1959 21.3589 10.4812 20.9483C10.7666 20.5377 10.7666 20.5378 10.7667 20.5378C10.7666 20.5378 10.7666 20.5378 10.7666 20.5377C10.7665 20.5376 10.7662 20.5375 10.7658 20.5372C10.7651 20.5367 10.7639 20.5358 10.7621 20.5346C10.7587 20.5322 10.7533 20.5284 10.746 20.5232C10.7314 20.5129 10.7092 20.4972 10.68 20.4762C10.6215 20.4342 10.5349 20.3711 10.4241 20.2885C10.2024 20.1232 9.88432 19.8795 9.50196 19.5683C8.73647 18.9455 7.71735 18.0557 6.7 16.9865C4.63837 14.8198 2.69434 12.0303 2.69434 9.28981H1.69434ZM10.4808 12.5827C8.66134 12.5827 7.18848 11.1099 7.18848 9.2904H6.18848C6.18848 11.6622 8.10906 13.5827 10.4808 13.5827V12.5827ZM13.7732 9.2904C13.7732 11.1099 12.3003 12.5827 10.4808 12.5827V13.5827C12.8526 13.5827 14.7732 11.6622 14.7732 9.2904H13.7732ZM10.4808 5.99805C12.3003 5.99805 13.7732 7.47091 13.7732 9.2904H14.7732C14.7732 6.91863 12.8526 4.99805 10.4808 4.99805V5.99805ZM7.18848 9.2904C7.18848 7.47091 8.66134 5.99805 10.4808 5.99805V4.99805C8.10906 4.99805 6.18848 6.91863 6.18848 9.2904H7.18848Z" fill="black"/>
</svg>
