<svg width="182" height="273" fill="none" xmlns="http://www.w3.org/2000/svg"><rect x="40" y="2" width="137" height="268" rx="22" fill="#fff" stroke="#DDE1E6" stroke-width="4"/><path d="M75 2h66v7a7 7 0 0 1-7 7H82a7 7 0 0 1-7-7V2Z" fill="#DDE1E6"/><g filter="url(#a)"><rect width="96" height="48" rx="14" transform="matrix(-1 0 0 1 153 76)" fill="#fff"/></g><g filter="url(#b)"><rect width="96" height="23" rx="10" transform="matrix(-1 0 0 1 154 161)" fill="#fff"/></g><rect width="66" height="15" rx="7.5" transform="matrix(-1 0 0 1 144 200)" fill="#F2F4F8"/><g filter="url(#c)"><circle r="18.5" transform="matrix(-1 0 0 1 144.5 75.5)" fill="#fff"/></g><g filter="url(#d)"><circle r="5.5" transform="matrix(-1 0 0 1 144.5 67.5)" fill="#19E29E" fill-opacity=".4" shape-rendering="crispEdges"/></g><g filter="url(#e)"><ellipse rx="9.5" ry="5.5" transform="matrix(-1 0 0 1 144.5 81.5)" fill="#19E29E" fill-opacity=".4" shape-rendering="crispEdges"/></g><g filter="url(#f)"><circle r="18.5" transform="matrix(-1 0 0 1 35.5 172.5)" fill="#fff"/></g><g filter="url(#g)"><circle r="5.5" transform="matrix(-1 0 0 1 35.5 164.5)" fill="#04CCB3" fill-opacity=".3" shape-rendering="crispEdges"/></g><g filter="url(#h)"><ellipse rx="9.5" ry="5.5" transform="matrix(-1 0 0 1 35.5 178.5)" fill="#04CCB3" fill-opacity=".3" shape-rendering="crispEdges"/></g><g filter="url(#i)"><rect x="52" y="221" width="113" height="29" rx="14.5" fill="#fff"/></g><path d="M84.758 240v-7.506h2.724v-.949h-6.504v.949h2.725V240h1.055Zm4.002 2.285c1.119 0 1.623-.433 2.162-1.898l2.467-6.703h-1.073l-1.728 5.197h-.094l-1.734-5.197h-1.09l2.338 6.322-.117.375c-.264.762-.58 1.037-1.16 1.037a2.47 2.47 0 0 1-.422-.029v.861c.14.023.316.035.45.035Zm9.052-8.713c-.86 0-1.617.44-2.021 1.166h-.094v-1.054h-.96v8.425h1.007v-3.058h.094c.346.668 1.072 1.06 1.975 1.06 1.605 0 2.654-1.295 2.654-3.269 0-1.987-1.043-3.27-2.654-3.27Zm-.24 5.631c-1.136 0-1.857-.914-1.857-2.361 0-1.453.72-2.362 1.863-2.362 1.154 0 1.846.885 1.846 2.362 0 1.476-.692 2.361-1.852 2.361Zm6.996-4.74c1.002 0 1.67.738 1.694 1.857h-3.481c.076-1.119.78-1.857 1.787-1.857Zm1.664 3.902c-.263.557-.814.856-1.628.856-1.073 0-1.77-.791-1.823-2.039v-.047h4.541v-.387c0-1.963-1.037-3.176-2.742-3.176-1.734 0-2.848 1.289-2.848 3.276 0 1.998 1.096 3.263 2.848 3.263 1.383 0 2.356-.662 2.66-1.746h-1.008ZM112.35 240h1.007v-3.738c0-1.067.622-1.782 1.752-1.782.955 0 1.459.557 1.459 1.676V240h1.008v-4.09c0-1.482-.844-2.338-2.18-2.338-.966 0-1.628.41-1.945 1.108h-.094v-3.504h-1.007V240Zm9.586-5.537c1.002 0 1.669.738 1.693 1.857h-3.481c.077-1.119.78-1.857 1.788-1.857Zm1.664 3.902c-.264.557-.815.856-1.629.856-1.073 0-1.77-.791-1.823-2.039v-.047h4.541v-.387c0-1.963-1.037-3.176-2.742-3.176-1.734 0-2.847 1.289-2.847 3.276 0 1.998 1.095 3.263 2.847 3.263 1.383 0 2.356-.662 2.66-1.746H123.6Zm2.671 1.635h1.008v-3.914c0-.891.698-1.535 1.659-1.535.199 0 .562.035.644.058v-1.007a4.232 4.232 0 0 0-.504-.03c-.838 0-1.564.434-1.752 1.049h-.094v-.937h-.961V240Zm6.915-5.537c1.002 0 1.669.738 1.693 1.857h-3.481c.077-1.119.78-1.857 1.788-1.857Zm1.664 3.902c-.264.557-.815.856-1.629.856-1.073 0-1.77-.791-1.823-2.039v-.047h4.541v-.387c0-1.963-1.037-3.176-2.742-3.176-1.734 0-2.847 1.289-2.847 3.276 0 1.998 1.095 3.263 2.847 3.263 1.383 0 2.356-.662 2.66-1.746h-1.007Z" fill="#DDE1E6"/><path d="m162.334 53.5-4.584 4.583L155.667 56" stroke="#19E29E" stroke-width=".833" stroke-linecap="round" stroke-linejoin="round"/><path d="m165.667 53.5-4.584 4.583L159 56" stroke="#19E29E" stroke-width=".833" stroke-linecap="round" stroke-linejoin="round"/><defs><filter id="a" x="40" y="65" width="130" height="82" filterUnits="userSpaceOnUse" color-interpolation-filters="sRGB"><feFlood flood-opacity="0" result="BackgroundImageFix"/><feColorMatrix in="SourceAlpha" values="0 0 0 0 0 0 0 0 0 0 0 0 0 0 0 0 0 0 127 0" result="hardAlpha"/><feMorphology radius="2" operator="dilate" in="SourceAlpha" result="effect1_dropShadow_457_1374"/><feOffset dy="6"/><feGaussianBlur stdDeviation="7.5"/><feComposite in2="hardAlpha" operator="out"/><feColorMatrix values="0 0 0 0 0.427451 0 0 0 0 0.552941 0 0 0 0 0.678431 0 0 0 0.15 0"/><feBlend in2="BackgroundImageFix" result="effect1_dropShadow_457_1374"/><feBlend in="SourceGraphic" in2="effect1_dropShadow_457_1374" result="shape"/></filter><filter id="b" x="41" y="150" width="130" height="57" filterUnits="userSpaceOnUse" color-interpolation-filters="sRGB"><feFlood flood-opacity="0" result="BackgroundImageFix"/><feColorMatrix in="SourceAlpha" values="0 0 0 0 0 0 0 0 0 0 0 0 0 0 0 0 0 0 127 0" result="hardAlpha"/><feMorphology radius="2" operator="dilate" in="SourceAlpha" result="effect1_dropShadow_457_1374"/><feOffset dy="6"/><feGaussianBlur stdDeviation="7.5"/><feComposite in2="hardAlpha" operator="out"/><feColorMatrix values="0 0 0 0 0.427451 0 0 0 0 0.552941 0 0 0 0 0.678431 0 0 0 0.15 0"/><feBlend in2="BackgroundImageFix" result="effect1_dropShadow_457_1374"/><feBlend in="SourceGraphic" in2="effect1_dropShadow_457_1374" result="shape"/></filter><filter id="c" x="109" y="46" width="71" height="71" filterUnits="userSpaceOnUse" color-interpolation-filters="sRGB"><feFlood flood-opacity="0" result="BackgroundImageFix"/><feColorMatrix in="SourceAlpha" values="0 0 0 0 0 0 0 0 0 0 0 0 0 0 0 0 0 0 127 0" result="hardAlpha"/><feMorphology radius="2" operator="dilate" in="SourceAlpha" result="effect1_dropShadow_457_1374"/><feOffset dy="6"/><feGaussianBlur stdDeviation="7.5"/><feComposite in2="hardAlpha" operator="out"/><feColorMatrix values="0 0 0 0 0.427451 0 0 0 0 0.552941 0 0 0 0 0.678431 0 0 0 0.15 0"/><feBlend in2="BackgroundImageFix" result="effect1_dropShadow_457_1374"/><feBlend in="SourceGraphic" in2="effect1_dropShadow_457_1374" result="shape"/></filter><filter id="d" x="122" y="51" width="45" height="45" filterUnits="userSpaceOnUse" color-interpolation-filters="sRGB"><feFlood flood-opacity="0" result="BackgroundImageFix"/><feColorMatrix in="SourceAlpha" values="0 0 0 0 0 0 0 0 0 0 0 0 0 0 0 0 0 0 127 0" result="hardAlpha"/><feMorphology radius="2" operator="dilate" in="SourceAlpha" result="effect1_dropShadow_457_1374"/><feOffset dy="6"/><feGaussianBlur stdDeviation="7.5"/><feComposite in2="hardAlpha" operator="out"/><feColorMatrix values="0 0 0 0 0.427451 0 0 0 0 0.552941 0 0 0 0 0.678431 0 0 0 0.15 0"/><feBlend in2="BackgroundImageFix" result="effect1_dropShadow_457_1374"/><feBlend in="SourceGraphic" in2="effect1_dropShadow_457_1374" result="shape"/></filter><filter id="e" x="118" y="65" width="53" height="45" filterUnits="userSpaceOnUse" color-interpolation-filters="sRGB"><feFlood flood-opacity="0" result="BackgroundImageFix"/><feColorMatrix in="SourceAlpha" values="0 0 0 0 0 0 0 0 0 0 0 0 0 0 0 0 0 0 127 0" result="hardAlpha"/><feMorphology radius="2" operator="dilate" in="SourceAlpha" result="effect1_dropShadow_457_1374"/><feOffset dy="6"/><feGaussianBlur stdDeviation="7.5"/><feComposite in2="hardAlpha" operator="out"/><feColorMatrix values="0 0 0 0 0.427451 0 0 0 0 0.552941 0 0 0 0 0.678431 0 0 0 0.15 0"/><feBlend in2="BackgroundImageFix" result="effect1_dropShadow_457_1374"/><feBlend in="SourceGraphic" in2="effect1_dropShadow_457_1374" result="shape"/></filter><filter id="f" x="0" y="143" width="71" height="71" filterUnits="userSpaceOnUse" color-interpolation-filters="sRGB"><feFlood flood-opacity="0" result="BackgroundImageFix"/><feColorMatrix in="SourceAlpha" values="0 0 0 0 0 0 0 0 0 0 0 0 0 0 0 0 0 0 127 0" result="hardAlpha"/><feMorphology radius="2" operator="dilate" in="SourceAlpha" result="effect1_dropShadow_457_1374"/><feOffset dy="6"/><feGaussianBlur stdDeviation="7.5"/><feComposite in2="hardAlpha" operator="out"/><feColorMatrix values="0 0 0 0 0.427451 0 0 0 0 0.552941 0 0 0 0 0.678431 0 0 0 0.15 0"/><feBlend in2="BackgroundImageFix" result="effect1_dropShadow_457_1374"/><feBlend in="SourceGraphic" in2="effect1_dropShadow_457_1374" result="shape"/></filter><filter id="g" x="13" y="148" width="45" height="45" filterUnits="userSpaceOnUse" color-interpolation-filters="sRGB"><feFlood flood-opacity="0" result="BackgroundImageFix"/><feColorMatrix in="SourceAlpha" values="0 0 0 0 0 0 0 0 0 0 0 0 0 0 0 0 0 0 127 0" result="hardAlpha"/><feMorphology radius="2" operator="dilate" in="SourceAlpha" result="effect1_dropShadow_457_1374"/><feOffset dy="6"/><feGaussianBlur stdDeviation="7.5"/><feComposite in2="hardAlpha" operator="out"/><feColorMatrix values="0 0 0 0 0.427451 0 0 0 0 0.552941 0 0 0 0 0.678431 0 0 0 0.15 0"/><feBlend in2="BackgroundImageFix" result="effect1_dropShadow_457_1374"/><feBlend in="SourceGraphic" in2="effect1_dropShadow_457_1374" result="shape"/></filter><filter id="h" x="9" y="162" width="53" height="45" filterUnits="userSpaceOnUse" color-interpolation-filters="sRGB"><feFlood flood-opacity="0" result="BackgroundImageFix"/><feColorMatrix in="SourceAlpha" values="0 0 0 0 0 0 0 0 0 0 0 0 0 0 0 0 0 0 127 0" result="hardAlpha"/><feMorphology radius="2" operator="dilate" in="SourceAlpha" result="effect1_dropShadow_457_1374"/><feOffset dy="6"/><feGaussianBlur stdDeviation="7.5"/><feComposite in2="hardAlpha" operator="out"/><feColorMatrix values="0 0 0 0 0.427451 0 0 0 0 0.552941 0 0 0 0 0.678431 0 0 0 0.15 0"/><feBlend in2="BackgroundImageFix" result="effect1_dropShadow_457_1374"/><feBlend in="SourceGraphic" in2="effect1_dropShadow_457_1374" result="shape"/></filter><filter id="i" x="35" y="210" width="147" height="63" filterUnits="userSpaceOnUse" color-interpolation-filters="sRGB"><feFlood flood-opacity="0" result="BackgroundImageFix"/><feColorMatrix in="SourceAlpha" values="0 0 0 0 0 0 0 0 0 0 0 0 0 0 0 0 0 0 127 0" result="hardAlpha"/><feMorphology radius="2" operator="dilate" in="SourceAlpha" result="effect1_dropShadow_457_1374"/><feOffset dy="6"/><feGaussianBlur stdDeviation="7.5"/><feComposite in2="hardAlpha" operator="out"/><feColorMatrix values="0 0 0 0 0.427451 0 0 0 0 0.552941 0 0 0 0 0.678431 0 0 0 0.15 0"/><feBlend in2="BackgroundImageFix" result="effect1_dropShadow_457_1374"/><feBlend in="SourceGraphic" in2="effect1_dropShadow_457_1374" result="shape"/></filter></defs></svg>