<svg width="39" height="39" viewBox="0 0 39 39" fill="none" xmlns="http://www.w3.org/2000/svg">
<path d="M1.93555 4.5312V34.4668C1.93575 34.5317 1.95516 34.5951 1.99134 34.6491C2.02753 34.7031 2.07887 34.7452 2.13895 34.7702C2.19902 34.7952 2.26514 34.8019 2.32903 34.7895C2.39291 34.7771 2.45171 34.7462 2.49805 34.7006L18.116 19.4997L2.49805 4.29736C2.45171 4.25176 2.39291 4.22083 2.32903 4.20845C2.26514 4.19607 2.19902 4.20278 2.13895 4.22776C2.07887 4.25273 2.02753 4.29485 1.99134 4.34883C1.95516 4.40281 1.93575 4.46626 1.93555 4.5312ZM24.6645 13.2536L5.08158 2.48599L5.06937 2.47913C4.73202 2.29632 4.41147 2.75183 4.68775 3.01691L20.0386 17.6663L24.6645 13.2536ZM4.68928 35.9826C4.41147 36.2477 4.73202 36.7032 5.0709 36.5204L5.08311 36.5135L24.6645 25.7458L20.0386 21.3317L4.68928 35.9826ZM32.5701 17.5954L27.1015 14.5897L21.9597 19.4997L27.1015 24.4075L32.5701 21.404C34.0576 20.5837 34.0576 18.4158 32.5701 17.5954Z" fill="#0E101A"/>
</svg>
