<svg width="134" height="134" viewBox="0 0 134 134" fill="none" xmlns="http://www.w3.org/2000/svg">
<path d="M134 0H0V134H134V0Z" fill="white"/>
<path d="M11.8583 8.30078H8.30078V11.8583H11.8583V8.30078Z" fill="black"/>
<path d="M15.4159 8.30078H11.8584V11.8583H15.4159V8.30078Z" fill="black"/>
<path d="M18.9735 8.30078H15.416V11.8583H18.9735V8.30078Z" fill="black"/>
<path d="M22.5312 8.30078H18.9736V11.8583H22.5312V8.30078Z" fill="black"/>
<path d="M26.0888 8.30078H22.5312V11.8583H26.0888V8.30078Z" fill="black"/>
<path d="M29.6464 8.30078H26.0889V11.8583H29.6464V8.30078Z" fill="black"/>
<path d="M33.204 8.30078H29.6465V11.8583H33.204V8.30078Z" fill="black"/>
<path d="M36.7606 8.30078H33.2031V11.8583H36.7606V8.30078Z" fill="white"/>
<path d="M40.3183 8.30078H36.7607V11.8583H40.3183V8.30078Z" fill="black"/>
<path d="M43.8759 8.30078H40.3184V11.8583H43.8759V8.30078Z" fill="black"/>
<path d="M47.4335 8.30078H43.876V11.8583H47.4335V8.30078Z" fill="black"/>
<path d="M50.9911 8.30078H47.4336V11.8583H50.9911V8.30078Z" fill="white"/>
<path d="M54.5487 8.30078H50.9912V11.8583H54.5487V8.30078Z" fill="black"/>
<path d="M58.1064 8.30078H54.5488V11.8583H58.1064V8.30078Z" fill="white"/>
<path d="M61.664 8.30078H58.1064V11.8583H61.664V8.30078Z" fill="white"/>
<path d="M65.2216 8.30078H61.6641V11.8583H65.2216V8.30078Z" fill="white"/>
<path d="M68.7792 8.30078H65.2217V11.8583H68.7792V8.30078Z" fill="white"/>
<path d="M72.3358 8.30078H68.7783V11.8583H72.3358V8.30078Z" fill="white"/>
<path d="M75.8935 8.30078H72.3359V11.8583H75.8935V8.30078Z" fill="white"/>
<path d="M79.4511 8.30078H75.8936V11.8583H79.4511V8.30078Z" fill="white"/>
<path d="M83.0087 8.30078H79.4512V11.8583H83.0087V8.30078Z" fill="black"/>
<path d="M86.5663 8.30078H83.0088V11.8583H86.5663V8.30078Z" fill="black"/>
<path d="M90.1239 8.30078H86.5664V11.8583H90.1239V8.30078Z" fill="white"/>
<path d="M93.6815 8.30078H90.124V11.8583H93.6815V8.30078Z" fill="black"/>
<path d="M97.2392 8.30078H93.6816V11.8583H97.2392V8.30078Z" fill="black"/>
<path d="M100.797 8.30078H97.2393V11.8583H100.797V8.30078Z" fill="white"/>
<path d="M104.354 8.30078H100.797V11.8583H104.354V8.30078Z" fill="black"/>
<path d="M107.911 8.30078H104.354V11.8583H107.911V8.30078Z" fill="black"/>
<path d="M111.469 8.30078H107.911V11.8583H111.469V8.30078Z" fill="black"/>
<path d="M115.026 8.30078H111.469V11.8583H115.026V8.30078Z" fill="black"/>
<path d="M118.584 8.30078H115.026V11.8583H118.584V8.30078Z" fill="black"/>
<path d="M122.142 8.30078H118.584V11.8583H122.142V8.30078Z" fill="black"/>
<path d="M125.699 8.30078H122.142V11.8583H125.699V8.30078Z" fill="black"/>
<path d="M11.8583 11.8584H8.30078V15.4159H11.8583V11.8584Z" fill="black"/>
<path d="M15.4159 11.8584H11.8584V15.4159H15.4159V11.8584Z" fill="white"/>
<path d="M18.9735 11.8584H15.416V15.4159H18.9735V11.8584Z" fill="white"/>
<path d="M22.5312 11.8584H18.9736V15.4159H22.5312V11.8584Z" fill="white"/>
<path d="M26.0888 11.8584H22.5312V15.4159H26.0888V11.8584Z" fill="white"/>
<path d="M29.6464 11.8584H26.0889V15.4159H29.6464V11.8584Z" fill="white"/>
<path d="M33.204 11.8584H29.6465V15.4159H33.204V11.8584Z" fill="black"/>
<path d="M36.7606 11.8584H33.2031V15.4159H36.7606V11.8584Z" fill="white"/>
<path d="M40.3183 11.8584H36.7607V15.4159H40.3183V11.8584Z" fill="black"/>
<path d="M43.8759 11.8584H40.3184V15.4159H43.8759V11.8584Z" fill="black"/>
<path d="M47.4335 11.8584H43.876V15.4159H47.4335V11.8584Z" fill="black"/>
<path d="M50.9911 11.8584H47.4336V15.4159H50.9911V11.8584Z" fill="white"/>
<path d="M54.5487 11.8584H50.9912V15.4159H54.5487V11.8584Z" fill="white"/>
<path d="M58.1064 11.8584H54.5488V15.4159H58.1064V11.8584Z" fill="white"/>
<path d="M61.664 11.8584H58.1064V15.4159H61.664V11.8584Z" fill="white"/>
<path d="M65.2216 11.8584H61.6641V15.4159H65.2216V11.8584Z" fill="white"/>
<path d="M68.7792 11.8584H65.2217V15.4159H68.7792V11.8584Z" fill="black"/>
<path d="M72.3358 11.8584H68.7783V15.4159H72.3358V11.8584Z" fill="white"/>
<path d="M75.8935 11.8584H72.3359V15.4159H75.8935V11.8584Z" fill="white"/>
<path d="M79.4511 11.8584H75.8936V15.4159H79.4511V11.8584Z" fill="black"/>
<path d="M83.0087 11.8584H79.4512V15.4159H83.0087V11.8584Z" fill="white"/>
<path d="M86.5663 11.8584H83.0088V15.4159H86.5663V11.8584Z" fill="black"/>
<path d="M90.1239 11.8584H86.5664V15.4159H90.1239V11.8584Z" fill="black"/>
<path d="M93.6815 11.8584H90.124V15.4159H93.6815V11.8584Z" fill="white"/>
<path d="M97.2392 11.8584H93.6816V15.4159H97.2392V11.8584Z" fill="white"/>
<path d="M100.797 11.8584H97.2393V15.4159H100.797V11.8584Z" fill="white"/>
<path d="M104.354 11.8584H100.797V15.4159H104.354V11.8584Z" fill="black"/>
<path d="M107.911 11.8584H104.354V15.4159H107.911V11.8584Z" fill="white"/>
<path d="M111.469 11.8584H107.911V15.4159H111.469V11.8584Z" fill="white"/>
<path d="M115.026 11.8584H111.469V15.4159H115.026V11.8584Z" fill="white"/>
<path d="M118.584 11.8584H115.026V15.4159H118.584V11.8584Z" fill="white"/>
<path d="M122.142 11.8584H118.584V15.4159H122.142V11.8584Z" fill="white"/>
<path d="M125.699 11.8584H122.142V15.4159H125.699V11.8584Z" fill="black"/>
<path d="M11.8583 15.416H8.30078V18.9735H11.8583V15.416Z" fill="black"/>
<path d="M15.4159 15.416H11.8584V18.9735H15.4159V15.416Z" fill="white"/>
<path d="M18.9735 15.416H15.416V18.9735H18.9735V15.416Z" fill="black"/>
<path d="M22.5312 15.416H18.9736V18.9735H22.5312V15.416Z" fill="black"/>
<path d="M26.0888 15.416H22.5312V18.9735H26.0888V15.416Z" fill="black"/>
<path d="M29.6464 15.416H26.0889V18.9735H29.6464V15.416Z" fill="white"/>
<path d="M33.204 15.416H29.6465V18.9735H33.204V15.416Z" fill="black"/>
<path d="M36.7606 15.416H33.2031V18.9735H36.7606V15.416Z" fill="white"/>
<path d="M40.3183 15.416H36.7607V18.9735H40.3183V15.416Z" fill="black"/>
<path d="M43.8759 15.416H40.3184V18.9735H43.8759V15.416Z" fill="white"/>
<path d="M47.4335 15.416H43.876V18.9735H47.4335V15.416Z" fill="black"/>
<path d="M50.9911 15.416H47.4336V18.9735H50.9911V15.416Z" fill="black"/>
<path d="M54.5487 15.416H50.9912V18.9735H54.5487V15.416Z" fill="white"/>
<path d="M58.1064 15.416H54.5488V18.9735H58.1064V15.416Z" fill="black"/>
<path d="M61.664 15.416H58.1064V18.9735H61.664V15.416Z" fill="white"/>
<path d="M65.2216 15.416H61.6641V18.9735H65.2216V15.416Z" fill="black"/>
<path d="M68.7792 15.416H65.2217V18.9735H68.7792V15.416Z" fill="black"/>
<path d="M72.3358 15.416H68.7783V18.9735H72.3358V15.416Z" fill="black"/>
<path d="M75.8935 15.416H72.3359V18.9735H75.8935V15.416Z" fill="black"/>
<path d="M79.4511 15.416H75.8936V18.9735H79.4511V15.416Z" fill="white"/>
<path d="M83.0087 15.416H79.4512V18.9735H83.0087V15.416Z" fill="white"/>
<path d="M86.5663 15.416H83.0088V18.9735H86.5663V15.416Z" fill="black"/>
<path d="M90.1239 15.416H86.5664V18.9735H90.1239V15.416Z" fill="black"/>
<path d="M93.6815 15.416H90.124V18.9735H93.6815V15.416Z" fill="white"/>
<path d="M97.2392 15.416H93.6816V18.9735H97.2392V15.416Z" fill="white"/>
<path d="M100.797 15.416H97.2393V18.9735H100.797V15.416Z" fill="white"/>
<path d="M104.354 15.416H100.797V18.9735H104.354V15.416Z" fill="black"/>
<path d="M107.911 15.416H104.354V18.9735H107.911V15.416Z" fill="white"/>
<path d="M111.469 15.416H107.911V18.9735H111.469V15.416Z" fill="black"/>
<path d="M115.026 15.416H111.469V18.9735H115.026V15.416Z" fill="black"/>
<path d="M118.584 15.416H115.026V18.9735H118.584V15.416Z" fill="black"/>
<path d="M122.142 15.416H118.584V18.9735H122.142V15.416Z" fill="white"/>
<path d="M125.699 15.416H122.142V18.9735H125.699V15.416Z" fill="black"/>
<path d="M11.8583 18.9734H8.30078V22.5309H11.8583V18.9734Z" fill="black"/>
<path d="M15.4159 18.9734H11.8584V22.5309H15.4159V18.9734Z" fill="white"/>
<path d="M18.9735 18.9734H15.416V22.5309H18.9735V18.9734Z" fill="black"/>
<path d="M22.5312 18.9734H18.9736V22.5309H22.5312V18.9734Z" fill="black"/>
<path d="M26.0888 18.9736H22.5312V22.5312H26.0888V18.9736Z" fill="black"/>
<path d="M29.6464 18.9736H26.0889V22.5312H29.6464V18.9736Z" fill="white"/>
<path d="M33.204 18.9736H29.6465V22.5312H33.204V18.9736Z" fill="black"/>
<path d="M36.7606 18.9736H33.2031V22.5312H36.7606V18.9736Z" fill="white"/>
<path d="M40.3183 18.9736H36.7607V22.5312H40.3183V18.9736Z" fill="black"/>
<path d="M43.8759 18.9734H40.3184V22.5309H43.8759V18.9734Z" fill="black"/>
<path d="M47.4335 18.9734H43.876V22.5309H47.4335V18.9734Z" fill="white"/>
<path d="M50.9911 18.9734H47.4336V22.5309H50.9911V18.9734Z" fill="black"/>
<path d="M54.5487 18.9734H50.9912V22.5309H54.5487V18.9734Z" fill="white"/>
<path d="M58.1064 18.9734H54.5488V22.5309H58.1064V18.9734Z" fill="white"/>
<path d="M61.664 18.9736H58.1064V22.5312H61.664V18.9736Z" fill="black"/>
<path d="M65.2216 18.9736H61.6641V22.5312H65.2216V18.9736Z" fill="black"/>
<path d="M68.7792 18.9736H65.2217V22.5312H68.7792V18.9736Z" fill="black"/>
<path d="M72.3358 18.9736H68.7783V22.5312H72.3358V18.9736Z" fill="white"/>
<path d="M75.8935 18.9736H72.3359V22.5312H75.8935V18.9736Z" fill="white"/>
<path d="M79.4511 18.9736H75.8936V22.5312H79.4511V18.9736Z" fill="black"/>
<path d="M83.0087 18.9734H79.4512V22.5309H83.0087V18.9734Z" fill="black"/>
<path d="M86.5663 18.9734H83.0088V22.5309H86.5663V18.9734Z" fill="white"/>
<path d="M90.1239 18.9734H86.5664V22.5309H90.1239V18.9734Z" fill="white"/>
<path d="M93.6815 18.9734H90.124V22.5309H93.6815V18.9734Z" fill="white"/>
<path d="M97.2392 18.9734H93.6816V22.5309H97.2392V18.9734Z" fill="white"/>
<path d="M100.797 18.9736H97.2393V22.5312H100.797V18.9736Z" fill="white"/>
<path d="M104.354 18.9736H100.797V22.5312H104.354V18.9736Z" fill="black"/>
<path d="M107.911 18.9736H104.354V22.5312H107.911V18.9736Z" fill="white"/>
<path d="M111.469 18.9736H107.911V22.5312H111.469V18.9736Z" fill="black"/>
<path d="M115.026 18.9736H111.469V22.5312H115.026V18.9736Z" fill="black"/>
<path d="M118.584 18.9734H115.026V22.5309H118.584V18.9734Z" fill="black"/>
<path d="M122.142 18.9734H118.584V22.5309H122.142V18.9734Z" fill="white"/>
<path d="M125.699 18.9734H122.142V22.5309H125.699V18.9734Z" fill="black"/>
<path d="M11.8583 22.531H8.30078V26.0885H11.8583V22.531Z" fill="black"/>
<path d="M15.4159 22.531H11.8584V26.0885H15.4159V22.531Z" fill="white"/>
<path d="M18.9735 22.531H15.416V26.0885H18.9735V22.531Z" fill="black"/>
<path d="M22.5312 22.531H18.9736V26.0885H22.5312V22.531Z" fill="black"/>
<path d="M26.0888 22.5308H22.5312V26.0883H26.0888V22.5308Z" fill="black"/>
<path d="M29.6464 22.5308H26.0889V26.0883H29.6464V22.5308Z" fill="white"/>
<path d="M33.204 22.5308H29.6465V26.0883H33.204V22.5308Z" fill="black"/>
<path d="M36.7606 22.5308H33.2031V26.0883H36.7606V22.5308Z" fill="white"/>
<path d="M40.3183 22.5308H36.7607V26.0883H40.3183V22.5308Z" fill="white"/>
<path d="M43.8759 22.531H40.3184V26.0885H43.8759V22.531Z" fill="white"/>
<path d="M47.4335 22.531H43.876V26.0885H47.4335V22.531Z" fill="white"/>
<path d="M50.9911 22.531H47.4336V26.0885H50.9911V22.531Z" fill="white"/>
<path d="M54.5487 22.531H50.9912V26.0885H54.5487V22.531Z" fill="white"/>
<path d="M58.1064 22.531H54.5488V26.0885H58.1064V22.531Z" fill="black"/>
<path d="M61.664 22.5308H58.1064V26.0883H61.664V22.5308Z" fill="black"/>
<path d="M65.2216 22.5308H61.6641V26.0883H65.2216V22.5308Z" fill="white"/>
<path d="M68.7792 22.5308H65.2217V26.0883H68.7792V22.5308Z" fill="black"/>
<path d="M72.3358 22.5308H68.7783V26.0883H72.3358V22.5308Z" fill="black"/>
<path d="M75.8935 22.5308H72.3359V26.0883H75.8935V22.5308Z" fill="white"/>
<path d="M79.4511 22.5308H75.8936V26.0883H79.4511V22.5308Z" fill="white"/>
<path d="M83.0087 22.531H79.4512V26.0885H83.0087V22.531Z" fill="black"/>
<path d="M86.5663 22.531H83.0088V26.0885H86.5663V22.531Z" fill="black"/>
<path d="M90.1239 22.531H86.5664V26.0885H90.1239V22.531Z" fill="white"/>
<path d="M93.6815 22.531H90.124V26.0885H93.6815V22.531Z" fill="black"/>
<path d="M97.2392 22.531H93.6816V26.0885H97.2392V22.531Z" fill="white"/>
<path d="M100.797 22.5308H97.2393V26.0883H100.797V22.5308Z" fill="white"/>
<path d="M104.354 22.5308H100.797V26.0883H104.354V22.5308Z" fill="black"/>
<path d="M107.911 22.5308H104.354V26.0883H107.911V22.5308Z" fill="white"/>
<path d="M111.469 22.5308H107.911V26.0883H111.469V22.5308Z" fill="black"/>
<path d="M115.026 22.5308H111.469V26.0883H115.026V22.5308Z" fill="black"/>
<path d="M118.584 22.531H115.026V26.0885H118.584V22.531Z" fill="black"/>
<path d="M122.142 22.531H118.584V26.0885H122.142V22.531Z" fill="white"/>
<path d="M125.699 22.531H122.142V26.0885H125.699V22.531Z" fill="black"/>
<path d="M11.8583 26.0884H8.30078V29.6459H11.8583V26.0884Z" fill="black"/>
<path d="M15.4159 26.0884H11.8584V29.6459H15.4159V26.0884Z" fill="white"/>
<path d="M18.9735 26.0884H15.416V29.6459H18.9735V26.0884Z" fill="white"/>
<path d="M22.5312 26.0884H18.9736V29.6459H22.5312V26.0884Z" fill="white"/>
<path d="M26.0888 26.0884H22.5312V29.6459H26.0888V26.0884Z" fill="white"/>
<path d="M29.6464 26.0884H26.0889V29.6459H29.6464V26.0884Z" fill="white"/>
<path d="M33.204 26.0884H29.6465V29.6459H33.204V26.0884Z" fill="black"/>
<path d="M36.7606 26.0884H33.2031V29.6459H36.7606V26.0884Z" fill="white"/>
<path d="M40.3183 26.0884H36.7607V29.6459H40.3183V26.0884Z" fill="black"/>
<path d="M43.8759 26.0884H40.3184V29.6459H43.8759V26.0884Z" fill="white"/>
<path d="M47.4335 26.0884H43.876V29.6459H47.4335V26.0884Z" fill="white"/>
<path d="M50.9911 26.0884H47.4336V29.6459H50.9911V26.0884Z" fill="black"/>
<path d="M54.5487 26.0884H50.9912V29.6459H54.5487V26.0884Z" fill="black"/>
<path d="M58.1064 26.0884H54.5488V29.6459H58.1064V26.0884Z" fill="black"/>
<path d="M61.664 26.0884H58.1064V29.6459H61.664V26.0884Z" fill="black"/>
<path d="M65.2216 26.0884H61.6641V29.6459H65.2216V26.0884Z" fill="black"/>
<path d="M68.7792 26.0884H65.2217V29.6459H68.7792V26.0884Z" fill="white"/>
<path d="M72.3358 26.0884H68.7783V29.6459H72.3358V26.0884Z" fill="black"/>
<path d="M75.8935 26.0884H72.3359V29.6459H75.8935V26.0884Z" fill="white"/>
<path d="M79.4511 26.0884H75.8936V29.6459H79.4511V26.0884Z" fill="black"/>
<path d="M83.0087 26.0884H79.4512V29.6459H83.0087V26.0884Z" fill="black"/>
<path d="M86.5663 26.0884H83.0088V29.6459H86.5663V26.0884Z" fill="white"/>
<path d="M90.1239 26.0884H86.5664V29.6459H90.1239V26.0884Z" fill="black"/>
<path d="M93.6815 26.0884H90.124V29.6459H93.6815V26.0884Z" fill="white"/>
<path d="M97.2392 26.0884H93.6816V29.6459H97.2392V26.0884Z" fill="black"/>
<path d="M100.797 26.0884H97.2393V29.6459H100.797V26.0884Z" fill="white"/>
<path d="M104.354 26.0884H100.797V29.6459H104.354V26.0884Z" fill="black"/>
<path d="M107.911 26.0884H104.354V29.6459H107.911V26.0884Z" fill="white"/>
<path d="M111.469 26.0884H107.911V29.6459H111.469V26.0884Z" fill="white"/>
<path d="M115.026 26.0884H111.469V29.6459H115.026V26.0884Z" fill="white"/>
<path d="M118.584 26.0884H115.026V29.6459H118.584V26.0884Z" fill="white"/>
<path d="M122.142 26.0884H118.584V29.6459H122.142V26.0884Z" fill="white"/>
<path d="M125.699 26.0884H122.142V29.6459H125.699V26.0884Z" fill="black"/>
<path d="M11.8583 29.646H8.30078V33.2035H11.8583V29.646Z" fill="black"/>
<path d="M15.4159 29.646H11.8584V33.2035H15.4159V29.646Z" fill="black"/>
<path d="M18.9735 29.646H15.416V33.2035H18.9735V29.646Z" fill="black"/>
<path d="M22.5312 29.646H18.9736V33.2035H22.5312V29.646Z" fill="black"/>
<path d="M26.0888 29.646H22.5312V33.2035H26.0888V29.646Z" fill="black"/>
<path d="M29.6464 29.646H26.0889V33.2035H29.6464V29.646Z" fill="black"/>
<path d="M33.204 29.646H29.6465V33.2035H33.204V29.646Z" fill="black"/>
<path d="M36.7606 29.646H33.2031V33.2035H36.7606V29.646Z" fill="white"/>
<path d="M40.3183 29.646H36.7607V33.2035H40.3183V29.646Z" fill="black"/>
<path d="M43.8759 29.646H40.3184V33.2035H43.8759V29.646Z" fill="white"/>
<path d="M47.4335 29.646H43.876V33.2035H47.4335V29.646Z" fill="black"/>
<path d="M50.9911 29.646H47.4336V33.2035H50.9911V29.646Z" fill="white"/>
<path d="M54.5487 29.646H50.9912V33.2035H54.5487V29.646Z" fill="black"/>
<path d="M58.1064 29.646H54.5488V33.2035H58.1064V29.646Z" fill="white"/>
<path d="M61.664 29.646H58.1064V33.2035H61.664V29.646Z" fill="black"/>
<path d="M65.2216 29.646H61.6641V33.2035H65.2216V29.646Z" fill="white"/>
<path d="M68.7792 29.646H65.2217V33.2035H68.7792V29.646Z" fill="black"/>
<path d="M72.3358 29.646H68.7783V33.2035H72.3358V29.646Z" fill="white"/>
<path d="M75.8935 29.646H72.3359V33.2035H75.8935V29.646Z" fill="black"/>
<path d="M79.4511 29.646H75.8936V33.2035H79.4511V29.646Z" fill="white"/>
<path d="M83.0087 29.646H79.4512V33.2035H83.0087V29.646Z" fill="black"/>
<path d="M86.5663 29.646H83.0088V33.2035H86.5663V29.646Z" fill="white"/>
<path d="M90.1239 29.646H86.5664V33.2035H90.1239V29.646Z" fill="black"/>
<path d="M93.6815 29.646H90.124V33.2035H93.6815V29.646Z" fill="white"/>
<path d="M97.2392 29.646H93.6816V33.2035H97.2392V29.646Z" fill="black"/>
<path d="M100.797 29.646H97.2393V33.2035H100.797V29.646Z" fill="white"/>
<path d="M104.354 29.646H100.797V33.2035H104.354V29.646Z" fill="black"/>
<path d="M107.911 29.646H104.354V33.2035H107.911V29.646Z" fill="black"/>
<path d="M111.469 29.646H107.911V33.2035H111.469V29.646Z" fill="black"/>
<path d="M115.026 29.646H111.469V33.2035H115.026V29.646Z" fill="black"/>
<path d="M118.584 29.646H115.026V33.2035H118.584V29.646Z" fill="black"/>
<path d="M122.142 29.646H118.584V33.2035H122.142V29.646Z" fill="black"/>
<path d="M125.699 29.646H122.142V33.2035H125.699V29.646Z" fill="black"/>
<path d="M11.8583 33.2036H8.30078V36.7611H11.8583V33.2036Z" fill="white"/>
<path d="M15.4159 33.2036H11.8584V36.7611H15.4159V33.2036Z" fill="white"/>
<path d="M18.9735 33.2036H15.416V36.7611H18.9735V33.2036Z" fill="white"/>
<path d="M22.5312 33.2036H18.9736V36.7611H22.5312V33.2036Z" fill="white"/>
<path d="M26.0888 33.2036H22.5312V36.7611H26.0888V33.2036Z" fill="white"/>
<path d="M29.6464 33.2036H26.0889V36.7611H29.6464V33.2036Z" fill="white"/>
<path d="M33.204 33.2036H29.6465V36.7611H33.204V33.2036Z" fill="white"/>
<path d="M36.7606 33.2036H33.2031V36.7611H36.7606V33.2036Z" fill="white"/>
<path d="M40.3183 33.2036H36.7607V36.7611H40.3183V33.2036Z" fill="white"/>
<path d="M43.8759 33.2036H40.3184V36.7611H43.8759V33.2036Z" fill="black"/>
<path d="M47.4335 33.2036H43.876V36.7611H47.4335V33.2036Z" fill="white"/>
<path d="M50.9911 33.2036H47.4336V36.7611H50.9911V33.2036Z" fill="white"/>
<path d="M54.5487 33.2036H50.9912V36.7611H54.5487V33.2036Z" fill="black"/>
<path d="M58.1064 33.2036H54.5488V36.7611H58.1064V33.2036Z" fill="white"/>
<path d="M61.664 33.2036H58.1064V36.7611H61.664V33.2036Z" fill="black"/>
<path d="M65.2216 33.2036H61.6641V36.7611H65.2216V33.2036Z" fill="white"/>
<path d="M68.7792 33.2036H65.2217V36.7611H68.7792V33.2036Z" fill="white"/>
<path d="M72.3358 33.2036H68.7783V36.7611H72.3358V33.2036Z" fill="black"/>
<path d="M75.8935 33.2036H72.3359V36.7611H75.8935V33.2036Z" fill="black"/>
<path d="M79.4511 33.2036H75.8936V36.7611H79.4511V33.2036Z" fill="black"/>
<path d="M83.0087 33.2036H79.4512V36.7611H83.0087V33.2036Z" fill="white"/>
<path d="M86.5663 33.2036H83.0088V36.7611H86.5663V33.2036Z" fill="black"/>
<path d="M90.1239 33.2036H86.5664V36.7611H90.1239V33.2036Z" fill="white"/>
<path d="M93.6815 33.2036H90.124V36.7611H93.6815V33.2036Z" fill="white"/>
<path d="M97.2392 33.2036H93.6816V36.7611H97.2392V33.2036Z" fill="black"/>
<path d="M100.797 33.2036H97.2393V36.7611H100.797V33.2036Z" fill="white"/>
<path d="M104.354 33.2036H100.797V36.7611H104.354V33.2036Z" fill="white"/>
<path d="M107.911 33.2036H104.354V36.7611H107.911V33.2036Z" fill="white"/>
<path d="M111.469 33.2036H107.911V36.7611H111.469V33.2036Z" fill="white"/>
<path d="M115.026 33.2036H111.469V36.7611H115.026V33.2036Z" fill="white"/>
<path d="M118.584 33.2036H115.026V36.7611H118.584V33.2036Z" fill="white"/>
<path d="M122.142 33.2036H118.584V36.7611H122.142V33.2036Z" fill="white"/>
<path d="M125.699 33.2036H122.142V36.7611H125.699V33.2036Z" fill="white"/>
<path d="M11.8583 36.761H8.30078V40.3185H11.8583V36.761Z" fill="black"/>
<path d="M15.4159 36.761H11.8584V40.3185H15.4159V36.761Z" fill="black"/>
<path d="M18.9735 36.761H15.416V40.3185H18.9735V36.761Z" fill="white"/>
<path d="M22.5312 36.761H18.9736V40.3185H22.5312V36.761Z" fill="white"/>
<path d="M26.0888 36.7612H22.5312V40.3188H26.0888V36.7612Z" fill="black"/>
<path d="M29.6464 36.7612H26.0889V40.3188H29.6464V36.7612Z" fill="black"/>
<path d="M33.204 36.7612H29.6465V40.3188H33.204V36.7612Z" fill="black"/>
<path d="M36.7606 36.7612H33.2031V40.3188H36.7606V36.7612Z" fill="white"/>
<path d="M40.3183 36.7612H36.7607V40.3188H40.3183V36.7612Z" fill="white"/>
<path d="M43.8759 36.761H40.3184V40.3185H43.8759V36.761Z" fill="white"/>
<path d="M47.4335 36.761H43.876V40.3185H47.4335V36.761Z" fill="white"/>
<path d="M50.9911 36.761H47.4336V40.3185H50.9911V36.761Z" fill="black"/>
<path d="M54.5487 36.761H50.9912V40.3185H54.5487V36.761Z" fill="white"/>
<path d="M58.1064 36.761H54.5488V40.3185H58.1064V36.761Z" fill="black"/>
<path d="M61.664 36.7612H58.1064V40.3188H61.664V36.7612Z" fill="black"/>
<path d="M65.2216 36.7612H61.6641V40.3188H65.2216V36.7612Z" fill="black"/>
<path d="M68.7792 36.7612H65.2217V40.3188H68.7792V36.7612Z" fill="black"/>
<path d="M72.3358 36.7612H68.7783V40.3188H72.3358V36.7612Z" fill="black"/>
<path d="M75.8935 36.7612H72.3359V40.3188H75.8935V36.7612Z" fill="white"/>
<path d="M79.4511 36.7612H75.8936V40.3188H79.4511V36.7612Z" fill="black"/>
<path d="M83.0087 36.761H79.4512V40.3185H83.0087V36.761Z" fill="black"/>
<path d="M86.5663 36.761H83.0088V40.3185H86.5663V36.761Z" fill="black"/>
<path d="M90.1239 36.761H86.5664V40.3185H90.1239V36.761Z" fill="black"/>
<path d="M93.6815 36.761H90.124V40.3185H93.6815V36.761Z" fill="black"/>
<path d="M97.2392 36.761H93.6816V40.3185H97.2392V36.761Z" fill="black"/>
<path d="M100.797 36.7612H97.2393V40.3188H100.797V36.7612Z" fill="white"/>
<path d="M104.354 36.7612H100.797V40.3188H104.354V36.7612Z" fill="white"/>
<path d="M107.911 36.7612H104.354V40.3188H107.911V36.7612Z" fill="black"/>
<path d="M111.469 36.7612H107.911V40.3188H111.469V36.7612Z" fill="white"/>
<path d="M115.026 36.7612H111.469V40.3188H115.026V36.7612Z" fill="black"/>
<path d="M118.584 36.761H115.026V40.3185H118.584V36.761Z" fill="black"/>
<path d="M122.142 36.761H118.584V40.3185H122.142V36.761Z" fill="black"/>
<path d="M125.699 36.761H122.142V40.3185H125.699V36.761Z" fill="black"/>
<path d="M11.8583 40.3186H8.30078V43.8761H11.8583V40.3186Z" fill="black"/>
<path d="M15.4159 40.3186H11.8584V43.8761H15.4159V40.3186Z" fill="white"/>
<path d="M18.9735 40.3186H15.416V43.8761H18.9735V40.3186Z" fill="black"/>
<path d="M22.5312 40.3186H18.9736V43.8761H22.5312V40.3186Z" fill="black"/>
<path d="M26.0888 40.3184H22.5312V43.8759H26.0888V40.3184Z" fill="white"/>
<path d="M29.6464 40.3184H26.0889V43.8759H29.6464V40.3184Z" fill="black"/>
<path d="M33.204 40.3184H29.6465V43.8759H33.204V40.3184Z" fill="white"/>
<path d="M36.7606 40.3184H33.2031V43.8759H36.7606V40.3184Z" fill="white"/>
<path d="M40.3183 40.3184H36.7607V43.8759H40.3183V40.3184Z" fill="black"/>
<path d="M43.8759 40.3186H40.3184V43.8761H43.8759V40.3186Z" fill="black"/>
<path d="M47.4335 40.3186H43.876V43.8761H47.4335V40.3186Z" fill="black"/>
<path d="M50.9911 40.3186H47.4336V43.8761H50.9911V40.3186Z" fill="white"/>
<path d="M54.5487 40.3186H50.9912V43.8761H54.5487V40.3186Z" fill="black"/>
<path d="M58.1064 40.3186H54.5488V43.8761H58.1064V40.3186Z" fill="white"/>
<path d="M61.664 40.3184H58.1064V43.8759H61.664V40.3184Z" fill="white"/>
<path d="M65.2216 40.3184H61.6641V43.8759H65.2216V40.3184Z" fill="white"/>
<path d="M68.7792 40.3184H65.2217V43.8759H68.7792V40.3184Z" fill="white"/>
<path d="M72.3358 40.3184H68.7783V43.8759H72.3358V40.3184Z" fill="white"/>
<path d="M75.8935 40.3184H72.3359V43.8759H75.8935V40.3184Z" fill="black"/>
<path d="M79.4511 40.3184H75.8936V43.8759H79.4511V40.3184Z" fill="white"/>
<path d="M83.0087 40.3186H79.4512V43.8761H83.0087V40.3186Z" fill="white"/>
<path d="M86.5663 40.3186H83.0088V43.8761H86.5663V40.3186Z" fill="white"/>
<path d="M90.1239 40.3186H86.5664V43.8761H90.1239V40.3186Z" fill="white"/>
<path d="M93.6815 40.3186H90.124V43.8761H93.6815V40.3186Z" fill="black"/>
<path d="M97.2392 40.3186H93.6816V43.8761H97.2392V40.3186Z" fill="white"/>
<path d="M100.797 40.3184H97.2393V43.8759H100.797V40.3184Z" fill="black"/>
<path d="M104.354 40.3184H100.797V43.8759H104.354V40.3184Z" fill="white"/>
<path d="M107.911 40.3184H104.354V43.8759H107.911V40.3184Z" fill="black"/>
<path d="M111.469 40.3184H107.911V43.8759H111.469V40.3184Z" fill="white"/>
<path d="M115.026 40.3184H111.469V43.8759H115.026V40.3184Z" fill="white"/>
<path d="M118.584 40.3186H115.026V43.8761H118.584V40.3186Z" fill="black"/>
<path d="M122.142 40.3186H118.584V43.8761H122.142V40.3186Z" fill="white"/>
<path d="M125.699 40.3186H122.142V43.8761H125.699V40.3186Z" fill="white"/>
<path d="M11.8583 43.8762H8.30078V47.4337H11.8583V43.8762Z" fill="white"/>
<path d="M15.4159 43.8762H11.8584V47.4337H15.4159V43.8762Z" fill="black"/>
<path d="M18.9735 43.8762H15.416V47.4337H18.9735V43.8762Z" fill="black"/>
<path d="M22.5312 43.8762H18.9736V47.4337H22.5312V43.8762Z" fill="black"/>
<path d="M26.0888 43.876H22.5312V47.4335H26.0888V43.876Z" fill="black"/>
<path d="M29.6464 43.876H26.0889V47.4335H29.6464V43.876Z" fill="white"/>
<path d="M33.204 43.876H29.6465V47.4335H33.204V43.876Z" fill="black"/>
<path d="M36.7606 43.876H33.2031V47.4335H36.7606V43.876Z" fill="black"/>
<path d="M40.3183 43.876H36.7607V47.4335H40.3183V43.876Z" fill="black"/>
<path d="M43.8759 43.8762H40.3184V47.4337H43.8759V43.8762Z" fill="white"/>
<path d="M47.4335 43.8762H43.876V47.4337H47.4335V43.8762Z" fill="white"/>
<path d="M50.9911 43.8762H47.4336V47.4337H50.9911V43.8762Z" fill="black"/>
<path d="M54.5487 43.8762H50.9912V47.4337H54.5487V43.8762Z" fill="black"/>
<path d="M58.1064 43.8762H54.5488V47.4337H58.1064V43.8762Z" fill="black"/>
<path d="M61.664 43.876H58.1064V47.4335H61.664V43.876Z" fill="black"/>
<path d="M65.2216 43.876H61.6641V47.4335H65.2216V43.876Z" fill="black"/>
<path d="M68.7792 43.876H65.2217V47.4335H68.7792V43.876Z" fill="white"/>
<path d="M72.3358 43.876H68.7783V47.4335H72.3358V43.876Z" fill="black"/>
<path d="M75.8935 43.876H72.3359V47.4335H75.8935V43.876Z" fill="white"/>
<path d="M79.4511 43.876H75.8936V47.4335H79.4511V43.876Z" fill="white"/>
<path d="M83.0087 43.8762H79.4512V47.4337H83.0087V43.8762Z" fill="black"/>
<path d="M86.5663 43.8762H83.0088V47.4337H86.5663V43.8762Z" fill="black"/>
<path d="M90.1239 43.8762H86.5664V47.4337H90.1239V43.8762Z" fill="white"/>
<path d="M93.6815 43.8762H90.124V47.4337H93.6815V43.8762Z" fill="black"/>
<path d="M97.2392 43.8762H93.6816V47.4337H97.2392V43.8762Z" fill="black"/>
<path d="M100.797 43.876H97.2393V47.4335H100.797V43.876Z" fill="black"/>
<path d="M104.354 43.876H100.797V47.4335H104.354V43.876Z" fill="black"/>
<path d="M107.911 43.876H104.354V47.4335H107.911V43.876Z" fill="white"/>
<path d="M111.469 43.876H107.911V47.4335H111.469V43.876Z" fill="black"/>
<path d="M115.026 43.876H111.469V47.4335H115.026V43.876Z" fill="white"/>
<path d="M118.584 43.8762H115.026V47.4337H118.584V43.8762Z" fill="black"/>
<path d="M122.142 43.8762H118.584V47.4337H122.142V43.8762Z" fill="black"/>
<path d="M125.699 43.8762H122.142V47.4337H125.699V43.8762Z" fill="white"/>
<path d="M11.8583 47.4336H8.30078V50.9911H11.8583V47.4336Z" fill="white"/>
<path d="M15.4159 47.4336H11.8584V50.9911H15.4159V47.4336Z" fill="black"/>
<path d="M18.9735 47.4336H15.416V50.9911H18.9735V47.4336Z" fill="white"/>
<path d="M22.5312 47.4336H18.9736V50.9911H22.5312V47.4336Z" fill="white"/>
<path d="M26.0888 47.4336H22.5312V50.9911H26.0888V47.4336Z" fill="white"/>
<path d="M29.6464 47.4336H26.0889V50.9911H29.6464V47.4336Z" fill="black"/>
<path d="M33.204 47.4336H29.6465V50.9911H33.204V47.4336Z" fill="white"/>
<path d="M36.7606 47.4336H33.2031V50.9911H36.7606V47.4336Z" fill="white"/>
<path d="M40.3183 47.4336H36.7607V50.9911H40.3183V47.4336Z" fill="white"/>
<path d="M43.8759 47.4336H40.3184V50.9911H43.8759V47.4336Z" fill="white"/>
<path d="M47.4335 47.4336H43.876V50.9911H47.4335V47.4336Z" fill="black"/>
<path d="M50.9911 47.4336H47.4336V50.9911H50.9911V47.4336Z" fill="black"/>
<path d="M54.5487 47.4336H50.9912V50.9911H54.5487V47.4336Z" fill="white"/>
<path d="M58.1064 47.4336H54.5488V50.9911H58.1064V47.4336Z" fill="black"/>
<path d="M61.664 47.4336H58.1064V50.9911H61.664V47.4336Z" fill="white"/>
<path d="M65.2216 47.4336H61.6641V50.9911H65.2216V47.4336Z" fill="black"/>
<path d="M68.7792 47.4336H65.2217V50.9911H68.7792V47.4336Z" fill="black"/>
<path d="M72.3358 47.4336H68.7783V50.9911H72.3358V47.4336Z" fill="black"/>
<path d="M75.8935 47.4336H72.3359V50.9911H75.8935V47.4336Z" fill="black"/>
<path d="M79.4511 47.4336H75.8936V50.9911H79.4511V47.4336Z" fill="white"/>
<path d="M83.0087 47.4336H79.4512V50.9911H83.0087V47.4336Z" fill="black"/>
<path d="M86.5663 47.4336H83.0088V50.9911H86.5663V47.4336Z" fill="black"/>
<path d="M90.1239 47.4336H86.5664V50.9911H90.1239V47.4336Z" fill="white"/>
<path d="M93.6815 47.4336H90.124V50.9911H93.6815V47.4336Z" fill="black"/>
<path d="M97.2392 47.4336H93.6816V50.9911H97.2392V47.4336Z" fill="white"/>
<path d="M100.797 47.4336H97.2393V50.9911H100.797V47.4336Z" fill="white"/>
<path d="M104.354 47.4336H100.797V50.9911H104.354V47.4336Z" fill="black"/>
<path d="M107.911 47.4336H104.354V50.9911H107.911V47.4336Z" fill="black"/>
<path d="M111.469 47.4336H107.911V50.9911H111.469V47.4336Z" fill="white"/>
<path d="M115.026 47.4336H111.469V50.9911H115.026V47.4336Z" fill="black"/>
<path d="M118.584 47.4336H115.026V50.9911H118.584V47.4336Z" fill="white"/>
<path d="M122.142 47.4336H118.584V50.9911H122.142V47.4336Z" fill="white"/>
<path d="M125.699 47.4336H122.142V50.9911H125.699V47.4336Z" fill="white"/>
<path d="M11.8583 50.9912H8.30078V54.5487H11.8583V50.9912Z" fill="white"/>
<path d="M15.4159 50.9912H11.8584V54.5487H15.4159V50.9912Z" fill="black"/>
<path d="M18.9735 50.9912H15.416V54.5487H18.9735V50.9912Z" fill="black"/>
<path d="M22.5312 50.9912H18.9736V54.5487H22.5312V50.9912Z" fill="black"/>
<path d="M26.0888 50.9912H22.5312V54.5487H26.0888V50.9912Z" fill="black"/>
<path d="M29.6464 50.9912H26.0889V54.5487H29.6464V50.9912Z" fill="black"/>
<path d="M33.204 50.9912H29.6465V54.5487H33.204V50.9912Z" fill="black"/>
<path d="M36.7606 50.9912H33.2031V54.5487H36.7606V50.9912Z" fill="white"/>
<path d="M40.3183 50.9912H36.7607V54.5487H40.3183V50.9912Z" fill="black"/>
<path d="M43.8759 50.9912H40.3184V54.5487H43.8759V50.9912Z" fill="white"/>
<path d="M47.4335 50.9912H43.876V54.5487H47.4335V50.9912Z" fill="black"/>
<path d="M50.9911 50.9912H47.4336V54.5487H50.9911V50.9912Z" fill="white"/>
<path d="M54.5487 50.9912H50.9912V54.5487H54.5487V50.9912Z" fill="black"/>
<path d="M58.1064 50.9912H54.5488V54.5487H58.1064V50.9912Z" fill="black"/>
<path d="M61.664 50.9912H58.1064V54.5487H61.664V50.9912Z" fill="white"/>
<path d="M65.2216 50.9912H61.6641V54.5487H65.2216V50.9912Z" fill="white"/>
<path d="M68.7792 50.9912H65.2217V54.5487H68.7792V50.9912Z" fill="white"/>
<path d="M72.3358 50.9912H68.7783V54.5487H72.3358V50.9912Z" fill="black"/>
<path d="M75.8935 50.9912H72.3359V54.5487H75.8935V50.9912Z" fill="white"/>
<path d="M79.4511 50.9912H75.8936V54.5487H79.4511V50.9912Z" fill="black"/>
<path d="M83.0087 50.9912H79.4512V54.5487H83.0087V50.9912Z" fill="white"/>
<path d="M86.5663 50.9912H83.0088V54.5487H86.5663V50.9912Z" fill="black"/>
<path d="M90.1239 50.9912H86.5664V54.5487H90.1239V50.9912Z" fill="white"/>
<path d="M93.6815 50.9912H90.124V54.5487H93.6815V50.9912Z" fill="black"/>
<path d="M97.2392 50.9912H93.6816V54.5487H97.2392V50.9912Z" fill="black"/>
<path d="M100.797 50.9912H97.2393V54.5487H100.797V50.9912Z" fill="white"/>
<path d="M104.354 50.9912H100.797V54.5487H104.354V50.9912Z" fill="black"/>
<path d="M107.911 50.9912H104.354V54.5487H107.911V50.9912Z" fill="white"/>
<path d="M111.469 50.9912H107.911V54.5487H111.469V50.9912Z" fill="black"/>
<path d="M115.026 50.9912H111.469V54.5487H115.026V50.9912Z" fill="black"/>
<path d="M118.584 50.9912H115.026V54.5487H118.584V50.9912Z" fill="white"/>
<path d="M122.142 50.9912H118.584V54.5487H122.142V50.9912Z" fill="black"/>
<path d="M125.699 50.9912H122.142V54.5487H125.699V50.9912Z" fill="black"/>
<path d="M11.8583 54.5486H8.30078V58.1061H11.8583V54.5486Z" fill="black"/>
<path d="M15.4159 54.5486H11.8584V58.1061H15.4159V54.5486Z" fill="black"/>
<path d="M18.9735 54.5486H15.416V58.1061H18.9735V54.5486Z" fill="black"/>
<path d="M22.5312 54.5486H18.9736V58.1061H22.5312V54.5486Z" fill="black"/>
<path d="M26.0888 54.5488H22.5312V58.1064H26.0888V54.5488Z" fill="white"/>
<path d="M29.6464 54.5488H26.0889V58.1064H29.6464V54.5488Z" fill="white"/>
<path d="M33.204 54.5488H29.6465V58.1064H33.204V54.5488Z" fill="white"/>
<path d="M36.7606 54.5488H33.2031V58.1064H36.7606V54.5488Z" fill="white"/>
<path d="M40.3183 54.5488H36.7607V58.1064H40.3183V54.5488Z" fill="white"/>
<path d="M43.8759 54.5486H40.3184V58.1061H43.8759V54.5486Z" fill="black"/>
<path d="M47.4335 54.5486H43.876V58.1061H47.4335V54.5486Z" fill="white"/>
<path d="M50.9911 54.5486H47.4336V58.1061H50.9911V54.5486Z" fill="white"/>
<path d="M54.5487 54.5486H50.9912V58.1061H54.5487V54.5486Z" fill="white"/>
<path d="M58.1064 54.5486H54.5488V58.1061H58.1064V54.5486Z" fill="black"/>
<path d="M61.664 54.5488H58.1064V58.1064H61.664V54.5488Z" fill="black"/>
<path d="M65.2216 54.5488H61.6641V58.1064H65.2216V54.5488Z" fill="white"/>
<path d="M68.7792 54.5488H65.2217V58.1064H68.7792V54.5488Z" fill="black"/>
<path d="M72.3358 54.5488H68.7783V58.1064H72.3358V54.5488Z" fill="white"/>
<path d="M75.8935 54.5488H72.3359V58.1064H75.8935V54.5488Z" fill="black"/>
<path d="M79.4511 54.5488H75.8936V58.1064H79.4511V54.5488Z" fill="white"/>
<path d="M83.0087 54.5486H79.4512V58.1061H83.0087V54.5486Z" fill="black"/>
<path d="M86.5663 54.5486H83.0088V58.1061H86.5663V54.5486Z" fill="black"/>
<path d="M90.1239 54.5486H86.5664V58.1061H90.1239V54.5486Z" fill="white"/>
<path d="M93.6815 54.5486H90.124V58.1061H93.6815V54.5486Z" fill="black"/>
<path d="M97.2392 54.5486H93.6816V58.1061H97.2392V54.5486Z" fill="white"/>
<path d="M100.797 54.5488H97.2393V58.1064H100.797V54.5488Z" fill="black"/>
<path d="M104.354 54.5488H100.797V58.1064H104.354V54.5488Z" fill="white"/>
<path d="M107.911 54.5488H104.354V58.1064H107.911V54.5488Z" fill="black"/>
<path d="M111.469 54.5488H107.911V58.1064H111.469V54.5488Z" fill="white"/>
<path d="M115.026 54.5488H111.469V58.1064H115.026V54.5488Z" fill="white"/>
<path d="M118.584 54.5486H115.026V58.1061H118.584V54.5486Z" fill="white"/>
<path d="M122.142 54.5486H118.584V58.1061H122.142V54.5486Z" fill="white"/>
<path d="M125.699 54.5486H122.142V58.1061H125.699V54.5486Z" fill="white"/>
<path d="M11.8583 58.1062H8.30078V61.6637H11.8583V58.1062Z" fill="white"/>
<path d="M15.4159 58.1062H11.8584V61.6637H15.4159V58.1062Z" fill="black"/>
<path d="M18.9735 58.1062H15.416V61.6637H18.9735V58.1062Z" fill="white"/>
<path d="M22.5312 58.1062H18.9736V61.6637H22.5312V58.1062Z" fill="black"/>
<path d="M26.0888 58.106H22.5312V61.6635H26.0888V58.106Z" fill="black"/>
<path d="M29.6464 58.106H26.0889V61.6635H29.6464V58.106Z" fill="black"/>
<path d="M33.204 58.106H29.6465V61.6635H33.204V58.106Z" fill="black"/>
<path d="M36.7606 58.106H33.2031V61.6635H36.7606V58.106Z" fill="white"/>
<path d="M40.3183 58.106H36.7607V61.6635H40.3183V58.106Z" fill="black"/>
<path d="M43.8759 58.1062H40.3184V61.6637H43.8759V58.1062Z" fill="black"/>
<path d="M47.4335 58.1062H43.876V61.6637H47.4335V58.1062Z" fill="black"/>
<path d="M50.9911 58.1062H47.4336V61.6637H50.9911V58.1062Z" fill="white"/>
<path d="M54.5487 58.1062H50.9912V61.6637H54.5487V58.1062Z" fill="white"/>
<path d="M58.1064 58.1062H54.5488V61.6637H58.1064V58.1062Z" fill="white"/>
<path d="M61.664 58.106H58.1064V61.6635H61.664V58.106Z" fill="white"/>
<path d="M65.2216 58.106H61.6641V61.6635H65.2216V58.106Z" fill="white"/>
<path d="M68.7792 58.106H65.2217V61.6635H68.7792V58.106Z" fill="black"/>
<path d="M72.3358 58.106H68.7783V61.6635H72.3358V58.106Z" fill="white"/>
<path d="M75.8935 58.106H72.3359V61.6635H75.8935V58.106Z" fill="black"/>
<path d="M79.4511 58.106H75.8936V61.6635H79.4511V58.106Z" fill="white"/>
<path d="M83.0087 58.1062H79.4512V61.6637H83.0087V58.1062Z" fill="black"/>
<path d="M86.5663 58.1062H83.0088V61.6637H86.5663V58.1062Z" fill="white"/>
<path d="M90.1239 58.1062H86.5664V61.6637H90.1239V58.1062Z" fill="white"/>
<path d="M93.6815 58.1062H90.124V61.6637H93.6815V58.1062Z" fill="black"/>
<path d="M97.2392 58.1062H93.6816V61.6637H97.2392V58.1062Z" fill="white"/>
<path d="M100.797 58.106H97.2393V61.6635H100.797V58.106Z" fill="white"/>
<path d="M104.354 58.106H100.797V61.6635H104.354V58.106Z" fill="white"/>
<path d="M107.911 58.106H104.354V61.6635H107.911V58.106Z" fill="black"/>
<path d="M111.469 58.106H107.911V61.6635H111.469V58.106Z" fill="black"/>
<path d="M115.026 58.106H111.469V61.6635H115.026V58.106Z" fill="black"/>
<path d="M118.584 58.1062H115.026V61.6637H118.584V58.1062Z" fill="black"/>
<path d="M122.142 58.1062H118.584V61.6637H122.142V58.1062Z" fill="black"/>
<path d="M125.699 58.1062H122.142V61.6637H125.699V58.1062Z" fill="white"/>
<path d="M11.8583 61.6638H8.30078V65.2213H11.8583V61.6638Z" fill="black"/>
<path d="M15.4159 61.6638H11.8584V65.2213H15.4159V61.6638Z" fill="white"/>
<path d="M18.9735 61.6638H15.416V65.2213H18.9735V61.6638Z" fill="black"/>
<path d="M22.5312 61.6638H18.9736V65.2213H22.5312V61.6638Z" fill="white"/>
<path d="M26.0888 61.6636H22.5312V65.2211H26.0888V61.6636Z" fill="white"/>
<path d="M29.6464 61.6636H26.0889V65.2211H29.6464V61.6636Z" fill="white"/>
<path d="M33.204 61.6636H29.6465V65.2211H33.204V61.6636Z" fill="white"/>
<path d="M36.7606 61.6636H33.2031V65.2211H36.7606V61.6636Z" fill="black"/>
<path d="M40.3183 61.6636H36.7607V65.2211H40.3183V61.6636Z" fill="white"/>
<path d="M43.8759 61.6638H40.3184V65.2213H43.8759V61.6638Z" fill="black"/>
<path d="M47.4335 61.6638H43.876V65.2213H47.4335V61.6638Z" fill="white"/>
<path d="M50.9911 61.6638H47.4336V65.2213H50.9911V61.6638Z" fill="white"/>
<path d="M54.5487 61.6638H50.9912V65.2213H54.5487V61.6638Z" fill="black"/>
<path d="M58.1064 61.6638H54.5488V65.2213H58.1064V61.6638Z" fill="white"/>
<path d="M61.664 61.6636H58.1064V65.2211H61.664V61.6636Z" fill="black"/>
<path d="M65.2216 61.6636H61.6641V65.2211H65.2216V61.6636Z" fill="white"/>
<path d="M68.7792 61.6636H65.2217V65.2211H68.7792V61.6636Z" fill="white"/>
<path d="M72.3358 61.6636H68.7783V65.2211H72.3358V61.6636Z" fill="black"/>
<path d="M75.8935 61.6636H72.3359V65.2211H75.8935V61.6636Z" fill="white"/>
<path d="M79.4511 61.6636H75.8936V65.2211H79.4511V61.6636Z" fill="white"/>
<path d="M83.0087 61.6638H79.4512V65.2213H83.0087V61.6638Z" fill="black"/>
<path d="M86.5663 61.6638H83.0088V65.2213H86.5663V61.6638Z" fill="black"/>
<path d="M90.1239 61.6638H86.5664V65.2213H90.1239V61.6638Z" fill="white"/>
<path d="M93.6815 61.6638H90.124V65.2213H93.6815V61.6638Z" fill="black"/>
<path d="M97.2392 61.6638H93.6816V65.2213H97.2392V61.6638Z" fill="black"/>
<path d="M100.797 61.6636H97.2393V65.2211H100.797V61.6636Z" fill="black"/>
<path d="M104.354 61.6636H100.797V65.2211H104.354V61.6636Z" fill="white"/>
<path d="M107.911 61.6636H104.354V65.2211H107.911V61.6636Z" fill="white"/>
<path d="M111.469 61.6636H107.911V65.2211H111.469V61.6636Z" fill="black"/>
<path d="M115.026 61.6636H111.469V65.2211H115.026V61.6636Z" fill="black"/>
<path d="M118.584 61.6638H115.026V65.2213H118.584V61.6638Z" fill="white"/>
<path d="M122.142 61.6638H118.584V65.2213H122.142V61.6638Z" fill="white"/>
<path d="M125.699 61.6638H122.142V65.2213H125.699V61.6638Z" fill="white"/>
<path d="M11.8583 65.2212H8.30078V68.7787H11.8583V65.2212Z" fill="black"/>
<path d="M15.4159 65.2212H11.8584V68.7787H15.4159V65.2212Z" fill="white"/>
<path d="M18.9735 65.2212H15.416V68.7787H18.9735V65.2212Z" fill="black"/>
<path d="M22.5312 65.2212H18.9736V68.7787H22.5312V65.2212Z" fill="black"/>
<path d="M26.0888 65.2212H22.5312V68.7787H26.0888V65.2212Z" fill="black"/>
<path d="M29.6464 65.2212H26.0889V68.7787H29.6464V65.2212Z" fill="white"/>
<path d="M33.204 65.2212H29.6465V68.7787H33.204V65.2212Z" fill="black"/>
<path d="M36.7606 65.2212H33.2031V68.7787H36.7606V65.2212Z" fill="black"/>
<path d="M40.3183 65.2212H36.7607V68.7787H40.3183V65.2212Z" fill="black"/>
<path d="M43.8759 65.2212H40.3184V68.7787H43.8759V65.2212Z" fill="white"/>
<path d="M47.4335 65.2212H43.876V68.7787H47.4335V65.2212Z" fill="white"/>
<path d="M50.9911 65.2212H47.4336V68.7787H50.9911V65.2212Z" fill="black"/>
<path d="M54.5487 65.2212H50.9912V68.7787H54.5487V65.2212Z" fill="white"/>
<path d="M58.1064 65.2212H54.5488V68.7787H58.1064V65.2212Z" fill="black"/>
<path d="M61.664 65.2212H58.1064V68.7787H61.664V65.2212Z" fill="black"/>
<path d="M65.2216 65.2212H61.6641V68.7787H65.2216V65.2212Z" fill="black"/>
<path d="M68.7792 65.2212H65.2217V68.7787H68.7792V65.2212Z" fill="white"/>
<path d="M72.3358 65.2212H68.7783V68.7787H72.3358V65.2212Z" fill="white"/>
<path d="M75.8935 65.2212H72.3359V68.7787H75.8935V65.2212Z" fill="white"/>
<path d="M79.4511 65.2212H75.8936V68.7787H79.4511V65.2212Z" fill="black"/>
<path d="M83.0087 65.2212H79.4512V68.7787H83.0087V65.2212Z" fill="white"/>
<path d="M86.5663 65.2212H83.0088V68.7787H86.5663V65.2212Z" fill="black"/>
<path d="M90.1239 65.2212H86.5664V68.7787H90.1239V65.2212Z" fill="black"/>
<path d="M93.6815 65.2212H90.124V68.7787H93.6815V65.2212Z" fill="black"/>
<path d="M97.2392 65.2212H93.6816V68.7787H97.2392V65.2212Z" fill="black"/>
<path d="M100.797 65.2212H97.2393V68.7787H100.797V65.2212Z" fill="white"/>
<path d="M104.354 65.2212H100.797V68.7787H104.354V65.2212Z" fill="black"/>
<path d="M107.911 65.2212H104.354V68.7787H107.911V65.2212Z" fill="black"/>
<path d="M111.469 65.2212H107.911V68.7787H111.469V65.2212Z" fill="black"/>
<path d="M115.026 65.2212H111.469V68.7787H115.026V65.2212Z" fill="white"/>
<path d="M118.584 65.2212H115.026V68.7787H118.584V65.2212Z" fill="white"/>
<path d="M122.142 65.2212H118.584V68.7787H122.142V65.2212Z" fill="white"/>
<path d="M125.699 65.2212H122.142V68.7787H125.699V65.2212Z" fill="black"/>
<path d="M11.8583 68.7788H8.30078V72.3363H11.8583V68.7788Z" fill="white"/>
<path d="M15.4159 68.7788H11.8584V72.3363H15.4159V68.7788Z" fill="black"/>
<path d="M18.9735 68.7788H15.416V72.3363H18.9735V68.7788Z" fill="white"/>
<path d="M22.5312 68.7788H18.9736V72.3363H22.5312V68.7788Z" fill="white"/>
<path d="M26.0888 68.7788H22.5312V72.3363H26.0888V68.7788Z" fill="black"/>
<path d="M29.6464 68.7788H26.0889V72.3363H29.6464V68.7788Z" fill="black"/>
<path d="M33.204 68.7788H29.6465V72.3363H33.204V68.7788Z" fill="white"/>
<path d="M36.7606 68.7788H33.2031V72.3363H36.7606V68.7788Z" fill="black"/>
<path d="M40.3183 68.7788H36.7607V72.3363H40.3183V68.7788Z" fill="white"/>
<path d="M43.8759 68.7788H40.3184V72.3363H43.8759V68.7788Z" fill="white"/>
<path d="M47.4335 68.7788H43.876V72.3363H47.4335V68.7788Z" fill="black"/>
<path d="M50.9911 68.7788H47.4336V72.3363H50.9911V68.7788Z" fill="white"/>
<path d="M54.5487 68.7788H50.9912V72.3363H54.5487V68.7788Z" fill="black"/>
<path d="M58.1064 68.7788H54.5488V72.3363H58.1064V68.7788Z" fill="white"/>
<path d="M61.664 68.7788H58.1064V72.3363H61.664V68.7788Z" fill="white"/>
<path d="M65.2216 68.7788H61.6641V72.3363H65.2216V68.7788Z" fill="white"/>
<path d="M68.7792 68.7788H65.2217V72.3363H68.7792V68.7788Z" fill="white"/>
<path d="M72.3358 68.7788H68.7783V72.3363H72.3358V68.7788Z" fill="black"/>
<path d="M75.8935 68.7788H72.3359V72.3363H75.8935V68.7788Z" fill="white"/>
<path d="M79.4511 68.7788H75.8936V72.3363H79.4511V68.7788Z" fill="white"/>
<path d="M83.0087 68.7788H79.4512V72.3363H83.0087V68.7788Z" fill="black"/>
<path d="M86.5663 68.7788H83.0088V72.3363H86.5663V68.7788Z" fill="white"/>
<path d="M90.1239 68.7788H86.5664V72.3363H90.1239V68.7788Z" fill="black"/>
<path d="M93.6815 68.7788H90.124V72.3363H93.6815V68.7788Z" fill="black"/>
<path d="M97.2392 68.7788H93.6816V72.3363H97.2392V68.7788Z" fill="white"/>
<path d="M100.797 68.7788H97.2393V72.3363H100.797V68.7788Z" fill="white"/>
<path d="M104.354 68.7788H100.797V72.3363H104.354V68.7788Z" fill="white"/>
<path d="M107.911 68.7788H104.354V72.3363H107.911V68.7788Z" fill="black"/>
<path d="M111.469 68.7788H107.911V72.3363H111.469V68.7788Z" fill="white"/>
<path d="M115.026 68.7788H111.469V72.3363H115.026V68.7788Z" fill="black"/>
<path d="M118.584 68.7788H115.026V72.3363H118.584V68.7788Z" fill="white"/>
<path d="M122.142 68.7788H118.584V72.3363H122.142V68.7788Z" fill="white"/>
<path d="M125.699 68.7788H122.142V72.3363H125.699V68.7788Z" fill="white"/>
<path d="M11.8583 72.3362H8.30078V75.8937H11.8583V72.3362Z" fill="black"/>
<path d="M15.4159 72.3362H11.8584V75.8937H15.4159V72.3362Z" fill="black"/>
<path d="M18.9735 72.3362H15.416V75.8937H18.9735V72.3362Z" fill="white"/>
<path d="M22.5312 72.3362H18.9736V75.8937H22.5312V72.3362Z" fill="black"/>
<path d="M26.0888 72.3364H22.5312V75.8939H26.0888V72.3364Z" fill="black"/>
<path d="M29.6464 72.3364H26.0889V75.8939H29.6464V72.3364Z" fill="white"/>
<path d="M33.204 72.3364H29.6465V75.8939H33.204V72.3364Z" fill="black"/>
<path d="M36.7606 72.3364H33.2031V75.8939H36.7606V72.3364Z" fill="black"/>
<path d="M40.3183 72.3364H36.7607V75.8939H40.3183V72.3364Z" fill="black"/>
<path d="M43.8759 72.3362H40.3184V75.8937H43.8759V72.3362Z" fill="black"/>
<path d="M47.4335 72.3362H43.876V75.8937H47.4335V72.3362Z" fill="black"/>
<path d="M50.9911 72.3362H47.4336V75.8937H50.9911V72.3362Z" fill="black"/>
<path d="M54.5487 72.3362H50.9912V75.8937H54.5487V72.3362Z" fill="black"/>
<path d="M58.1064 72.3362H54.5488V75.8937H58.1064V72.3362Z" fill="black"/>
<path d="M61.664 72.3364H58.1064V75.8939H61.664V72.3364Z" fill="black"/>
<path d="M65.2216 72.3364H61.6641V75.8939H65.2216V72.3364Z" fill="black"/>
<path d="M68.7792 72.3364H65.2217V75.8939H68.7792V72.3364Z" fill="white"/>
<path d="M72.3358 72.3364H68.7783V75.8939H72.3358V72.3364Z" fill="white"/>
<path d="M75.8935 72.3364H72.3359V75.8939H75.8935V72.3364Z" fill="black"/>
<path d="M79.4511 72.3364H75.8936V75.8939H79.4511V72.3364Z" fill="white"/>
<path d="M83.0087 72.3362H79.4512V75.8937H83.0087V72.3362Z" fill="black"/>
<path d="M86.5663 72.3362H83.0088V75.8937H86.5663V72.3362Z" fill="black"/>
<path d="M90.1239 72.3362H86.5664V75.8937H90.1239V72.3362Z" fill="white"/>
<path d="M93.6815 72.3362H90.124V75.8937H93.6815V72.3362Z" fill="black"/>
<path d="M97.2392 72.3362H93.6816V75.8937H97.2392V72.3362Z" fill="black"/>
<path d="M100.797 72.3364H97.2393V75.8939H100.797V72.3364Z" fill="white"/>
<path d="M104.354 72.3364H100.797V75.8939H104.354V72.3364Z" fill="white"/>
<path d="M107.911 72.3364H104.354V75.8939H107.911V72.3364Z" fill="white"/>
<path d="M111.469 72.3364H107.911V75.8939H111.469V72.3364Z" fill="white"/>
<path d="M115.026 72.3364H111.469V75.8939H115.026V72.3364Z" fill="white"/>
<path d="M118.584 72.3362H115.026V75.8937H118.584V72.3362Z" fill="black"/>
<path d="M122.142 72.3362H118.584V75.8937H122.142V72.3362Z" fill="black"/>
<path d="M125.699 72.3362H122.142V75.8937H125.699V72.3362Z" fill="white"/>
<path d="M11.8583 75.8938H8.30078V79.4513H11.8583V75.8938Z" fill="white"/>
<path d="M15.4159 75.8938H11.8584V79.4513H15.4159V75.8938Z" fill="white"/>
<path d="M18.9735 75.8938H15.416V79.4513H18.9735V75.8938Z" fill="black"/>
<path d="M22.5312 75.8938H18.9736V79.4513H22.5312V75.8938Z" fill="black"/>
<path d="M26.0888 75.894H22.5312V79.4516H26.0888V75.894Z" fill="black"/>
<path d="M29.6464 75.894H26.0889V79.4516H29.6464V75.894Z" fill="black"/>
<path d="M33.204 75.894H29.6465V79.4516H33.204V75.894Z" fill="white"/>
<path d="M36.7606 75.894H33.2031V79.4516H36.7606V75.894Z" fill="black"/>
<path d="M40.3183 75.894H36.7607V79.4516H40.3183V75.894Z" fill="white"/>
<path d="M43.8759 75.8938H40.3184V79.4513H43.8759V75.8938Z" fill="white"/>
<path d="M47.4335 75.8938H43.876V79.4513H47.4335V75.8938Z" fill="white"/>
<path d="M50.9911 75.8938H47.4336V79.4513H50.9911V75.8938Z" fill="black"/>
<path d="M54.5487 75.8938H50.9912V79.4513H54.5487V75.8938Z" fill="white"/>
<path d="M58.1064 75.8938H54.5488V79.4513H58.1064V75.8938Z" fill="black"/>
<path d="M61.664 75.894H58.1064V79.4516H61.664V75.894Z" fill="white"/>
<path d="M65.2216 75.894H61.6641V79.4516H65.2216V75.894Z" fill="black"/>
<path d="M68.7792 75.894H65.2217V79.4516H68.7792V75.894Z" fill="white"/>
<path d="M72.3358 75.894H68.7783V79.4516H72.3358V75.894Z" fill="black"/>
<path d="M75.8935 75.894H72.3359V79.4516H75.8935V75.894Z" fill="black"/>
<path d="M79.4511 75.894H75.8936V79.4516H79.4511V75.894Z" fill="white"/>
<path d="M83.0087 75.8938H79.4512V79.4513H83.0087V75.8938Z" fill="white"/>
<path d="M86.5663 75.8938H83.0088V79.4513H86.5663V75.8938Z" fill="black"/>
<path d="M90.1239 75.8938H86.5664V79.4513H90.1239V75.8938Z" fill="black"/>
<path d="M93.6815 75.8938H90.124V79.4513H93.6815V75.8938Z" fill="black"/>
<path d="M97.2392 75.8938H93.6816V79.4513H97.2392V75.8938Z" fill="black"/>
<path d="M100.797 75.894H97.2393V79.4516H100.797V75.894Z" fill="white"/>
<path d="M104.354 75.894H100.797V79.4516H104.354V75.894Z" fill="white"/>
<path d="M107.911 75.894H104.354V79.4516H107.911V75.894Z" fill="black"/>
<path d="M111.469 75.894H107.911V79.4516H111.469V75.894Z" fill="black"/>
<path d="M115.026 75.894H111.469V79.4516H115.026V75.894Z" fill="black"/>
<path d="M118.584 75.8938H115.026V79.4513H118.584V75.8938Z" fill="white"/>
<path d="M122.142 75.8938H118.584V79.4513H122.142V75.8938Z" fill="white"/>
<path d="M125.699 75.8938H122.142V79.4513H125.699V75.8938Z" fill="white"/>
<path d="M11.8583 79.4514H8.30078V83.0089H11.8583V79.4514Z" fill="white"/>
<path d="M15.4159 79.4514H11.8584V83.0089H15.4159V79.4514Z" fill="white"/>
<path d="M18.9735 79.4514H15.416V83.0089H18.9735V79.4514Z" fill="black"/>
<path d="M22.5312 79.4514H18.9736V83.0089H22.5312V79.4514Z" fill="white"/>
<path d="M26.0888 79.4512H22.5312V83.0087H26.0888V79.4512Z" fill="black"/>
<path d="M29.6464 79.4512H26.0889V83.0087H29.6464V79.4512Z" fill="black"/>
<path d="M33.204 79.4512H29.6465V83.0087H33.204V79.4512Z" fill="black"/>
<path d="M36.7606 79.4512H33.2031V83.0087H36.7606V79.4512Z" fill="white"/>
<path d="M40.3183 79.4512H36.7607V83.0087H40.3183V79.4512Z" fill="black"/>
<path d="M43.8759 79.4514H40.3184V83.0089H43.8759V79.4514Z" fill="black"/>
<path d="M47.4335 79.4514H43.876V83.0089H47.4335V79.4514Z" fill="black"/>
<path d="M50.9911 79.4514H47.4336V83.0089H50.9911V79.4514Z" fill="white"/>
<path d="M54.5487 79.4514H50.9912V83.0089H54.5487V79.4514Z" fill="black"/>
<path d="M58.1064 79.4514H54.5488V83.0089H58.1064V79.4514Z" fill="black"/>
<path d="M61.664 79.4512H58.1064V83.0087H61.664V79.4512Z" fill="white"/>
<path d="M65.2216 79.4512H61.6641V83.0087H65.2216V79.4512Z" fill="white"/>
<path d="M68.7792 79.4512H65.2217V83.0087H68.7792V79.4512Z" fill="white"/>
<path d="M72.3358 79.4512H68.7783V83.0087H72.3358V79.4512Z" fill="black"/>
<path d="M75.8935 79.4512H72.3359V83.0087H75.8935V79.4512Z" fill="white"/>
<path d="M79.4511 79.4512H75.8936V83.0087H79.4511V79.4512Z" fill="black"/>
<path d="M83.0087 79.4514H79.4512V83.0089H83.0087V79.4514Z" fill="white"/>
<path d="M86.5663 79.4514H83.0088V83.0089H86.5663V79.4514Z" fill="black"/>
<path d="M90.1239 79.4514H86.5664V83.0089H90.1239V79.4514Z" fill="black"/>
<path d="M93.6815 79.4514H90.124V83.0089H93.6815V79.4514Z" fill="white"/>
<path d="M97.2392 79.4514H93.6816V83.0089H97.2392V79.4514Z" fill="black"/>
<path d="M100.797 79.4512H97.2393V83.0087H100.797V79.4512Z" fill="white"/>
<path d="M104.354 79.4512H100.797V83.0087H104.354V79.4512Z" fill="black"/>
<path d="M107.911 79.4512H104.354V83.0087H107.911V79.4512Z" fill="white"/>
<path d="M111.469 79.4512H107.911V83.0087H111.469V79.4512Z" fill="black"/>
<path d="M115.026 79.4512H111.469V83.0087H115.026V79.4512Z" fill="white"/>
<path d="M118.584 79.4514H115.026V83.0089H118.584V79.4514Z" fill="white"/>
<path d="M122.142 79.4514H118.584V83.0089H122.142V79.4514Z" fill="white"/>
<path d="M125.699 79.4514H122.142V83.0089H125.699V79.4514Z" fill="black"/>
<path d="M11.8583 83.0088H8.30078V86.5663H11.8583V83.0088Z" fill="black"/>
<path d="M15.4159 83.0088H11.8584V86.5663H15.4159V83.0088Z" fill="white"/>
<path d="M18.9735 83.0088H15.416V86.5663H18.9735V83.0088Z" fill="white"/>
<path d="M22.5312 83.0088H18.9736V86.5663H22.5312V83.0088Z" fill="black"/>
<path d="M26.0888 83.0088H22.5312V86.5663H26.0888V83.0088Z" fill="white"/>
<path d="M29.6464 83.0088H26.0889V86.5663H29.6464V83.0088Z" fill="black"/>
<path d="M33.204 83.0088H29.6465V86.5663H33.204V83.0088Z" fill="white"/>
<path d="M36.7606 83.0088H33.2031V86.5663H36.7606V83.0088Z" fill="black"/>
<path d="M40.3183 83.0088H36.7607V86.5663H40.3183V83.0088Z" fill="white"/>
<path d="M43.8759 83.0088H40.3184V86.5663H43.8759V83.0088Z" fill="black"/>
<path d="M47.4335 83.0088H43.876V86.5663H47.4335V83.0088Z" fill="black"/>
<path d="M50.9911 83.0088H47.4336V86.5663H50.9911V83.0088Z" fill="white"/>
<path d="M54.5487 83.0088H50.9912V86.5663H54.5487V83.0088Z" fill="white"/>
<path d="M58.1064 83.0088H54.5488V86.5663H58.1064V83.0088Z" fill="black"/>
<path d="M61.664 83.0088H58.1064V86.5663H61.664V83.0088Z" fill="black"/>
<path d="M65.2216 83.0088H61.6641V86.5663H65.2216V83.0088Z" fill="black"/>
<path d="M68.7792 83.0088H65.2217V86.5663H68.7792V83.0088Z" fill="black"/>
<path d="M72.3358 83.0088H68.7783V86.5663H72.3358V83.0088Z" fill="white"/>
<path d="M75.8935 83.0088H72.3359V86.5663H75.8935V83.0088Z" fill="white"/>
<path d="M79.4511 83.0088H75.8936V86.5663H79.4511V83.0088Z" fill="white"/>
<path d="M83.0087 83.0088H79.4512V86.5663H83.0087V83.0088Z" fill="black"/>
<path d="M86.5663 83.0088H83.0088V86.5663H86.5663V83.0088Z" fill="white"/>
<path d="M90.1239 83.0088H86.5664V86.5663H90.1239V83.0088Z" fill="black"/>
<path d="M93.6815 83.0088H90.124V86.5663H93.6815V83.0088Z" fill="black"/>
<path d="M97.2392 83.0088H93.6816V86.5663H97.2392V83.0088Z" fill="white"/>
<path d="M100.797 83.0088H97.2393V86.5663H100.797V83.0088Z" fill="white"/>
<path d="M104.354 83.0088H100.797V86.5663H104.354V83.0088Z" fill="white"/>
<path d="M107.911 83.0088H104.354V86.5663H107.911V83.0088Z" fill="black"/>
<path d="M111.469 83.0088H107.911V86.5663H111.469V83.0088Z" fill="white"/>
<path d="M115.026 83.0088H111.469V86.5663H115.026V83.0088Z" fill="black"/>
<path d="M118.584 83.0088H115.026V86.5663H118.584V83.0088Z" fill="white"/>
<path d="M122.142 83.0088H118.584V86.5663H122.142V83.0088Z" fill="white"/>
<path d="M125.699 83.0088H122.142V86.5663H125.699V83.0088Z" fill="white"/>
<path d="M11.8583 86.5664H8.30078V90.1239H11.8583V86.5664Z" fill="white"/>
<path d="M15.4159 86.5664H11.8584V90.1239H15.4159V86.5664Z" fill="white"/>
<path d="M18.9735 86.5664H15.416V90.1239H18.9735V86.5664Z" fill="white"/>
<path d="M22.5312 86.5664H18.9736V90.1239H22.5312V86.5664Z" fill="black"/>
<path d="M26.0888 86.5664H22.5312V90.1239H26.0888V86.5664Z" fill="black"/>
<path d="M29.6464 86.5664H26.0889V90.1239H29.6464V86.5664Z" fill="white"/>
<path d="M33.204 86.5664H29.6465V90.1239H33.204V86.5664Z" fill="black"/>
<path d="M36.7606 86.5664H33.2031V90.1239H36.7606V86.5664Z" fill="black"/>
<path d="M40.3183 86.5664H36.7607V90.1239H40.3183V86.5664Z" fill="black"/>
<path d="M43.8759 86.5664H40.3184V90.1239H43.8759V86.5664Z" fill="black"/>
<path d="M47.4335 86.5664H43.876V90.1239H47.4335V86.5664Z" fill="white"/>
<path d="M50.9911 86.5664H47.4336V90.1239H50.9911V86.5664Z" fill="white"/>
<path d="M54.5487 86.5664H50.9912V90.1239H54.5487V86.5664Z" fill="white"/>
<path d="M58.1064 86.5664H54.5488V90.1239H58.1064V86.5664Z" fill="white"/>
<path d="M61.664 86.5664H58.1064V90.1239H61.664V86.5664Z" fill="white"/>
<path d="M65.2216 86.5664H61.6641V90.1239H65.2216V86.5664Z" fill="black"/>
<path d="M68.7792 86.5664H65.2217V90.1239H68.7792V86.5664Z" fill="white"/>
<path d="M72.3358 86.5664H68.7783V90.1239H72.3358V86.5664Z" fill="black"/>
<path d="M75.8935 86.5664H72.3359V90.1239H75.8935V86.5664Z" fill="white"/>
<path d="M79.4511 86.5664H75.8936V90.1239H79.4511V86.5664Z" fill="white"/>
<path d="M83.0087 86.5664H79.4512V90.1239H83.0087V86.5664Z" fill="white"/>
<path d="M86.5663 86.5664H83.0088V90.1239H86.5663V86.5664Z" fill="white"/>
<path d="M90.1239 86.5664H86.5664V90.1239H90.1239V86.5664Z" fill="white"/>
<path d="M93.6815 86.5664H90.124V90.1239H93.6815V86.5664Z" fill="black"/>
<path d="M97.2392 86.5664H93.6816V90.1239H97.2392V86.5664Z" fill="white"/>
<path d="M100.797 86.5664H97.2393V90.1239H100.797V86.5664Z" fill="white"/>
<path d="M104.354 86.5664H100.797V90.1239H104.354V86.5664Z" fill="white"/>
<path d="M107.911 86.5664H104.354V90.1239H107.911V86.5664Z" fill="white"/>
<path d="M111.469 86.5664H107.911V90.1239H111.469V86.5664Z" fill="black"/>
<path d="M115.026 86.5664H111.469V90.1239H115.026V86.5664Z" fill="white"/>
<path d="M118.584 86.5664H115.026V90.1239H118.584V86.5664Z" fill="black"/>
<path d="M122.142 86.5664H118.584V90.1239H122.142V86.5664Z" fill="black"/>
<path d="M125.699 86.5664H122.142V90.1239H125.699V86.5664Z" fill="white"/>
<path d="M11.8583 90.1238H8.30078V93.6813H11.8583V90.1238Z" fill="white"/>
<path d="M15.4159 90.1238H11.8584V93.6813H15.4159V90.1238Z" fill="white"/>
<path d="M18.9735 90.1238H15.416V93.6813H18.9735V90.1238Z" fill="black"/>
<path d="M22.5312 90.1238H18.9736V93.6813H22.5312V90.1238Z" fill="black"/>
<path d="M26.0888 90.124H22.5312V93.6815H26.0888V90.124Z" fill="white"/>
<path d="M29.6464 90.124H26.0889V93.6815H29.6464V90.124Z" fill="white"/>
<path d="M33.204 90.124H29.6465V93.6815H33.204V90.124Z" fill="white"/>
<path d="M36.7606 90.124H33.2031V93.6815H36.7606V90.124Z" fill="black"/>
<path d="M40.3183 90.124H36.7607V93.6815H40.3183V90.124Z" fill="black"/>
<path d="M43.8759 90.1238H40.3184V93.6813H43.8759V90.1238Z" fill="black"/>
<path d="M47.4335 90.1238H43.876V93.6813H47.4335V90.1238Z" fill="white"/>
<path d="M50.9911 90.1238H47.4336V93.6813H50.9911V90.1238Z" fill="white"/>
<path d="M54.5487 90.1238H50.9912V93.6813H54.5487V90.1238Z" fill="black"/>
<path d="M58.1064 90.1238H54.5488V93.6813H58.1064V90.1238Z" fill="white"/>
<path d="M61.664 90.124H58.1064V93.6815H61.664V90.124Z" fill="black"/>
<path d="M65.2216 90.124H61.6641V93.6815H65.2216V90.124Z" fill="black"/>
<path d="M68.7792 90.124H65.2217V93.6815H68.7792V90.124Z" fill="white"/>
<path d="M72.3358 90.124H68.7783V93.6815H72.3358V90.124Z" fill="black"/>
<path d="M75.8935 90.124H72.3359V93.6815H75.8935V90.124Z" fill="black"/>
<path d="M79.4511 90.124H75.8936V93.6815H79.4511V90.124Z" fill="black"/>
<path d="M83.0087 90.1238H79.4512V93.6813H83.0087V90.1238Z" fill="black"/>
<path d="M86.5663 90.1238H83.0088V93.6813H86.5663V90.1238Z" fill="black"/>
<path d="M90.1239 90.1238H86.5664V93.6813H90.1239V90.1238Z" fill="white"/>
<path d="M93.6815 90.1238H90.124V93.6813H93.6815V90.1238Z" fill="white"/>
<path d="M97.2392 90.1238H93.6816V93.6813H97.2392V90.1238Z" fill="black"/>
<path d="M100.797 90.124H97.2393V93.6815H100.797V90.124Z" fill="white"/>
<path d="M104.354 90.124H100.797V93.6815H104.354V90.124Z" fill="white"/>
<path d="M107.911 90.124H104.354V93.6815H107.911V90.124Z" fill="white"/>
<path d="M111.469 90.124H107.911V93.6815H111.469V90.124Z" fill="black"/>
<path d="M115.026 90.124H111.469V93.6815H115.026V90.124Z" fill="white"/>
<path d="M118.584 90.1238H115.026V93.6813H118.584V90.1238Z" fill="white"/>
<path d="M122.142 90.1238H118.584V93.6813H122.142V90.1238Z" fill="white"/>
<path d="M125.699 90.1238H122.142V93.6813H125.699V90.1238Z" fill="white"/>
<path d="M11.8583 93.6814H8.30078V97.2389H11.8583V93.6814Z" fill="black"/>
<path d="M15.4159 93.6814H11.8584V97.2389H15.4159V93.6814Z" fill="black"/>
<path d="M18.9735 93.6814H15.416V97.2389H18.9735V93.6814Z" fill="white"/>
<path d="M22.5312 93.6814H18.9736V97.2389H22.5312V93.6814Z" fill="white"/>
<path d="M26.0888 93.6816H22.5312V97.2392H26.0888V93.6816Z" fill="white"/>
<path d="M29.6464 93.6816H26.0889V97.2392H29.6464V93.6816Z" fill="black"/>
<path d="M33.204 93.6816H29.6465V97.2392H33.204V93.6816Z" fill="black"/>
<path d="M36.7606 93.6816H33.2031V97.2392H36.7606V93.6816Z" fill="black"/>
<path d="M40.3183 93.6816H36.7607V97.2392H40.3183V93.6816Z" fill="white"/>
<path d="M43.8759 93.6814H40.3184V97.2389H43.8759V93.6814Z" fill="black"/>
<path d="M47.4335 93.6814H43.876V97.2389H47.4335V93.6814Z" fill="black"/>
<path d="M50.9911 93.6814H47.4336V97.2389H50.9911V93.6814Z" fill="black"/>
<path d="M54.5487 93.6814H50.9912V97.2389H54.5487V93.6814Z" fill="white"/>
<path d="M58.1064 93.6814H54.5488V97.2389H58.1064V93.6814Z" fill="black"/>
<path d="M61.664 93.6816H58.1064V97.2392H61.664V93.6816Z" fill="black"/>
<path d="M65.2216 93.6816H61.6641V97.2392H65.2216V93.6816Z" fill="white"/>
<path d="M68.7792 93.6816H65.2217V97.2392H68.7792V93.6816Z" fill="black"/>
<path d="M72.3358 93.6816H68.7783V97.2392H72.3358V93.6816Z" fill="black"/>
<path d="M75.8935 93.6816H72.3359V97.2392H75.8935V93.6816Z" fill="white"/>
<path d="M79.4511 93.6816H75.8936V97.2392H79.4511V93.6816Z" fill="black"/>
<path d="M83.0087 93.6814H79.4512V97.2389H83.0087V93.6814Z" fill="white"/>
<path d="M86.5663 93.6814H83.0088V97.2389H86.5663V93.6814Z" fill="black"/>
<path d="M90.1239 93.6814H86.5664V97.2389H90.1239V93.6814Z" fill="black"/>
<path d="M93.6815 93.6814H90.124V97.2389H93.6815V93.6814Z" fill="black"/>
<path d="M97.2392 93.6814H93.6816V97.2389H97.2392V93.6814Z" fill="black"/>
<path d="M100.797 93.6816H97.2393V97.2392H100.797V93.6816Z" fill="black"/>
<path d="M104.354 93.6816H100.797V97.2392H104.354V93.6816Z" fill="black"/>
<path d="M107.911 93.6816H104.354V97.2392H107.911V93.6816Z" fill="black"/>
<path d="M111.469 93.6816H107.911V97.2392H111.469V93.6816Z" fill="black"/>
<path d="M115.026 93.6816H111.469V97.2392H115.026V93.6816Z" fill="white"/>
<path d="M118.584 93.6814H115.026V97.2389H118.584V93.6814Z" fill="white"/>
<path d="M122.142 93.6814H118.584V97.2389H122.142V93.6814Z" fill="black"/>
<path d="M125.699 93.6814H122.142V97.2389H125.699V93.6814Z" fill="white"/>
<path d="M11.8583 97.239H8.30078V100.797H11.8583V97.239Z" fill="white"/>
<path d="M15.4159 97.239H11.8584V100.797H15.4159V97.239Z" fill="white"/>
<path d="M18.9735 97.239H15.416V100.797H18.9735V97.239Z" fill="white"/>
<path d="M22.5312 97.239H18.9736V100.797H22.5312V97.239Z" fill="white"/>
<path d="M26.0888 97.2388H22.5312V100.796H26.0888V97.2388Z" fill="white"/>
<path d="M29.6464 97.2388H26.0889V100.796H29.6464V97.2388Z" fill="white"/>
<path d="M33.204 97.2388H29.6465V100.796H33.204V97.2388Z" fill="white"/>
<path d="M36.7606 97.2388H33.2031V100.796H36.7606V97.2388Z" fill="white"/>
<path d="M40.3183 97.2388H36.7607V100.796H40.3183V97.2388Z" fill="black"/>
<path d="M43.8759 97.239H40.3184V100.797H43.8759V97.239Z" fill="white"/>
<path d="M47.4335 97.239H43.876V100.797H47.4335V97.239Z" fill="white"/>
<path d="M50.9911 97.239H47.4336V100.797H50.9911V97.239Z" fill="white"/>
<path d="M54.5487 97.239H50.9912V100.797H54.5487V97.239Z" fill="black"/>
<path d="M58.1064 97.239H54.5488V100.797H58.1064V97.239Z" fill="white"/>
<path d="M61.664 97.2388H58.1064V100.796H61.664V97.2388Z" fill="white"/>
<path d="M65.2216 97.2388H61.6641V100.796H65.2216V97.2388Z" fill="black"/>
<path d="M68.7792 97.2388H65.2217V100.796H68.7792V97.2388Z" fill="black"/>
<path d="M72.3358 97.2388H68.7783V100.796H72.3358V97.2388Z" fill="white"/>
<path d="M75.8935 97.2388H72.3359V100.796H75.8935V97.2388Z" fill="white"/>
<path d="M79.4511 97.2388H75.8936V100.796H79.4511V97.2388Z" fill="white"/>
<path d="M83.0087 97.239H79.4512V100.797H83.0087V97.239Z" fill="black"/>
<path d="M86.5663 97.239H83.0088V100.797H86.5663V97.239Z" fill="white"/>
<path d="M90.1239 97.239H86.5664V100.797H90.1239V97.239Z" fill="black"/>
<path d="M93.6815 97.239H90.124V100.797H93.6815V97.239Z" fill="white"/>
<path d="M97.2392 97.239H93.6816V100.797H97.2392V97.239Z" fill="black"/>
<path d="M100.797 97.2388H97.2393V100.796H100.797V97.2388Z" fill="white"/>
<path d="M104.354 97.2388H100.797V100.796H104.354V97.2388Z" fill="white"/>
<path d="M107.911 97.2388H104.354V100.796H107.911V97.2388Z" fill="white"/>
<path d="M111.469 97.2388H107.911V100.796H111.469V97.2388Z" fill="black"/>
<path d="M115.026 97.2388H111.469V100.796H115.026V97.2388Z" fill="white"/>
<path d="M118.584 97.239H115.026V100.797H118.584V97.239Z" fill="white"/>
<path d="M122.142 97.239H118.584V100.797H122.142V97.239Z" fill="black"/>
<path d="M125.699 97.239H122.142V100.797H125.699V97.239Z" fill="white"/>
<path d="M11.8583 100.796H8.30078V104.354H11.8583V100.796Z" fill="black"/>
<path d="M15.4159 100.796H11.8584V104.354H15.4159V100.796Z" fill="black"/>
<path d="M18.9735 100.796H15.416V104.354H18.9735V100.796Z" fill="black"/>
<path d="M22.5312 100.796H18.9736V104.354H22.5312V100.796Z" fill="black"/>
<path d="M26.0888 100.796H22.5312V104.354H26.0888V100.796Z" fill="black"/>
<path d="M29.6464 100.796H26.0889V104.354H29.6464V100.796Z" fill="black"/>
<path d="M33.204 100.796H29.6465V104.354H33.204V100.796Z" fill="black"/>
<path d="M36.7606 100.796H33.2031V104.354H36.7606V100.796Z" fill="white"/>
<path d="M40.3183 100.796H36.7607V104.354H40.3183V100.796Z" fill="white"/>
<path d="M43.8759 100.796H40.3184V104.354H43.8759V100.796Z" fill="black"/>
<path d="M47.4335 100.796H43.876V104.354H47.4335V100.796Z" fill="white"/>
<path d="M50.9911 100.796H47.4336V104.354H50.9911V100.796Z" fill="black"/>
<path d="M54.5487 100.796H50.9912V104.354H54.5487V100.796Z" fill="black"/>
<path d="M58.1064 100.796H54.5488V104.354H58.1064V100.796Z" fill="black"/>
<path d="M61.664 100.796H58.1064V104.354H61.664V100.796Z" fill="black"/>
<path d="M65.2216 100.796H61.6641V104.354H65.2216V100.796Z" fill="black"/>
<path d="M68.7792 100.796H65.2217V104.354H68.7792V100.796Z" fill="black"/>
<path d="M72.3358 100.796H68.7783V104.354H72.3358V100.796Z" fill="white"/>
<path d="M75.8935 100.796H72.3359V104.354H75.8935V100.796Z" fill="white"/>
<path d="M79.4511 100.796H75.8936V104.354H79.4511V100.796Z" fill="white"/>
<path d="M83.0087 100.796H79.4512V104.354H83.0087V100.796Z" fill="white"/>
<path d="M86.5663 100.796H83.0088V104.354H86.5663V100.796Z" fill="black"/>
<path d="M90.1239 100.796H86.5664V104.354H90.1239V100.796Z" fill="black"/>
<path d="M93.6815 100.796H90.124V104.354H93.6815V100.796Z" fill="white"/>
<path d="M97.2392 100.796H93.6816V104.354H97.2392V100.796Z" fill="black"/>
<path d="M100.797 100.796H97.2393V104.354H100.797V100.796Z" fill="white"/>
<path d="M104.354 100.796H100.797V104.354H104.354V100.796Z" fill="black"/>
<path d="M107.911 100.796H104.354V104.354H107.911V100.796Z" fill="white"/>
<path d="M111.469 100.796H107.911V104.354H111.469V100.796Z" fill="black"/>
<path d="M115.026 100.796H111.469V104.354H115.026V100.796Z" fill="black"/>
<path d="M118.584 100.796H115.026V104.354H118.584V100.796Z" fill="white"/>
<path d="M122.142 100.796H118.584V104.354H122.142V100.796Z" fill="black"/>
<path d="M125.699 100.796H122.142V104.354H125.699V100.796Z" fill="white"/>
<path d="M11.8583 104.354H8.30078V107.912H11.8583V104.354Z" fill="black"/>
<path d="M15.4159 104.354H11.8584V107.912H15.4159V104.354Z" fill="white"/>
<path d="M18.9735 104.354H15.416V107.912H18.9735V104.354Z" fill="white"/>
<path d="M22.5312 104.354H18.9736V107.912H22.5312V104.354Z" fill="white"/>
<path d="M26.0888 104.354H22.5312V107.912H26.0888V104.354Z" fill="white"/>
<path d="M29.6464 104.354H26.0889V107.912H29.6464V104.354Z" fill="white"/>
<path d="M33.204 104.354H29.6465V107.912H33.204V104.354Z" fill="black"/>
<path d="M36.7606 104.354H33.2031V107.912H36.7606V104.354Z" fill="white"/>
<path d="M40.3183 104.354H36.7607V107.912H40.3183V104.354Z" fill="black"/>
<path d="M43.8759 104.354H40.3184V107.912H43.8759V104.354Z" fill="white"/>
<path d="M47.4335 104.354H43.876V107.912H47.4335V104.354Z" fill="white"/>
<path d="M50.9911 104.354H47.4336V107.912H50.9911V104.354Z" fill="black"/>
<path d="M54.5487 104.354H50.9912V107.912H54.5487V104.354Z" fill="white"/>
<path d="M58.1064 104.354H54.5488V107.912H58.1064V104.354Z" fill="black"/>
<path d="M61.664 104.354H58.1064V107.912H61.664V104.354Z" fill="white"/>
<path d="M65.2216 104.354H61.6641V107.912H65.2216V104.354Z" fill="white"/>
<path d="M68.7792 104.354H65.2217V107.912H68.7792V104.354Z" fill="black"/>
<path d="M72.3358 104.354H68.7783V107.912H72.3358V104.354Z" fill="black"/>
<path d="M75.8935 104.354H72.3359V107.912H75.8935V104.354Z" fill="white"/>
<path d="M79.4511 104.354H75.8936V107.912H79.4511V104.354Z" fill="black"/>
<path d="M83.0087 104.354H79.4512V107.912H83.0087V104.354Z" fill="white"/>
<path d="M86.5663 104.354H83.0088V107.912H86.5663V104.354Z" fill="black"/>
<path d="M90.1239 104.354H86.5664V107.912H90.1239V104.354Z" fill="black"/>
<path d="M93.6815 104.354H90.124V107.912H93.6815V104.354Z" fill="white"/>
<path d="M97.2392 104.354H93.6816V107.912H97.2392V104.354Z" fill="black"/>
<path d="M100.797 104.354H97.2393V107.912H100.797V104.354Z" fill="white"/>
<path d="M104.354 104.354H100.797V107.912H104.354V104.354Z" fill="white"/>
<path d="M107.911 104.354H104.354V107.912H107.911V104.354Z" fill="white"/>
<path d="M111.469 104.354H107.911V107.912H111.469V104.354Z" fill="black"/>
<path d="M115.026 104.354H111.469V107.912H115.026V104.354Z" fill="white"/>
<path d="M118.584 104.354H115.026V107.912H118.584V104.354Z" fill="white"/>
<path d="M122.142 104.354H118.584V107.912H122.142V104.354Z" fill="black"/>
<path d="M125.699 104.354H122.142V107.912H125.699V104.354Z" fill="black"/>
<path d="M11.8583 107.912H8.30078V111.469H11.8583V107.912Z" fill="black"/>
<path d="M15.4159 107.912H11.8584V111.469H15.4159V107.912Z" fill="white"/>
<path d="M18.9735 107.912H15.416V111.469H18.9735V107.912Z" fill="black"/>
<path d="M22.5312 107.912H18.9736V111.469H22.5312V107.912Z" fill="black"/>
<path d="M26.0888 107.912H22.5312V111.469H26.0888V107.912Z" fill="black"/>
<path d="M29.6464 107.912H26.0889V111.469H29.6464V107.912Z" fill="white"/>
<path d="M33.204 107.912H29.6465V111.469H33.204V107.912Z" fill="black"/>
<path d="M36.7606 107.912H33.2031V111.469H36.7606V107.912Z" fill="white"/>
<path d="M40.3183 107.912H36.7607V111.469H40.3183V107.912Z" fill="black"/>
<path d="M43.8759 107.912H40.3184V111.469H43.8759V107.912Z" fill="black"/>
<path d="M47.4335 107.912H43.876V111.469H47.4335V107.912Z" fill="black"/>
<path d="M50.9911 107.912H47.4336V111.469H50.9911V107.912Z" fill="white"/>
<path d="M54.5487 107.912H50.9912V111.469H54.5487V107.912Z" fill="black"/>
<path d="M58.1064 107.912H54.5488V111.469H58.1064V107.912Z" fill="black"/>
<path d="M61.664 107.912H58.1064V111.469H61.664V107.912Z" fill="white"/>
<path d="M65.2216 107.912H61.6641V111.469H65.2216V107.912Z" fill="white"/>
<path d="M68.7792 107.912H65.2217V111.469H68.7792V107.912Z" fill="black"/>
<path d="M72.3358 107.912H68.7783V111.469H72.3358V107.912Z" fill="black"/>
<path d="M75.8935 107.912H72.3359V111.469H75.8935V107.912Z" fill="black"/>
<path d="M79.4511 107.912H75.8936V111.469H79.4511V107.912Z" fill="black"/>
<path d="M83.0087 107.912H79.4512V111.469H83.0087V107.912Z" fill="black"/>
<path d="M86.5663 107.912H83.0088V111.469H86.5663V107.912Z" fill="white"/>
<path d="M90.1239 107.912H86.5664V111.469H90.1239V107.912Z" fill="black"/>
<path d="M93.6815 107.912H90.124V111.469H93.6815V107.912Z" fill="white"/>
<path d="M97.2392 107.912H93.6816V111.469H97.2392V107.912Z" fill="black"/>
<path d="M100.797 107.912H97.2393V111.469H100.797V107.912Z" fill="black"/>
<path d="M104.354 107.912H100.797V111.469H104.354V107.912Z" fill="black"/>
<path d="M107.911 107.912H104.354V111.469H107.911V107.912Z" fill="black"/>
<path d="M111.469 107.912H107.911V111.469H111.469V107.912Z" fill="black"/>
<path d="M115.026 107.912H111.469V111.469H115.026V107.912Z" fill="white"/>
<path d="M118.584 107.912H115.026V111.469H118.584V107.912Z" fill="white"/>
<path d="M122.142 107.912H118.584V111.469H122.142V107.912Z" fill="white"/>
<path d="M125.699 107.912H122.142V111.469H125.699V107.912Z" fill="black"/>
<path d="M11.8583 111.469H8.30078V115.027H11.8583V111.469Z" fill="black"/>
<path d="M15.4159 111.469H11.8584V115.027H15.4159V111.469Z" fill="white"/>
<path d="M18.9735 111.469H15.416V115.027H18.9735V111.469Z" fill="black"/>
<path d="M22.5312 111.469H18.9736V115.027H22.5312V111.469Z" fill="black"/>
<path d="M26.0888 111.469H22.5312V115.027H26.0888V111.469Z" fill="black"/>
<path d="M29.6464 111.469H26.0889V115.027H29.6464V111.469Z" fill="white"/>
<path d="M33.204 111.469H29.6465V115.027H33.204V111.469Z" fill="black"/>
<path d="M36.7606 111.469H33.2031V115.027H36.7606V111.469Z" fill="white"/>
<path d="M40.3183 111.469H36.7607V115.027H40.3183V111.469Z" fill="white"/>
<path d="M43.8759 111.469H40.3184V115.027H43.8759V111.469Z" fill="white"/>
<path d="M47.4335 111.469H43.876V115.027H47.4335V111.469Z" fill="black"/>
<path d="M50.9911 111.469H47.4336V115.027H50.9911V111.469Z" fill="white"/>
<path d="M54.5487 111.469H50.9912V115.027H54.5487V111.469Z" fill="white"/>
<path d="M58.1064 111.469H54.5488V115.027H58.1064V111.469Z" fill="black"/>
<path d="M61.664 111.469H58.1064V115.027H61.664V111.469Z" fill="black"/>
<path d="M65.2216 111.469H61.6641V115.027H65.2216V111.469Z" fill="black"/>
<path d="M68.7792 111.469H65.2217V115.027H68.7792V111.469Z" fill="black"/>
<path d="M72.3358 111.469H68.7783V115.027H72.3358V111.469Z" fill="black"/>
<path d="M75.8935 111.469H72.3359V115.027H75.8935V111.469Z" fill="white"/>
<path d="M79.4511 111.469H75.8936V115.027H79.4511V111.469Z" fill="white"/>
<path d="M83.0087 111.469H79.4512V115.027H83.0087V111.469Z" fill="white"/>
<path d="M86.5663 111.469H83.0088V115.027H86.5663V111.469Z" fill="white"/>
<path d="M90.1239 111.469H86.5664V115.027H90.1239V111.469Z" fill="black"/>
<path d="M93.6815 111.469H90.124V115.027H93.6815V111.469Z" fill="black"/>
<path d="M97.2392 111.469H93.6816V115.027H97.2392V111.469Z" fill="white"/>
<path d="M100.797 111.469H97.2393V115.027H100.797V111.469Z" fill="black"/>
<path d="M104.354 111.469H100.797V115.027H104.354V111.469Z" fill="black"/>
<path d="M107.911 111.469H104.354V115.027H107.911V111.469Z" fill="white"/>
<path d="M111.469 111.469H107.911V115.027H111.469V111.469Z" fill="black"/>
<path d="M115.026 111.469H111.469V115.027H115.026V111.469Z" fill="white"/>
<path d="M118.584 111.469H115.026V115.027H118.584V111.469Z" fill="white"/>
<path d="M122.142 111.469H118.584V115.027H122.142V111.469Z" fill="white"/>
<path d="M125.699 111.469H122.142V115.027H125.699V111.469Z" fill="white"/>
<path d="M11.8583 115.027H8.30078V118.584H11.8583V115.027Z" fill="black"/>
<path d="M15.4159 115.027H11.8584V118.584H15.4159V115.027Z" fill="white"/>
<path d="M18.9735 115.027H15.416V118.584H18.9735V115.027Z" fill="black"/>
<path d="M22.5312 115.027H18.9736V118.584H22.5312V115.027Z" fill="black"/>
<path d="M26.0888 115.026H22.5312V118.584H26.0888V115.026Z" fill="black"/>
<path d="M29.6464 115.026H26.0889V118.584H29.6464V115.026Z" fill="white"/>
<path d="M33.204 115.026H29.6465V118.584H33.204V115.026Z" fill="black"/>
<path d="M36.7606 115.026H33.2031V118.584H36.7606V115.026Z" fill="white"/>
<path d="M40.3183 115.026H36.7607V118.584H40.3183V115.026Z" fill="white"/>
<path d="M43.8759 115.027H40.3184V118.584H43.8759V115.027Z" fill="black"/>
<path d="M47.4335 115.027H43.876V118.584H47.4335V115.027Z" fill="black"/>
<path d="M50.9911 115.027H47.4336V118.584H50.9911V115.027Z" fill="white"/>
<path d="M54.5487 115.027H50.9912V118.584H54.5487V115.027Z" fill="white"/>
<path d="M58.1064 115.027H54.5488V118.584H58.1064V115.027Z" fill="white"/>
<path d="M61.664 115.026H58.1064V118.584H61.664V115.026Z" fill="white"/>
<path d="M65.2216 115.026H61.6641V118.584H65.2216V115.026Z" fill="black"/>
<path d="M68.7792 115.026H65.2217V118.584H68.7792V115.026Z" fill="black"/>
<path d="M72.3358 115.026H68.7783V118.584H72.3358V115.026Z" fill="black"/>
<path d="M75.8935 115.026H72.3359V118.584H75.8935V115.026Z" fill="black"/>
<path d="M79.4511 115.026H75.8936V118.584H79.4511V115.026Z" fill="white"/>
<path d="M83.0087 115.027H79.4512V118.584H83.0087V115.027Z" fill="black"/>
<path d="M86.5663 115.027H83.0088V118.584H86.5663V115.027Z" fill="black"/>
<path d="M90.1239 115.027H86.5664V118.584H90.1239V115.027Z" fill="black"/>
<path d="M93.6815 115.027H90.124V118.584H93.6815V115.027Z" fill="white"/>
<path d="M97.2392 115.027H93.6816V118.584H97.2392V115.027Z" fill="black"/>
<path d="M100.797 115.026H97.2393V118.584H100.797V115.026Z" fill="white"/>
<path d="M104.354 115.026H100.797V118.584H104.354V115.026Z" fill="black"/>
<path d="M107.911 115.026H104.354V118.584H107.911V115.026Z" fill="white"/>
<path d="M111.469 115.026H107.911V118.584H111.469V115.026Z" fill="black"/>
<path d="M115.026 115.026H111.469V118.584H115.026V115.026Z" fill="white"/>
<path d="M118.584 115.027H115.026V118.584H118.584V115.027Z" fill="white"/>
<path d="M122.142 115.027H118.584V118.584H122.142V115.027Z" fill="white"/>
<path d="M125.699 115.027H122.142V118.584H125.699V115.027Z" fill="white"/>
<path d="M11.8583 118.584H8.30078V122.142H11.8583V118.584Z" fill="black"/>
<path d="M15.4159 118.584H11.8584V122.142H15.4159V118.584Z" fill="white"/>
<path d="M18.9735 118.584H15.416V122.142H18.9735V118.584Z" fill="white"/>
<path d="M22.5312 118.584H18.9736V122.142H22.5312V118.584Z" fill="white"/>
<path d="M26.0888 118.584H22.5312V122.142H26.0888V118.584Z" fill="white"/>
<path d="M29.6464 118.584H26.0889V122.142H29.6464V118.584Z" fill="white"/>
<path d="M33.204 118.584H29.6465V122.142H33.204V118.584Z" fill="black"/>
<path d="M36.7606 118.584H33.2031V122.142H36.7606V118.584Z" fill="white"/>
<path d="M40.3183 118.584H36.7607V122.142H40.3183V118.584Z" fill="black"/>
<path d="M43.8759 118.584H40.3184V122.142H43.8759V118.584Z" fill="black"/>
<path d="M47.4335 118.584H43.876V122.142H47.4335V118.584Z" fill="white"/>
<path d="M50.9911 118.584H47.4336V122.142H50.9911V118.584Z" fill="white"/>
<path d="M54.5487 118.584H50.9912V122.142H54.5487V118.584Z" fill="black"/>
<path d="M58.1064 118.584H54.5488V122.142H58.1064V118.584Z" fill="white"/>
<path d="M61.664 118.584H58.1064V122.142H61.664V118.584Z" fill="black"/>
<path d="M65.2216 118.584H61.6641V122.142H65.2216V118.584Z" fill="black"/>
<path d="M68.7792 118.584H65.2217V122.142H68.7792V118.584Z" fill="white"/>
<path d="M72.3358 118.584H68.7783V122.142H72.3358V118.584Z" fill="black"/>
<path d="M75.8935 118.584H72.3359V122.142H75.8935V118.584Z" fill="black"/>
<path d="M79.4511 118.584H75.8936V122.142H79.4511V118.584Z" fill="black"/>
<path d="M83.0087 118.584H79.4512V122.142H83.0087V118.584Z" fill="black"/>
<path d="M86.5663 118.584H83.0088V122.142H86.5663V118.584Z" fill="black"/>
<path d="M90.1239 118.584H86.5664V122.142H90.1239V118.584Z" fill="white"/>
<path d="M93.6815 118.584H90.124V122.142H93.6815V118.584Z" fill="black"/>
<path d="M97.2392 118.584H93.6816V122.142H97.2392V118.584Z" fill="black"/>
<path d="M100.797 118.584H97.2393V122.142H100.797V118.584Z" fill="black"/>
<path d="M104.354 118.584H100.797V122.142H104.354V118.584Z" fill="black"/>
<path d="M107.911 118.584H104.354V122.142H107.911V118.584Z" fill="black"/>
<path d="M111.469 118.584H107.911V122.142H111.469V118.584Z" fill="white"/>
<path d="M115.026 118.584H111.469V122.142H115.026V118.584Z" fill="white"/>
<path d="M118.584 118.584H115.026V122.142H118.584V118.584Z" fill="white"/>
<path d="M122.142 118.584H118.584V122.142H122.142V118.584Z" fill="white"/>
<path d="M125.699 118.584H122.142V122.142H125.699V118.584Z" fill="white"/>
<path d="M11.8583 122.142H8.30078V125.699H11.8583V122.142Z" fill="black"/>
<path d="M15.4159 122.142H11.8584V125.699H15.4159V122.142Z" fill="black"/>
<path d="M18.9735 122.142H15.416V125.699H18.9735V122.142Z" fill="black"/>
<path d="M22.5312 122.142H18.9736V125.699H22.5312V122.142Z" fill="black"/>
<path d="M26.0888 122.142H22.5312V125.699H26.0888V122.142Z" fill="black"/>
<path d="M29.6464 122.142H26.0889V125.699H29.6464V122.142Z" fill="black"/>
<path d="M33.204 122.142H29.6465V125.699H33.204V122.142Z" fill="black"/>
<path d="M36.7606 122.142H33.2031V125.699H36.7606V122.142Z" fill="white"/>
<path d="M40.3183 122.142H36.7607V125.699H40.3183V122.142Z" fill="black"/>
<path d="M43.8759 122.142H40.3184V125.699H43.8759V122.142Z" fill="white"/>
<path d="M47.4335 122.142H43.876V125.699H47.4335V122.142Z" fill="white"/>
<path d="M50.9911 122.142H47.4336V125.699H50.9911V122.142Z" fill="black"/>
<path d="M54.5487 122.142H50.9912V125.699H54.5487V122.142Z" fill="white"/>
<path d="M58.1064 122.142H54.5488V125.699H58.1064V122.142Z" fill="black"/>
<path d="M61.664 122.142H58.1064V125.699H61.664V122.142Z" fill="black"/>
<path d="M65.2216 122.142H61.6641V125.699H65.2216V122.142Z" fill="white"/>
<path d="M68.7792 122.142H65.2217V125.699H68.7792V122.142Z" fill="black"/>
<path d="M72.3358 122.142H68.7783V125.699H72.3358V122.142Z" fill="black"/>
<path d="M75.8935 122.142H72.3359V125.699H75.8935V122.142Z" fill="white"/>
<path d="M79.4511 122.142H75.8936V125.699H79.4511V122.142Z" fill="white"/>
<path d="M83.0087 122.142H79.4512V125.699H83.0087V122.142Z" fill="black"/>
<path d="M86.5663 122.142H83.0088V125.699H86.5663V122.142Z" fill="black"/>
<path d="M90.1239 122.142H86.5664V125.699H90.1239V122.142Z" fill="white"/>
<path d="M93.6815 122.142H90.124V125.699H93.6815V122.142Z" fill="black"/>
<path d="M97.2392 122.142H93.6816V125.699H97.2392V122.142Z" fill="black"/>
<path d="M100.797 122.142H97.2393V125.699H100.797V122.142Z" fill="black"/>
<path d="M104.354 122.142H100.797V125.699H104.354V122.142Z" fill="white"/>
<path d="M107.911 122.142H104.354V125.699H107.911V122.142Z" fill="white"/>
<path d="M111.469 122.142H107.911V125.699H111.469V122.142Z" fill="white"/>
<path d="M115.026 122.142H111.469V125.699H115.026V122.142Z" fill="black"/>
<path d="M118.584 122.142H115.026V125.699H118.584V122.142Z" fill="white"/>
<path d="M122.142 122.142H118.584V125.699H122.142V122.142Z" fill="white"/>
<path d="M125.699 122.142H122.142V125.699H125.699V122.142Z" fill="black"/>
</svg>
