<svg width="134" height="134" fill="none" xmlns="http://www.w3.org/2000/svg"><path d="M134 0H0v134h134V0Z" fill="#fff"/><path d="M11.858 8.3H8.301v3.558h3.557V8.301ZM15.416 8.3h-3.558v3.558h3.558V8.301ZM18.974 8.3h-3.558v3.558h3.558V8.301ZM22.531 8.3h-3.557v3.558h3.557V8.301Z" fill="#000"/><path d="M26.089 8.3H22.53v3.558h3.558V8.301ZM29.646 8.3H26.09v3.558h3.557V8.301Z" fill="#000"/><path d="M33.204 8.3h-3.558v3.558h3.558V8.301Z" fill="#000"/><path d="M36.76 8.3h-3.557v3.558h3.558V8.301Z" fill="#fff"/><path d="M40.318 8.3h-3.557v3.558h3.557V8.301ZM43.876 8.3h-3.558v3.558h3.558V8.301ZM47.434 8.3h-3.558v3.558h3.558V8.301Z" fill="#000"/><path d="M50.991 8.3h-3.557v3.558h3.557V8.301Z" fill="#fff"/><path d="M54.549 8.3H50.99v3.558h3.558V8.301Z" fill="#000"/><path d="M58.106 8.3H54.55v3.558h3.557V8.301Z" fill="#fff"/><path d="M61.664 8.3h-3.558v3.558h3.558V8.301Z" fill="#fff"/><path d="M65.222 8.3h-3.558v3.558h3.558V8.301ZM68.78 8.3h-3.558v3.558h3.557V8.301Z" fill="#fff"/><path d="M72.336 8.3h-3.558v3.558h3.558V8.301ZM75.894 8.3h-3.558v3.558h3.558V8.301Z" fill="#fff"/><path d="M79.451 8.3h-3.557v3.558h3.557V8.301Z" fill="#fff"/><path d="M83.009 8.3H79.45v3.558h3.558V8.301ZM86.566 8.3H83.01v3.558h3.557V8.301Z" fill="#000"/><path d="M90.124 8.3h-3.558v3.558h3.558V8.301Z" fill="#fff"/><path d="M93.681 8.3h-3.557v3.558h3.558V8.301ZM97.24 8.3h-3.558v3.558h3.557V8.301Z" fill="#000"/><path d="M100.797 8.3h-3.558v3.558h3.558V8.301Z" fill="#fff"/><path d="M104.354 8.3h-3.557v3.558h3.557V8.301ZM107.911 8.3h-3.557v3.558h3.557V8.301ZM111.469 8.3h-3.558v3.558h3.558V8.301ZM115.026 8.3h-3.557v3.558h3.557V8.301ZM118.584 8.3h-3.558v3.558h3.558V8.301ZM122.142 8.3h-3.558v3.558h3.558V8.301ZM125.699 8.3h-3.557v3.558h3.557V8.301ZM11.858 11.858H8.301v3.558h3.557v-3.558Z" fill="#000"/><path d="M15.416 11.858h-3.558v3.558h3.558v-3.558ZM18.974 11.858h-3.558v3.558h3.558v-3.558ZM22.531 11.858h-3.557v3.558h3.557v-3.558Z" fill="#fff"/><path d="M26.089 11.858H22.53v3.558h3.558v-3.558ZM29.646 11.858H26.09v3.558h3.557v-3.558Z" fill="#fff"/><path d="M33.204 11.858h-3.558v3.558h3.558v-3.558Z" fill="#000"/><path d="M36.76 11.858h-3.557v3.558h3.558v-3.558Z" fill="#fff"/><path d="M40.318 11.858h-3.557v3.558h3.557v-3.558ZM43.876 11.858h-3.558v3.558h3.558v-3.558ZM47.434 11.858h-3.558v3.558h3.558v-3.558Z" fill="#000"/><path d="M50.991 11.858h-3.557v3.558h3.557v-3.558Z" fill="#fff"/><path d="M54.549 11.858H50.99v3.558h3.558v-3.558ZM58.106 11.858H54.55v3.558h3.557v-3.558Z" fill="#fff"/><path d="M61.664 11.858h-3.558v3.558h3.558v-3.558Z" fill="#fff"/><path d="M65.222 11.858h-3.558v3.558h3.558v-3.558Z" fill="#fff"/><path d="M68.78 11.858h-3.558v3.558h3.557v-3.558Z" fill="#000"/><path d="M72.336 11.858h-3.558v3.558h3.558v-3.558ZM75.894 11.858h-3.558v3.558h3.558v-3.558Z" fill="#fff"/><path d="M79.451 11.858h-3.557v3.558h3.557v-3.558Z" fill="#000"/><path d="M83.009 11.858H79.45v3.558h3.558v-3.558Z" fill="#fff"/><path d="M86.566 11.858H83.01v3.558h3.557v-3.558Z" fill="#000"/><path d="M90.124 11.858h-3.558v3.558h3.558v-3.558Z" fill="#000"/><path d="M93.681 11.858h-3.557v3.558h3.558v-3.558ZM97.24 11.858h-3.558v3.558h3.557v-3.558Z" fill="#fff"/><path d="M100.797 11.858h-3.558v3.558h3.558v-3.558Z" fill="#fff"/><path d="M104.354 11.858h-3.557v3.558h3.557v-3.558Z" fill="#000"/><path d="M107.911 11.858h-3.557v3.558h3.557v-3.558ZM111.469 11.858h-3.558v3.558h3.558v-3.558ZM115.026 11.858h-3.557v3.558h3.557v-3.558ZM118.584 11.858h-3.558v3.558h3.558v-3.558ZM122.142 11.858h-3.558v3.558h3.558v-3.558Z" fill="#fff"/><path d="M125.699 11.858h-3.557v3.558h3.557v-3.558ZM11.858 15.416H8.301v3.558h3.557v-3.558Z" fill="#000"/><path d="M15.416 15.416h-3.558v3.558h3.558v-3.558Z" fill="#fff"/><path d="M18.974 15.416h-3.558v3.558h3.558v-3.558ZM22.531 15.416h-3.557v3.558h3.557v-3.558Z" fill="#000"/><path d="M26.089 15.416H22.53v3.558h3.558v-3.558Z" fill="#000"/><path d="M29.646 15.416H26.09v3.558h3.557v-3.558Z" fill="#fff"/><path d="M33.204 15.416h-3.558v3.558h3.558v-3.558Z" fill="#000"/><path d="M36.76 15.416h-3.557v3.558h3.558v-3.558Z" fill="#fff"/><path d="M40.318 15.416h-3.557v3.558h3.557v-3.558Z" fill="#000"/><path d="M43.876 15.416h-3.558v3.558h3.558v-3.558Z" fill="#fff"/><path d="M47.434 15.416h-3.558v3.558h3.558v-3.558ZM50.991 15.416h-3.557v3.558h3.557v-3.558Z" fill="#000"/><path d="M54.549 15.416H50.99v3.558h3.558v-3.558Z" fill="#fff"/><path d="M58.106 15.416H54.55v3.558h3.557v-3.558Z" fill="#000"/><path d="M61.664 15.416h-3.558v3.558h3.558v-3.558Z" fill="#fff"/><path d="M65.222 15.416h-3.558v3.558h3.558v-3.558ZM68.78 15.416h-3.558v3.558h3.557v-3.558Z" fill="#000"/><path d="M72.336 15.416h-3.558v3.558h3.558v-3.558ZM75.894 15.416h-3.558v3.558h3.558v-3.558Z" fill="#000"/><path d="M79.451 15.416h-3.557v3.558h3.557v-3.558Z" fill="#fff"/><path d="M83.009 15.416H79.45v3.558h3.558v-3.558Z" fill="#fff"/><path d="M86.566 15.416H83.01v3.558h3.557v-3.558Z" fill="#000"/><path d="M90.124 15.416h-3.558v3.558h3.558v-3.558Z" fill="#000"/><path d="M93.681 15.416h-3.557v3.558h3.558v-3.558ZM97.24 15.416h-3.558v3.558h3.557v-3.558Z" fill="#fff"/><path d="M100.797 15.416h-3.558v3.558h3.558v-3.558Z" fill="#fff"/><path d="M104.354 15.416h-3.557v3.558h3.557v-3.558Z" fill="#000"/><path d="M107.911 15.416h-3.557v3.558h3.557v-3.558Z" fill="#fff"/><path d="M111.469 15.416h-3.558v3.558h3.558v-3.558ZM115.026 15.416h-3.557v3.558h3.557v-3.558ZM118.584 15.416h-3.558v3.558h3.558v-3.558Z" fill="#000"/><path d="M122.142 15.416h-3.558v3.558h3.558v-3.558Z" fill="#fff"/><path d="M125.699 15.416h-3.557v3.558h3.557v-3.558ZM11.858 18.973H8.301v3.558h3.557v-3.558Z" fill="#000"/><path d="M15.416 18.973h-3.558v3.558h3.558v-3.558Z" fill="#fff"/><path d="M18.974 18.973h-3.558v3.558h3.558v-3.558ZM22.531 18.973h-3.557v3.558h3.557v-3.558Z" fill="#000"/><path d="M26.089 18.974H22.53v3.557h3.558v-3.557Z" fill="#000"/><path d="M29.646 18.974H26.09v3.557h3.557v-3.557Z" fill="#fff"/><path d="M33.204 18.974h-3.558v3.557h3.558v-3.557Z" fill="#000"/><path d="M36.76 18.974h-3.557v3.557h3.558v-3.557Z" fill="#fff"/><path d="M40.318 18.974h-3.557v3.557h3.557v-3.557ZM43.876 18.973h-3.558v3.558h3.558v-3.558Z" fill="#000"/><path d="M47.434 18.973h-3.558v3.558h3.558v-3.558Z" fill="#fff"/><path d="M50.991 18.973h-3.557v3.558h3.557v-3.558Z" fill="#000"/><path d="M54.549 18.973H50.99v3.558h3.558v-3.558ZM58.106 18.973H54.55v3.558h3.557v-3.558Z" fill="#fff"/><path d="M61.664 18.974h-3.558v3.557h3.558v-3.557Z" fill="#000"/><path d="M65.222 18.974h-3.558v3.557h3.558v-3.557ZM68.78 18.974h-3.558v3.557h3.557v-3.557Z" fill="#000"/><path d="M72.336 18.974h-3.558v3.557h3.558v-3.557ZM75.894 18.974h-3.558v3.557h3.558v-3.557Z" fill="#fff"/><path d="M79.451 18.974h-3.557v3.557h3.557v-3.557Z" fill="#000"/><path d="M83.009 18.973H79.45v3.558h3.558v-3.558Z" fill="#000"/><path d="M86.566 18.973H83.01v3.558h3.557v-3.558Z" fill="#fff"/><path d="M90.124 18.973h-3.558v3.558h3.558v-3.558ZM93.681 18.973h-3.557v3.558h3.558v-3.558ZM97.24 18.973h-3.558v3.558h3.557v-3.558Z" fill="#fff"/><path d="M100.797 18.974h-3.558v3.557h3.558v-3.557Z" fill="#fff"/><path d="M104.354 18.974h-3.557v3.557h3.557v-3.557Z" fill="#000"/><path d="M107.911 18.974h-3.557v3.557h3.557v-3.557Z" fill="#fff"/><path d="M111.469 18.974h-3.558v3.557h3.558v-3.557ZM115.026 18.974h-3.557v3.557h3.557v-3.557ZM118.584 18.973h-3.558v3.558h3.558v-3.558Z" fill="#000"/><path d="M122.142 18.973h-3.558v3.558h3.558v-3.558Z" fill="#fff"/><path d="M125.699 18.973h-3.557v3.558h3.557v-3.558ZM11.858 22.531H8.301v3.558h3.557V22.53Z" fill="#000"/><path d="M15.416 22.531h-3.558v3.558h3.558V22.53Z" fill="#fff"/><path d="M18.974 22.531h-3.558v3.558h3.558V22.53ZM22.531 22.531h-3.557v3.558h3.557V22.53Z" fill="#000"/><path d="M26.089 22.53H22.53v3.558h3.558v-3.557Z" fill="#000"/><path d="M29.646 22.53H26.09v3.558h3.557v-3.557Z" fill="#fff"/><path d="M33.204 22.53h-3.558v3.558h3.558v-3.557Z" fill="#000"/><path d="M36.76 22.53h-3.557v3.558h3.558v-3.557ZM40.318 22.53h-3.557v3.558h3.557v-3.557ZM43.876 22.531h-3.558v3.558h3.558V22.53ZM47.434 22.531h-3.558v3.558h3.558V22.53ZM50.991 22.531h-3.557v3.558h3.557V22.53Z" fill="#fff"/><path d="M54.549 22.531H50.99v3.558h3.558V22.53Z" fill="#fff"/><path d="M58.106 22.531H54.55v3.558h3.557V22.53Z" fill="#000"/><path d="M61.664 22.53h-3.558v3.558h3.558v-3.557Z" fill="#000"/><path d="M65.222 22.53h-3.558v3.558h3.558v-3.557Z" fill="#fff"/><path d="M68.78 22.53h-3.558v3.558h3.557v-3.557Z" fill="#000"/><path d="M72.336 22.53h-3.558v3.558h3.558v-3.557Z" fill="#000"/><path d="M75.894 22.53h-3.558v3.558h3.558v-3.557Z" fill="#fff"/><path d="M79.451 22.53h-3.557v3.558h3.557v-3.557Z" fill="#fff"/><path d="M83.009 22.531H79.45v3.558h3.558V22.53ZM86.566 22.531H83.01v3.558h3.557V22.53Z" fill="#000"/><path d="M90.124 22.531h-3.558v3.558h3.558V22.53Z" fill="#fff"/><path d="M93.681 22.531h-3.557v3.558h3.558V22.53Z" fill="#000"/><path d="M97.24 22.531h-3.558v3.558h3.557V22.53Z" fill="#fff"/><path d="M100.797 22.53h-3.558v3.558h3.558v-3.557Z" fill="#fff"/><path d="M104.354 22.53h-3.557v3.558h3.557v-3.557Z" fill="#000"/><path d="M107.911 22.53h-3.557v3.558h3.557v-3.557Z" fill="#fff"/><path d="M111.469 22.53h-3.558v3.558h3.558v-3.557ZM115.026 22.53h-3.557v3.558h3.557v-3.557ZM118.584 22.531h-3.558v3.558h3.558V22.53Z" fill="#000"/><path d="M122.142 22.531h-3.558v3.558h3.558V22.53Z" fill="#fff"/><path d="M125.699 22.531h-3.557v3.558h3.557V22.53ZM11.858 26.088H8.301v3.558h3.557v-3.558Z" fill="#000"/><path d="M15.416 26.088h-3.558v3.558h3.558v-3.558ZM18.974 26.088h-3.558v3.558h3.558v-3.558ZM22.531 26.088h-3.557v3.558h3.557v-3.558Z" fill="#fff"/><path d="M26.089 26.088H22.53v3.558h3.558v-3.558ZM29.646 26.088H26.09v3.558h3.557v-3.558Z" fill="#fff"/><path d="M33.204 26.088h-3.558v3.558h3.558v-3.558Z" fill="#000"/><path d="M36.76 26.088h-3.557v3.558h3.558v-3.558Z" fill="#fff"/><path d="M40.318 26.088h-3.557v3.558h3.557v-3.558Z" fill="#000"/><path d="M43.876 26.088h-3.558v3.558h3.558v-3.558ZM47.434 26.088h-3.558v3.558h3.558v-3.558Z" fill="#fff"/><path d="M50.991 26.088h-3.557v3.558h3.557v-3.558Z" fill="#000"/><path d="M54.549 26.088H50.99v3.558h3.558v-3.558ZM58.106 26.088H54.55v3.558h3.557v-3.558Z" fill="#000"/><path d="M61.664 26.088h-3.558v3.558h3.558v-3.558Z" fill="#000"/><path d="M65.222 26.088h-3.558v3.558h3.558v-3.558Z" fill="#000"/><path d="M68.78 26.088h-3.558v3.558h3.557v-3.558Z" fill="#fff"/><path d="M72.336 26.088h-3.558v3.558h3.558v-3.558Z" fill="#000"/><path d="M75.894 26.088h-3.558v3.558h3.558v-3.558Z" fill="#fff"/><path d="M79.451 26.088h-3.557v3.558h3.557v-3.558Z" fill="#000"/><path d="M83.009 26.088H79.45v3.558h3.558v-3.558Z" fill="#000"/><path d="M86.566 26.088H83.01v3.558h3.557v-3.558Z" fill="#fff"/><path d="M90.124 26.088h-3.558v3.558h3.558v-3.558Z" fill="#000"/><path d="M93.681 26.088h-3.557v3.558h3.558v-3.558Z" fill="#fff"/><path d="M97.24 26.088h-3.558v3.558h3.557v-3.558Z" fill="#000"/><path d="M100.797 26.088h-3.558v3.558h3.558v-3.558Z" fill="#fff"/><path d="M104.354 26.088h-3.557v3.558h3.557v-3.558Z" fill="#000"/><path d="M107.911 26.088h-3.557v3.558h3.557v-3.558ZM111.469 26.088h-3.558v3.558h3.558v-3.558ZM115.026 26.088h-3.557v3.558h3.557v-3.558ZM118.584 26.088h-3.558v3.558h3.558v-3.558ZM122.142 26.088h-3.558v3.558h3.558v-3.558Z" fill="#fff"/><path d="M125.699 26.088h-3.557v3.558h3.557v-3.558ZM11.858 29.646H8.301v3.557h3.557v-3.557ZM15.416 29.646h-3.558v3.557h3.558v-3.557ZM18.974 29.646h-3.558v3.557h3.558v-3.557ZM22.531 29.646h-3.557v3.557h3.557v-3.557Z" fill="#000"/><path d="M26.089 29.646H22.53v3.557h3.558v-3.557ZM29.646 29.646H26.09v3.557h3.557v-3.557Z" fill="#000"/><path d="M33.204 29.646h-3.558v3.557h3.558v-3.557Z" fill="#000"/><path d="M36.76 29.646h-3.557v3.557h3.558v-3.557Z" fill="#fff"/><path d="M40.318 29.646h-3.557v3.557h3.557v-3.557Z" fill="#000"/><path d="M43.876 29.646h-3.558v3.557h3.558v-3.557Z" fill="#fff"/><path d="M47.434 29.646h-3.558v3.557h3.558v-3.557Z" fill="#000"/><path d="M50.991 29.646h-3.557v3.557h3.557v-3.557Z" fill="#fff"/><path d="M54.549 29.646H50.99v3.557h3.558v-3.557Z" fill="#000"/><path d="M58.106 29.646H54.55v3.557h3.557v-3.557Z" fill="#fff"/><path d="M61.664 29.646h-3.558v3.557h3.558v-3.557Z" fill="#000"/><path d="M65.222 29.646h-3.558v3.557h3.558v-3.557Z" fill="#fff"/><path d="M68.78 29.646h-3.558v3.557h3.557v-3.557Z" fill="#000"/><path d="M72.336 29.646h-3.558v3.557h3.558v-3.557Z" fill="#fff"/><path d="M75.894 29.646h-3.558v3.557h3.558v-3.557Z" fill="#000"/><path d="M79.451 29.646h-3.557v3.557h3.557v-3.557Z" fill="#fff"/><path d="M83.009 29.646H79.45v3.557h3.558v-3.557Z" fill="#000"/><path d="M86.566 29.646H83.01v3.557h3.557v-3.557Z" fill="#fff"/><path d="M90.124 29.646h-3.558v3.557h3.558v-3.557Z" fill="#000"/><path d="M93.681 29.646h-3.557v3.557h3.558v-3.557Z" fill="#fff"/><path d="M97.24 29.646h-3.558v3.557h3.557v-3.557Z" fill="#000"/><path d="M100.797 29.646h-3.558v3.557h3.558v-3.557Z" fill="#fff"/><path d="M104.354 29.646h-3.557v3.557h3.557v-3.557ZM107.911 29.646h-3.557v3.557h3.557v-3.557ZM111.469 29.646h-3.558v3.557h3.558v-3.557ZM115.026 29.646h-3.557v3.557h3.557v-3.557ZM118.584 29.646h-3.558v3.557h3.558v-3.557ZM122.142 29.646h-3.558v3.557h3.558v-3.557ZM125.699 29.646h-3.557v3.557h3.557v-3.557Z" fill="#000"/><path d="M11.858 33.204H8.301v3.557h3.557v-3.557ZM15.416 33.204h-3.558v3.557h3.558v-3.557ZM18.974 33.204h-3.558v3.557h3.558v-3.557ZM22.531 33.204h-3.557v3.557h3.557v-3.557Z" fill="#fff"/><path d="M26.089 33.204H22.53v3.557h3.558v-3.557ZM29.646 33.204H26.09v3.557h3.557v-3.557Z" fill="#fff"/><path d="M33.204 33.204h-3.558v3.557h3.558v-3.557Z" fill="#fff"/><path d="M36.76 33.204h-3.557v3.557h3.558v-3.557ZM40.318 33.204h-3.557v3.557h3.557v-3.557Z" fill="#fff"/><path d="M43.876 33.204h-3.558v3.557h3.558v-3.557Z" fill="#000"/><path d="M47.434 33.204h-3.558v3.557h3.558v-3.557ZM50.991 33.204h-3.557v3.557h3.557v-3.557Z" fill="#fff"/><path d="M54.549 33.204H50.99v3.557h3.558v-3.557Z" fill="#000"/><path d="M58.106 33.204H54.55v3.557h3.557v-3.557Z" fill="#fff"/><path d="M61.664 33.204h-3.558v3.557h3.558v-3.557Z" fill="#000"/><path d="M65.222 33.204h-3.558v3.557h3.558v-3.557ZM68.78 33.204h-3.558v3.557h3.557v-3.557Z" fill="#fff"/><path d="M72.336 33.204h-3.558v3.557h3.558v-3.557ZM75.894 33.204h-3.558v3.557h3.558v-3.557Z" fill="#000"/><path d="M79.451 33.204h-3.557v3.557h3.557v-3.557Z" fill="#000"/><path d="M83.009 33.204H79.45v3.557h3.558v-3.557Z" fill="#fff"/><path d="M86.566 33.204H83.01v3.557h3.557v-3.557Z" fill="#000"/><path d="M90.124 33.204h-3.558v3.557h3.558v-3.557ZM93.681 33.204h-3.557v3.557h3.558v-3.557Z" fill="#fff"/><path d="M97.24 33.204h-3.558v3.557h3.557v-3.557Z" fill="#000"/><path d="M100.797 33.204h-3.558v3.557h3.558v-3.557ZM104.354 33.204h-3.557v3.557h3.557v-3.557ZM107.911 33.204h-3.557v3.557h3.557v-3.557ZM111.469 33.204h-3.558v3.557h3.558v-3.557ZM115.026 33.204h-3.557v3.557h3.557v-3.557ZM118.584 33.204h-3.558v3.557h3.558v-3.557ZM122.142 33.204h-3.558v3.557h3.558v-3.557ZM125.699 33.204h-3.557v3.557h3.557v-3.557Z" fill="#fff"/><path d="M11.858 36.761H8.301v3.557h3.557v-3.557ZM15.416 36.761h-3.558v3.557h3.558v-3.557Z" fill="#000"/><path d="M18.974 36.761h-3.558v3.557h3.558v-3.557ZM22.531 36.761h-3.557v3.557h3.557v-3.557Z" fill="#fff"/><path d="M26.089 36.761H22.53v3.558h3.558V36.76ZM29.646 36.761H26.09v3.558h3.557V36.76Z" fill="#000"/><path d="M33.204 36.761h-3.558v3.558h3.558V36.76Z" fill="#000"/><path d="M36.76 36.761h-3.557v3.558h3.558V36.76ZM40.318 36.761h-3.557v3.558h3.557V36.76ZM43.876 36.761h-3.558v3.557h3.558v-3.557ZM47.434 36.761h-3.558v3.557h3.558v-3.557Z" fill="#fff"/><path d="M50.991 36.761h-3.557v3.557h3.557v-3.557Z" fill="#000"/><path d="M54.549 36.761H50.99v3.557h3.558v-3.557Z" fill="#fff"/><path d="M58.106 36.761H54.55v3.557h3.557v-3.557Z" fill="#000"/><path d="M61.664 36.761h-3.558v3.558h3.558V36.76Z" fill="#000"/><path d="M65.222 36.761h-3.558v3.558h3.558V36.76ZM68.78 36.761h-3.558v3.558h3.557V36.76Z" fill="#000"/><path d="M72.336 36.761h-3.558v3.558h3.558V36.76Z" fill="#000"/><path d="M75.894 36.761h-3.558v3.558h3.558V36.76Z" fill="#fff"/><path d="M79.451 36.761h-3.557v3.558h3.557V36.76Z" fill="#000"/><path d="M83.009 36.761H79.45v3.557h3.558v-3.557ZM86.566 36.761H83.01v3.557h3.557v-3.557Z" fill="#000"/><path d="M90.124 36.761h-3.558v3.557h3.558v-3.557ZM93.681 36.761h-3.557v3.557h3.558v-3.557ZM97.24 36.761h-3.558v3.557h3.557v-3.557Z" fill="#000"/><path d="M100.797 36.761h-3.558v3.558h3.558V36.76ZM104.354 36.761h-3.557v3.558h3.557V36.76Z" fill="#fff"/><path d="M107.911 36.761h-3.557v3.558h3.557V36.76Z" fill="#000"/><path d="M111.469 36.761h-3.558v3.558h3.558V36.76Z" fill="#fff"/><path d="M115.026 36.761h-3.557v3.558h3.557V36.76ZM118.584 36.761h-3.558v3.557h3.558v-3.557ZM122.142 36.761h-3.558v3.557h3.558v-3.557ZM125.699 36.761h-3.557v3.557h3.557v-3.557ZM11.858 40.319H8.301v3.557h3.557V40.32Z" fill="#000"/><path d="M15.416 40.319h-3.558v3.557h3.558V40.32Z" fill="#fff"/><path d="M18.974 40.319h-3.558v3.557h3.558V40.32ZM22.531 40.319h-3.557v3.557h3.557V40.32Z" fill="#000"/><path d="M26.089 40.318H22.53v3.558h3.558v-3.558Z" fill="#fff"/><path d="M29.646 40.318H26.09v3.558h3.557v-3.558Z" fill="#000"/><path d="M33.204 40.318h-3.558v3.558h3.558v-3.558Z" fill="#fff"/><path d="M36.76 40.318h-3.557v3.558h3.558v-3.558Z" fill="#fff"/><path d="M40.318 40.318h-3.557v3.558h3.557v-3.558ZM43.876 40.319h-3.558v3.557h3.558V40.32ZM47.434 40.319h-3.558v3.557h3.558V40.32Z" fill="#000"/><path d="M50.991 40.319h-3.557v3.557h3.557V40.32Z" fill="#fff"/><path d="M54.549 40.319H50.99v3.557h3.558V40.32Z" fill="#000"/><path d="M58.106 40.319H54.55v3.557h3.557V40.32Z" fill="#fff"/><path d="M61.664 40.318h-3.558v3.558h3.558v-3.558Z" fill="#fff"/><path d="M65.222 40.318h-3.558v3.558h3.558v-3.558ZM68.78 40.318h-3.558v3.558h3.557v-3.558Z" fill="#fff"/><path d="M72.336 40.318h-3.558v3.558h3.558v-3.558Z" fill="#fff"/><path d="M75.894 40.318h-3.558v3.558h3.558v-3.558Z" fill="#000"/><path d="M79.451 40.318h-3.557v3.558h3.557v-3.558Z" fill="#fff"/><path d="M83.009 40.319H79.45v3.557h3.558V40.32ZM86.566 40.319H83.01v3.557h3.557V40.32Z" fill="#fff"/><path d="M90.124 40.319h-3.558v3.557h3.558V40.32Z" fill="#fff"/><path d="M93.681 40.319h-3.557v3.557h3.558V40.32Z" fill="#000"/><path d="M97.24 40.319h-3.558v3.557h3.557V40.32Z" fill="#fff"/><path d="M100.797 40.318h-3.558v3.558h3.558v-3.558Z" fill="#000"/><path d="M104.354 40.318h-3.557v3.558h3.557v-3.558Z" fill="#fff"/><path d="M107.911 40.318h-3.557v3.558h3.557v-3.558Z" fill="#000"/><path d="M111.469 40.318h-3.558v3.558h3.558v-3.558ZM115.026 40.318h-3.557v3.558h3.557v-3.558Z" fill="#fff"/><path d="M118.584 40.319h-3.558v3.557h3.558V40.32Z" fill="#000"/><path d="M122.142 40.319h-3.558v3.557h3.558V40.32ZM125.699 40.319h-3.557v3.557h3.557V40.32ZM11.858 43.876H8.301v3.558h3.557v-3.558Z" fill="#fff"/><path d="M15.416 43.876h-3.558v3.558h3.558v-3.558ZM18.974 43.876h-3.558v3.558h3.558v-3.558ZM22.531 43.876h-3.557v3.558h3.557v-3.558Z" fill="#000"/><path d="M26.089 43.876H22.53v3.558h3.558v-3.558Z" fill="#000"/><path d="M29.646 43.876H26.09v3.558h3.557v-3.558Z" fill="#fff"/><path d="M33.204 43.876h-3.558v3.558h3.558v-3.558Z" fill="#000"/><path d="M36.76 43.876h-3.557v3.558h3.558v-3.558ZM40.318 43.876h-3.557v3.558h3.557v-3.558Z" fill="#000"/><path d="M43.876 43.876h-3.558v3.558h3.558v-3.558ZM47.434 43.876h-3.558v3.558h3.558v-3.558Z" fill="#fff"/><path d="M50.991 43.876h-3.557v3.558h3.557v-3.558Z" fill="#000"/><path d="M54.549 43.876H50.99v3.558h3.558v-3.558ZM58.106 43.876H54.55v3.558h3.557v-3.558Z" fill="#000"/><path d="M61.664 43.876h-3.558v3.558h3.558v-3.558Z" fill="#000"/><path d="M65.222 43.876h-3.558v3.558h3.558v-3.558Z" fill="#000"/><path d="M68.78 43.876h-3.558v3.558h3.557v-3.558Z" fill="#fff"/><path d="M72.336 43.876h-3.558v3.558h3.558v-3.558Z" fill="#000"/><path d="M75.894 43.876h-3.558v3.558h3.558v-3.558Z" fill="#fff"/><path d="M79.451 43.876h-3.557v3.558h3.557v-3.558Z" fill="#fff"/><path d="M83.009 43.876H79.45v3.558h3.558v-3.558ZM86.566 43.876H83.01v3.558h3.557v-3.558Z" fill="#000"/><path d="M90.124 43.876h-3.558v3.558h3.558v-3.558Z" fill="#fff"/><path d="M93.681 43.876h-3.557v3.558h3.558v-3.558ZM97.24 43.876h-3.558v3.558h3.557v-3.558Z" fill="#000"/><path d="M100.797 43.876h-3.558v3.558h3.558v-3.558ZM104.354 43.876h-3.557v3.558h3.557v-3.558Z" fill="#000"/><path d="M107.911 43.876h-3.557v3.558h3.557v-3.558Z" fill="#fff"/><path d="M111.469 43.876h-3.558v3.558h3.558v-3.558Z" fill="#000"/><path d="M115.026 43.876h-3.557v3.558h3.557v-3.558Z" fill="#fff"/><path d="M118.584 43.876h-3.558v3.558h3.558v-3.558ZM122.142 43.876h-3.558v3.558h3.558v-3.558Z" fill="#000"/><path d="M125.699 43.876h-3.557v3.558h3.557v-3.558ZM11.858 47.434H8.301v3.557h3.557v-3.557Z" fill="#fff"/><path d="M15.416 47.434h-3.558v3.557h3.558v-3.557Z" fill="#000"/><path d="M18.974 47.434h-3.558v3.557h3.558v-3.557ZM22.531 47.434h-3.557v3.557h3.557v-3.557Z" fill="#fff"/><path d="M26.089 47.434H22.53v3.557h3.558v-3.557Z" fill="#fff"/><path d="M29.646 47.434H26.09v3.557h3.557v-3.557Z" fill="#000"/><path d="M33.204 47.434h-3.558v3.557h3.558v-3.557Z" fill="#fff"/><path d="M36.76 47.434h-3.557v3.557h3.558v-3.557ZM40.318 47.434h-3.557v3.557h3.557v-3.557ZM43.876 47.434h-3.558v3.557h3.558v-3.557Z" fill="#fff"/><path d="M47.434 47.434h-3.558v3.557h3.558v-3.557ZM50.991 47.434h-3.557v3.557h3.557v-3.557Z" fill="#000"/><path d="M54.549 47.434H50.99v3.557h3.558v-3.557Z" fill="#fff"/><path d="M58.106 47.434H54.55v3.557h3.557v-3.557Z" fill="#000"/><path d="M61.664 47.434h-3.558v3.557h3.558v-3.557Z" fill="#fff"/><path d="M65.222 47.434h-3.558v3.557h3.558v-3.557ZM68.78 47.434h-3.558v3.557h3.557v-3.557Z" fill="#000"/><path d="M72.336 47.434h-3.558v3.557h3.558v-3.557ZM75.894 47.434h-3.558v3.557h3.558v-3.557Z" fill="#000"/><path d="M79.451 47.434h-3.557v3.557h3.557v-3.557Z" fill="#fff"/><path d="M83.009 47.434H79.45v3.557h3.558v-3.557ZM86.566 47.434H83.01v3.557h3.557v-3.557Z" fill="#000"/><path d="M90.124 47.434h-3.558v3.557h3.558v-3.557Z" fill="#fff"/><path d="M93.681 47.434h-3.557v3.557h3.558v-3.557Z" fill="#000"/><path d="M97.24 47.434h-3.558v3.557h3.557v-3.557Z" fill="#fff"/><path d="M100.797 47.434h-3.558v3.557h3.558v-3.557Z" fill="#fff"/><path d="M104.354 47.434h-3.557v3.557h3.557v-3.557ZM107.911 47.434h-3.557v3.557h3.557v-3.557Z" fill="#000"/><path d="M111.469 47.434h-3.558v3.557h3.558v-3.557Z" fill="#fff"/><path d="M115.026 47.434h-3.557v3.557h3.557v-3.557Z" fill="#000"/><path d="M118.584 47.434h-3.558v3.557h3.558v-3.557ZM122.142 47.434h-3.558v3.557h3.558v-3.557ZM125.699 47.434h-3.557v3.557h3.557v-3.557ZM11.858 50.991H8.301v3.558h3.557V50.99Z" fill="#fff"/><path d="M15.416 50.991h-3.558v3.558h3.558V50.99ZM18.974 50.991h-3.558v3.558h3.558V50.99ZM22.531 50.991h-3.557v3.558h3.557V50.99Z" fill="#000"/><path d="M26.089 50.991H22.53v3.558h3.558V50.99ZM29.646 50.991H26.09v3.558h3.557V50.99Z" fill="#000"/><path d="M33.204 50.991h-3.558v3.558h3.558V50.99Z" fill="#000"/><path d="M36.76 50.991h-3.557v3.558h3.558V50.99Z" fill="#fff"/><path d="M40.318 50.991h-3.557v3.558h3.557V50.99Z" fill="#000"/><path d="M43.876 50.991h-3.558v3.558h3.558V50.99Z" fill="#fff"/><path d="M47.434 50.991h-3.558v3.558h3.558V50.99Z" fill="#000"/><path d="M50.991 50.991h-3.557v3.558h3.557V50.99Z" fill="#fff"/><path d="M54.549 50.991H50.99v3.558h3.558V50.99ZM58.106 50.991H54.55v3.558h3.557V50.99Z" fill="#000"/><path d="M61.664 50.991h-3.558v3.558h3.558V50.99Z" fill="#fff"/><path d="M65.222 50.991h-3.558v3.558h3.558V50.99ZM68.78 50.991h-3.558v3.558h3.557V50.99Z" fill="#fff"/><path d="M72.336 50.991h-3.558v3.558h3.558V50.99Z" fill="#000"/><path d="M75.894 50.991h-3.558v3.558h3.558V50.99Z" fill="#fff"/><path d="M79.451 50.991h-3.557v3.558h3.557V50.99Z" fill="#000"/><path d="M83.009 50.991H79.45v3.558h3.558V50.99Z" fill="#fff"/><path d="M86.566 50.991H83.01v3.558h3.557V50.99Z" fill="#000"/><path d="M90.124 50.991h-3.558v3.558h3.558V50.99Z" fill="#fff"/><path d="M93.681 50.991h-3.557v3.558h3.558V50.99ZM97.24 50.991h-3.558v3.558h3.557V50.99Z" fill="#000"/><path d="M100.797 50.991h-3.558v3.558h3.558V50.99Z" fill="#fff"/><path d="M104.354 50.991h-3.557v3.558h3.557V50.99Z" fill="#000"/><path d="M107.911 50.991h-3.557v3.558h3.557V50.99Z" fill="#fff"/><path d="M111.469 50.991h-3.558v3.558h3.558V50.99ZM115.026 50.991h-3.557v3.558h3.557V50.99Z" fill="#000"/><path d="M118.584 50.991h-3.558v3.558h3.558V50.99Z" fill="#fff"/><path d="M122.142 50.991h-3.558v3.558h3.558V50.99ZM125.699 50.991h-3.557v3.558h3.557V50.99ZM11.858 54.549H8.301v3.557h3.557V54.55ZM15.416 54.549h-3.558v3.557h3.558V54.55ZM18.974 54.549h-3.558v3.557h3.558V54.55ZM22.531 54.549h-3.557v3.557h3.557V54.55Z" fill="#000"/><path d="M26.089 54.549H22.53v3.557h3.558V54.55ZM29.646 54.549H26.09v3.557h3.557V54.55Z" fill="#fff"/><path d="M33.204 54.549h-3.558v3.557h3.558V54.55Z" fill="#fff"/><path d="M36.76 54.549h-3.557v3.557h3.558V54.55ZM40.318 54.549h-3.557v3.557h3.557V54.55Z" fill="#fff"/><path d="M43.876 54.549h-3.558v3.557h3.558V54.55Z" fill="#000"/><path d="M47.434 54.549h-3.558v3.557h3.558V54.55ZM50.991 54.549h-3.557v3.557h3.557V54.55Z" fill="#fff"/><path d="M54.549 54.549H50.99v3.557h3.558V54.55Z" fill="#fff"/><path d="M58.106 54.549H54.55v3.557h3.557V54.55Z" fill="#000"/><path d="M61.664 54.549h-3.558v3.557h3.558V54.55Z" fill="#000"/><path d="M65.222 54.549h-3.558v3.557h3.558V54.55Z" fill="#fff"/><path d="M68.78 54.549h-3.558v3.557h3.557V54.55Z" fill="#000"/><path d="M72.336 54.549h-3.558v3.557h3.558V54.55Z" fill="#fff"/><path d="M75.894 54.549h-3.558v3.557h3.558V54.55Z" fill="#000"/><path d="M79.451 54.549h-3.557v3.557h3.557V54.55Z" fill="#fff"/><path d="M83.009 54.549H79.45v3.557h3.558V54.55ZM86.566 54.549H83.01v3.557h3.557V54.55Z" fill="#000"/><path d="M90.124 54.549h-3.558v3.557h3.558V54.55Z" fill="#fff"/><path d="M93.681 54.549h-3.557v3.557h3.558V54.55Z" fill="#000"/><path d="M97.24 54.549h-3.558v3.557h3.557V54.55Z" fill="#fff"/><path d="M100.797 54.549h-3.558v3.557h3.558V54.55Z" fill="#000"/><path d="M104.354 54.549h-3.557v3.557h3.557V54.55Z" fill="#fff"/><path d="M107.911 54.549h-3.557v3.557h3.557V54.55Z" fill="#000"/><path d="M111.469 54.549h-3.558v3.557h3.558V54.55ZM115.026 54.549h-3.557v3.557h3.557V54.55ZM118.584 54.549h-3.558v3.557h3.558V54.55ZM122.142 54.549h-3.558v3.557h3.558V54.55ZM125.699 54.549h-3.557v3.557h3.557V54.55ZM11.858 58.106H8.301v3.558h3.557v-3.558Z" fill="#fff"/><path d="M15.416 58.106h-3.558v3.558h3.558v-3.558Z" fill="#000"/><path d="M18.974 58.106h-3.558v3.558h3.558v-3.558Z" fill="#fff"/><path d="M22.531 58.106h-3.557v3.558h3.557v-3.558Z" fill="#000"/><path d="M26.089 58.106H22.53v3.557h3.558v-3.557ZM29.646 58.106H26.09v3.557h3.557v-3.557Z" fill="#000"/><path d="M33.204 58.106h-3.558v3.557h3.558v-3.557Z" fill="#000"/><path d="M36.76 58.106h-3.557v3.557h3.558v-3.557Z" fill="#fff"/><path d="M40.318 58.106h-3.557v3.557h3.557v-3.557ZM43.876 58.106h-3.558v3.558h3.558v-3.558ZM47.434 58.106h-3.558v3.558h3.558v-3.558Z" fill="#000"/><path d="M50.991 58.106h-3.557v3.558h3.557v-3.558Z" fill="#fff"/><path d="M54.549 58.106H50.99v3.558h3.558v-3.558ZM58.106 58.106H54.55v3.558h3.557v-3.558Z" fill="#fff"/><path d="M61.664 58.106h-3.558v3.557h3.558v-3.557Z" fill="#fff"/><path d="M65.222 58.106h-3.558v3.557h3.558v-3.557Z" fill="#fff"/><path d="M68.78 58.106h-3.558v3.557h3.557v-3.557Z" fill="#000"/><path d="M72.336 58.106h-3.558v3.557h3.558v-3.557Z" fill="#fff"/><path d="M75.894 58.106h-3.558v3.557h3.558v-3.557Z" fill="#000"/><path d="M79.451 58.106h-3.557v3.557h3.557v-3.557Z" fill="#fff"/><path d="M83.009 58.106H79.45v3.558h3.558v-3.558Z" fill="#000"/><path d="M86.566 58.106H83.01v3.558h3.557v-3.558Z" fill="#fff"/><path d="M90.124 58.106h-3.558v3.558h3.558v-3.558Z" fill="#fff"/><path d="M93.681 58.106h-3.557v3.558h3.558v-3.558Z" fill="#000"/><path d="M97.24 58.106h-3.558v3.558h3.557v-3.558Z" fill="#fff"/><path d="M100.797 58.106h-3.558v3.557h3.558v-3.557ZM104.354 58.106h-3.557v3.557h3.557v-3.557Z" fill="#fff"/><path d="M107.911 58.106h-3.557v3.557h3.557v-3.557ZM111.469 58.106h-3.558v3.557h3.558v-3.557ZM115.026 58.106h-3.557v3.557h3.557v-3.557ZM118.584 58.106h-3.558v3.558h3.558v-3.558ZM122.142 58.106h-3.558v3.558h3.558v-3.558Z" fill="#000"/><path d="M125.699 58.106h-3.557v3.558h3.557v-3.558Z" fill="#fff"/><path d="M11.858 61.664H8.301v3.557h3.557v-3.557Z" fill="#000"/><path d="M15.416 61.664h-3.558v3.557h3.558v-3.557Z" fill="#fff"/><path d="M18.974 61.664h-3.558v3.557h3.558v-3.557Z" fill="#000"/><path d="M22.531 61.664h-3.557v3.557h3.557v-3.557Z" fill="#fff"/><path d="M26.089 61.664H22.53v3.557h3.558v-3.557ZM29.646 61.664H26.09v3.557h3.557v-3.557Z" fill="#fff"/><path d="M33.204 61.664h-3.558v3.557h3.558v-3.557Z" fill="#fff"/><path d="M36.76 61.664h-3.557v3.557h3.558v-3.557Z" fill="#000"/><path d="M40.318 61.664h-3.557v3.557h3.557v-3.557Z" fill="#fff"/><path d="M43.876 61.664h-3.558v3.557h3.558v-3.557Z" fill="#000"/><path d="M47.434 61.664h-3.558v3.557h3.558v-3.557ZM50.991 61.664h-3.557v3.557h3.557v-3.557Z" fill="#fff"/><path d="M54.549 61.664H50.99v3.557h3.558v-3.557Z" fill="#000"/><path d="M58.106 61.664H54.55v3.557h3.557v-3.557Z" fill="#fff"/><path d="M61.664 61.664h-3.558v3.557h3.558v-3.557Z" fill="#000"/><path d="M65.222 61.664h-3.558v3.557h3.558v-3.557ZM68.78 61.664h-3.558v3.557h3.557v-3.557Z" fill="#fff"/><path d="M72.336 61.664h-3.558v3.557h3.558v-3.557Z" fill="#000"/><path d="M75.894 61.664h-3.558v3.557h3.558v-3.557Z" fill="#fff"/><path d="M79.451 61.664h-3.557v3.557h3.557v-3.557Z" fill="#fff"/><path d="M83.009 61.664H79.45v3.557h3.558v-3.557ZM86.566 61.664H83.01v3.557h3.557v-3.557Z" fill="#000"/><path d="M90.124 61.664h-3.558v3.557h3.558v-3.557Z" fill="#fff"/><path d="M93.681 61.664h-3.557v3.557h3.558v-3.557ZM97.24 61.664h-3.558v3.557h3.557v-3.557Z" fill="#000"/><path d="M100.797 61.664h-3.558v3.557h3.558v-3.557Z" fill="#000"/><path d="M104.354 61.664h-3.557v3.557h3.557v-3.557ZM107.911 61.664h-3.557v3.557h3.557v-3.557Z" fill="#fff"/><path d="M111.469 61.664h-3.558v3.557h3.558v-3.557ZM115.026 61.664h-3.557v3.557h3.557v-3.557Z" fill="#000"/><path d="M118.584 61.664h-3.558v3.557h3.558v-3.557ZM122.142 61.664h-3.558v3.557h3.558v-3.557ZM125.699 61.664h-3.557v3.557h3.557v-3.557Z" fill="#fff"/><path d="M11.858 65.221H8.301v3.558h3.557V65.22Z" fill="#000"/><path d="M15.416 65.221h-3.558v3.558h3.558V65.22Z" fill="#fff"/><path d="M18.974 65.221h-3.558v3.558h3.558V65.22ZM22.531 65.221h-3.557v3.558h3.557V65.22Z" fill="#000"/><path d="M26.089 65.221H22.53v3.558h3.558V65.22Z" fill="#000"/><path d="M29.646 65.221H26.09v3.558h3.557V65.22Z" fill="#fff"/><path d="M33.204 65.221h-3.558v3.558h3.558V65.22Z" fill="#000"/><path d="M36.76 65.221h-3.557v3.558h3.558V65.22ZM40.318 65.221h-3.557v3.558h3.557V65.22Z" fill="#000"/><path d="M43.876 65.221h-3.558v3.558h3.558V65.22ZM47.434 65.221h-3.558v3.558h3.558V65.22Z" fill="#fff"/><path d="M50.991 65.221h-3.557v3.558h3.557V65.22Z" fill="#000"/><path d="M54.549 65.221H50.99v3.558h3.558V65.22Z" fill="#fff"/><path d="M58.106 65.221H54.55v3.558h3.557V65.22Z" fill="#000"/><path d="M61.664 65.221h-3.558v3.558h3.558V65.22Z" fill="#000"/><path d="M65.222 65.221h-3.558v3.558h3.558V65.22Z" fill="#000"/><path d="M68.78 65.221h-3.558v3.558h3.557V65.22Z" fill="#fff"/><path d="M72.336 65.221h-3.558v3.558h3.558V65.22ZM75.894 65.221h-3.558v3.558h3.558V65.22Z" fill="#fff"/><path d="M79.451 65.221h-3.557v3.558h3.557V65.22Z" fill="#000"/><path d="M83.009 65.221H79.45v3.558h3.558V65.22Z" fill="#fff"/><path d="M86.566 65.221H83.01v3.558h3.557V65.22Z" fill="#000"/><path d="M90.124 65.221h-3.558v3.558h3.558V65.22ZM93.681 65.221h-3.557v3.558h3.558V65.22ZM97.24 65.221h-3.558v3.558h3.557V65.22Z" fill="#000"/><path d="M100.797 65.221h-3.558v3.558h3.558V65.22Z" fill="#fff"/><path d="M104.354 65.221h-3.557v3.558h3.557V65.22ZM107.911 65.221h-3.557v3.558h3.557V65.22ZM111.469 65.221h-3.558v3.558h3.558V65.22Z" fill="#000"/><path d="M115.026 65.221h-3.557v3.558h3.557V65.22ZM118.584 65.221h-3.558v3.558h3.558V65.22ZM122.142 65.221h-3.558v3.558h3.558V65.22Z" fill="#fff"/><path d="M125.699 65.221h-3.557v3.558h3.557V65.22Z" fill="#000"/><path d="M11.858 68.779H8.301v3.557h3.557V68.78Z" fill="#fff"/><path d="M15.416 68.779h-3.558v3.557h3.558V68.78Z" fill="#000"/><path d="M18.974 68.779h-3.558v3.557h3.558V68.78ZM22.531 68.779h-3.557v3.557h3.557V68.78Z" fill="#fff"/><path d="M26.089 68.779H22.53v3.557h3.558V68.78ZM29.646 68.779H26.09v3.557h3.557V68.78Z" fill="#000"/><path d="M33.204 68.779h-3.558v3.557h3.558V68.78Z" fill="#fff"/><path d="M36.76 68.779h-3.557v3.557h3.558V68.78Z" fill="#000"/><path d="M40.318 68.779h-3.557v3.557h3.557V68.78ZM43.876 68.779h-3.558v3.557h3.558V68.78Z" fill="#fff"/><path d="M47.434 68.779h-3.558v3.557h3.558V68.78Z" fill="#000"/><path d="M50.991 68.779h-3.557v3.557h3.557V68.78Z" fill="#fff"/><path d="M54.549 68.779H50.99v3.557h3.558V68.78Z" fill="#000"/><path d="M58.106 68.779H54.55v3.557h3.557V68.78Z" fill="#fff"/><path d="M61.664 68.779h-3.558v3.557h3.558V68.78Z" fill="#fff"/><path d="M65.222 68.779h-3.558v3.557h3.558V68.78ZM68.78 68.779h-3.558v3.557h3.557V68.78Z" fill="#fff"/><path d="M72.336 68.779h-3.558v3.557h3.558V68.78Z" fill="#000"/><path d="M75.894 68.779h-3.558v3.557h3.558V68.78Z" fill="#fff"/><path d="M79.451 68.779h-3.557v3.557h3.557V68.78Z" fill="#fff"/><path d="M83.009 68.779H79.45v3.557h3.558V68.78Z" fill="#000"/><path d="M86.566 68.779H83.01v3.557h3.557V68.78Z" fill="#fff"/><path d="M90.124 68.779h-3.558v3.557h3.558V68.78ZM93.681 68.779h-3.557v3.557h3.558V68.78Z" fill="#000"/><path d="M97.24 68.779h-3.558v3.557h3.557V68.78Z" fill="#fff"/><path d="M100.797 68.779h-3.558v3.557h3.558V68.78ZM104.354 68.779h-3.557v3.557h3.557V68.78Z" fill="#fff"/><path d="M107.911 68.779h-3.557v3.557h3.557V68.78Z" fill="#000"/><path d="M111.469 68.779h-3.558v3.557h3.558V68.78Z" fill="#fff"/><path d="M115.026 68.779h-3.557v3.557h3.557V68.78Z" fill="#000"/><path d="M118.584 68.779h-3.558v3.557h3.558V68.78ZM122.142 68.779h-3.558v3.557h3.558V68.78ZM125.699 68.779h-3.557v3.557h3.557V68.78Z" fill="#fff"/><path d="M11.858 72.336H8.301v3.558h3.557v-3.558ZM15.416 72.336h-3.558v3.558h3.558v-3.558Z" fill="#000"/><path d="M18.974 72.336h-3.558v3.558h3.558v-3.558Z" fill="#fff"/><path d="M22.531 72.336h-3.557v3.558h3.557v-3.558Z" fill="#000"/><path d="M26.089 72.336H22.53v3.558h3.558v-3.558Z" fill="#000"/><path d="M29.646 72.336H26.09v3.558h3.557v-3.558Z" fill="#fff"/><path d="M33.204 72.336h-3.558v3.558h3.558v-3.558Z" fill="#000"/><path d="M36.76 72.336h-3.557v3.558h3.558v-3.558ZM40.318 72.336h-3.557v3.558h3.557v-3.558ZM43.876 72.336h-3.558v3.558h3.558v-3.558ZM47.434 72.336h-3.558v3.558h3.558v-3.558ZM50.991 72.336h-3.557v3.558h3.557v-3.558Z" fill="#000"/><path d="M54.549 72.336H50.99v3.558h3.558v-3.558ZM58.106 72.336H54.55v3.558h3.557v-3.558Z" fill="#000"/><path d="M61.664 72.336h-3.558v3.558h3.558v-3.558Z" fill="#000"/><path d="M65.222 72.336h-3.558v3.558h3.558v-3.558Z" fill="#000"/><path d="M68.78 72.336h-3.558v3.558h3.557v-3.558Z" fill="#fff"/><path d="M72.336 72.336h-3.558v3.558h3.558v-3.558Z" fill="#fff"/><path d="M75.894 72.336h-3.558v3.558h3.558v-3.558Z" fill="#000"/><path d="M79.451 72.336h-3.557v3.558h3.557v-3.558Z" fill="#fff"/><path d="M83.009 72.336H79.45v3.558h3.558v-3.558ZM86.566 72.336H83.01v3.558h3.557v-3.558Z" fill="#000"/><path d="M90.124 72.336h-3.558v3.558h3.558v-3.558Z" fill="#fff"/><path d="M93.681 72.336h-3.557v3.558h3.558v-3.558ZM97.24 72.336h-3.558v3.558h3.557v-3.558Z" fill="#000"/><path d="M100.797 72.336h-3.558v3.558h3.558v-3.558ZM104.354 72.336h-3.557v3.558h3.557v-3.558ZM107.911 72.336h-3.557v3.558h3.557v-3.558ZM111.469 72.336h-3.558v3.558h3.558v-3.558ZM115.026 72.336h-3.557v3.558h3.557v-3.558Z" fill="#fff"/><path d="M118.584 72.336h-3.558v3.558h3.558v-3.558ZM122.142 72.336h-3.558v3.558h3.558v-3.558Z" fill="#000"/><path d="M125.699 72.336h-3.557v3.558h3.557v-3.558ZM11.858 75.894H8.301v3.557h3.557v-3.557ZM15.416 75.894h-3.558v3.557h3.558v-3.557Z" fill="#fff"/><path d="M18.974 75.894h-3.558v3.557h3.558v-3.557ZM22.531 75.894h-3.557v3.557h3.557v-3.557Z" fill="#000"/><path d="M26.089 75.894H22.53v3.558h3.558v-3.558ZM29.646 75.894H26.09v3.558h3.557v-3.558Z" fill="#000"/><path d="M33.204 75.894h-3.558v3.558h3.558v-3.558Z" fill="#fff"/><path d="M36.76 75.894h-3.557v3.558h3.558v-3.558Z" fill="#000"/><path d="M40.318 75.894h-3.557v3.558h3.557v-3.558ZM43.876 75.894h-3.558v3.557h3.558v-3.557ZM47.434 75.894h-3.558v3.557h3.558v-3.557Z" fill="#fff"/><path d="M50.991 75.894h-3.557v3.557h3.557v-3.557Z" fill="#000"/><path d="M54.549 75.894H50.99v3.557h3.558v-3.557Z" fill="#fff"/><path d="M58.106 75.894H54.55v3.557h3.557v-3.557Z" fill="#000"/><path d="M61.664 75.894h-3.558v3.558h3.558v-3.558Z" fill="#fff"/><path d="M65.222 75.894h-3.558v3.558h3.558v-3.558Z" fill="#000"/><path d="M68.78 75.894h-3.558v3.558h3.557v-3.558Z" fill="#fff"/><path d="M72.336 75.894h-3.558v3.558h3.558v-3.558ZM75.894 75.894h-3.558v3.558h3.558v-3.558Z" fill="#000"/><path d="M79.451 75.894h-3.557v3.558h3.557v-3.558Z" fill="#fff"/><path d="M83.009 75.894H79.45v3.557h3.558v-3.557Z" fill="#fff"/><path d="M86.566 75.894H83.01v3.557h3.557v-3.557Z" fill="#000"/><path d="M90.124 75.894h-3.558v3.557h3.558v-3.557ZM93.681 75.894h-3.557v3.557h3.558v-3.557ZM97.24 75.894h-3.558v3.557h3.557v-3.557Z" fill="#000"/><path d="M100.797 75.894h-3.558v3.558h3.558v-3.558ZM104.354 75.894h-3.557v3.558h3.557v-3.558Z" fill="#fff"/><path d="M107.911 75.894h-3.557v3.558h3.557v-3.558ZM111.469 75.894h-3.558v3.558h3.558v-3.558ZM115.026 75.894h-3.557v3.558h3.557v-3.558Z" fill="#000"/><path d="M118.584 75.894h-3.558v3.557h3.558v-3.557ZM122.142 75.894h-3.558v3.557h3.558v-3.557ZM125.699 75.894h-3.557v3.557h3.557v-3.557ZM11.858 79.451H8.301v3.558h3.557V79.45ZM15.416 79.451h-3.558v3.558h3.558V79.45Z" fill="#fff"/><path d="M18.974 79.451h-3.558v3.558h3.558V79.45Z" fill="#000"/><path d="M22.531 79.451h-3.557v3.558h3.557V79.45Z" fill="#fff"/><path d="M26.089 79.451H22.53v3.558h3.558V79.45ZM29.646 79.451H26.09v3.558h3.557V79.45Z" fill="#000"/><path d="M33.204 79.451h-3.558v3.558h3.558V79.45Z" fill="#000"/><path d="M36.76 79.451h-3.557v3.558h3.558V79.45Z" fill="#fff"/><path d="M40.318 79.451h-3.557v3.558h3.557V79.45ZM43.876 79.451h-3.558v3.558h3.558V79.45ZM47.434 79.451h-3.558v3.558h3.558V79.45Z" fill="#000"/><path d="M50.991 79.451h-3.557v3.558h3.557V79.45Z" fill="#fff"/><path d="M54.549 79.451H50.99v3.558h3.558V79.45ZM58.106 79.451H54.55v3.558h3.557V79.45Z" fill="#000"/><path d="M61.664 79.451h-3.558v3.558h3.558V79.45Z" fill="#fff"/><path d="M65.222 79.451h-3.558v3.558h3.558V79.45ZM68.78 79.451h-3.558v3.558h3.557V79.45Z" fill="#fff"/><path d="M72.336 79.451h-3.558v3.558h3.558V79.45Z" fill="#000"/><path d="M75.894 79.451h-3.558v3.558h3.558V79.45Z" fill="#fff"/><path d="M79.451 79.451h-3.557v3.558h3.557V79.45Z" fill="#000"/><path d="M83.009 79.451H79.45v3.558h3.558V79.45Z" fill="#fff"/><path d="M86.566 79.451H83.01v3.558h3.557V79.45Z" fill="#000"/><path d="M90.124 79.451h-3.558v3.558h3.558V79.45Z" fill="#000"/><path d="M93.681 79.451h-3.557v3.558h3.558V79.45Z" fill="#fff"/><path d="M97.24 79.451h-3.558v3.558h3.557V79.45Z" fill="#000"/><path d="M100.797 79.451h-3.558v3.558h3.558V79.45Z" fill="#fff"/><path d="M104.354 79.451h-3.557v3.558h3.557V79.45Z" fill="#000"/><path d="M107.911 79.451h-3.557v3.558h3.557V79.45Z" fill="#fff"/><path d="M111.469 79.451h-3.558v3.558h3.558V79.45Z" fill="#000"/><path d="M115.026 79.451h-3.557v3.558h3.557V79.45ZM118.584 79.451h-3.558v3.558h3.558V79.45ZM122.142 79.451h-3.558v3.558h3.558V79.45Z" fill="#fff"/><path d="M125.699 79.451h-3.557v3.558h3.557V79.45ZM11.858 83.009H8.301v3.557h3.557V83.01Z" fill="#000"/><path d="M15.416 83.009h-3.558v3.557h3.558V83.01ZM18.974 83.009h-3.558v3.557h3.558V83.01Z" fill="#fff"/><path d="M22.531 83.009h-3.557v3.557h3.557V83.01Z" fill="#000"/><path d="M26.089 83.009H22.53v3.557h3.558V83.01Z" fill="#fff"/><path d="M29.646 83.009H26.09v3.557h3.557V83.01Z" fill="#000"/><path d="M33.204 83.009h-3.558v3.557h3.558V83.01Z" fill="#fff"/><path d="M36.76 83.009h-3.557v3.557h3.558V83.01Z" fill="#000"/><path d="M40.318 83.009h-3.557v3.557h3.557V83.01Z" fill="#fff"/><path d="M43.876 83.009h-3.558v3.557h3.558V83.01ZM47.434 83.009h-3.558v3.557h3.558V83.01Z" fill="#000"/><path d="M50.991 83.009h-3.557v3.557h3.557V83.01Z" fill="#fff"/><path d="M54.549 83.009H50.99v3.557h3.558V83.01Z" fill="#fff"/><path d="M58.106 83.009H54.55v3.557h3.557V83.01Z" fill="#000"/><path d="M61.664 83.009h-3.558v3.557h3.558V83.01Z" fill="#000"/><path d="M65.222 83.009h-3.558v3.557h3.558V83.01ZM68.78 83.009h-3.558v3.557h3.557V83.01Z" fill="#000"/><path d="M72.336 83.009h-3.558v3.557h3.558V83.01ZM75.894 83.009h-3.558v3.557h3.558V83.01Z" fill="#fff"/><path d="M79.451 83.009h-3.557v3.557h3.557V83.01Z" fill="#fff"/><path d="M83.009 83.009H79.45v3.557h3.558V83.01Z" fill="#000"/><path d="M86.566 83.009H83.01v3.557h3.557V83.01Z" fill="#fff"/><path d="M90.124 83.009h-3.558v3.557h3.558V83.01ZM93.681 83.009h-3.557v3.557h3.558V83.01Z" fill="#000"/><path d="M97.24 83.009h-3.558v3.557h3.557V83.01Z" fill="#fff"/><path d="M100.797 83.009h-3.558v3.557h3.558V83.01ZM104.354 83.009h-3.557v3.557h3.557V83.01Z" fill="#fff"/><path d="M107.911 83.009h-3.557v3.557h3.557V83.01Z" fill="#000"/><path d="M111.469 83.009h-3.558v3.557h3.558V83.01Z" fill="#fff"/><path d="M115.026 83.009h-3.557v3.557h3.557V83.01Z" fill="#000"/><path d="M118.584 83.009h-3.558v3.557h3.558V83.01ZM122.142 83.009h-3.558v3.557h3.558V83.01ZM125.699 83.009h-3.557v3.557h3.557V83.01ZM11.858 86.566H8.301v3.558h3.557v-3.558ZM15.416 86.566h-3.558v3.558h3.558v-3.558ZM18.974 86.566h-3.558v3.558h3.558v-3.558Z" fill="#fff"/><path d="M22.531 86.566h-3.557v3.558h3.557v-3.558Z" fill="#000"/><path d="M26.089 86.566H22.53v3.558h3.558v-3.558Z" fill="#000"/><path d="M29.646 86.566H26.09v3.558h3.557v-3.558Z" fill="#fff"/><path d="M33.204 86.566h-3.558v3.558h3.558v-3.558Z" fill="#000"/><path d="M36.76 86.566h-3.557v3.558h3.558v-3.558ZM40.318 86.566h-3.557v3.558h3.557v-3.558ZM43.876 86.566h-3.558v3.558h3.558v-3.558Z" fill="#000"/><path d="M47.434 86.566h-3.558v3.558h3.558v-3.558ZM50.991 86.566h-3.557v3.558h3.557v-3.558Z" fill="#fff"/><path d="M54.549 86.566H50.99v3.558h3.558v-3.558ZM58.106 86.566H54.55v3.558h3.557v-3.558Z" fill="#fff"/><path d="M61.664 86.566h-3.558v3.558h3.558v-3.558Z" fill="#fff"/><path d="M65.222 86.566h-3.558v3.558h3.558v-3.558Z" fill="#000"/><path d="M68.78 86.566h-3.558v3.558h3.557v-3.558Z" fill="#fff"/><path d="M72.336 86.566h-3.558v3.558h3.558v-3.558Z" fill="#000"/><path d="M75.894 86.566h-3.558v3.558h3.558v-3.558Z" fill="#fff"/><path d="M79.451 86.566h-3.557v3.558h3.557v-3.558Z" fill="#fff"/><path d="M83.009 86.566H79.45v3.558h3.558v-3.558ZM86.566 86.566H83.01v3.558h3.557v-3.558Z" fill="#fff"/><path d="M90.124 86.566h-3.558v3.558h3.558v-3.558Z" fill="#fff"/><path d="M93.681 86.566h-3.557v3.558h3.558v-3.558Z" fill="#000"/><path d="M97.24 86.566h-3.558v3.558h3.557v-3.558Z" fill="#fff"/><path d="M100.797 86.566h-3.558v3.558h3.558v-3.558ZM104.354 86.566h-3.557v3.558h3.557v-3.558ZM107.911 86.566h-3.557v3.558h3.557v-3.558Z" fill="#fff"/><path d="M111.469 86.566h-3.558v3.558h3.558v-3.558Z" fill="#000"/><path d="M115.026 86.566h-3.557v3.558h3.557v-3.558Z" fill="#fff"/><path d="M118.584 86.566h-3.558v3.558h3.558v-3.558ZM122.142 86.566h-3.558v3.558h3.558v-3.558Z" fill="#000"/><path d="M125.699 86.566h-3.557v3.558h3.557v-3.558ZM11.858 90.124H8.301v3.557h3.557v-3.557ZM15.416 90.124h-3.558v3.557h3.558v-3.557Z" fill="#fff"/><path d="M18.974 90.124h-3.558v3.557h3.558v-3.557ZM22.531 90.124h-3.557v3.557h3.557v-3.557Z" fill="#000"/><path d="M26.089 90.124H22.53v3.558h3.558v-3.558ZM29.646 90.124H26.09v3.558h3.557v-3.558Z" fill="#fff"/><path d="M33.204 90.124h-3.558v3.558h3.558v-3.558Z" fill="#fff"/><path d="M36.76 90.124h-3.557v3.558h3.558v-3.558ZM40.318 90.124h-3.557v3.558h3.557v-3.558ZM43.876 90.124h-3.558v3.557h3.558v-3.557Z" fill="#000"/><path d="M47.434 90.124h-3.558v3.557h3.558v-3.557ZM50.991 90.124h-3.557v3.557h3.557v-3.557Z" fill="#fff"/><path d="M54.549 90.124H50.99v3.557h3.558v-3.557Z" fill="#000"/><path d="M58.106 90.124H54.55v3.557h3.557v-3.557Z" fill="#fff"/><path d="M61.664 90.124h-3.558v3.558h3.558v-3.558Z" fill="#000"/><path d="M65.222 90.124h-3.558v3.558h3.558v-3.558Z" fill="#000"/><path d="M68.78 90.124h-3.558v3.558h3.557v-3.558Z" fill="#fff"/><path d="M72.336 90.124h-3.558v3.558h3.558v-3.558ZM75.894 90.124h-3.558v3.558h3.558v-3.558Z" fill="#000"/><path d="M79.451 90.124h-3.557v3.558h3.557v-3.558Z" fill="#000"/><path d="M83.009 90.124H79.45v3.557h3.558v-3.557ZM86.566 90.124H83.01v3.557h3.557v-3.557Z" fill="#000"/><path d="M90.124 90.124h-3.558v3.557h3.558v-3.557ZM93.681 90.124h-3.557v3.557h3.558v-3.557Z" fill="#fff"/><path d="M97.24 90.124h-3.558v3.557h3.557v-3.557Z" fill="#000"/><path d="M100.797 90.124h-3.558v3.558h3.558v-3.558ZM104.354 90.124h-3.557v3.558h3.557v-3.558ZM107.911 90.124h-3.557v3.558h3.557v-3.558Z" fill="#fff"/><path d="M111.469 90.124h-3.558v3.558h3.558v-3.558Z" fill="#000"/><path d="M115.026 90.124h-3.557v3.558h3.557v-3.558ZM118.584 90.124h-3.558v3.557h3.558v-3.557ZM122.142 90.124h-3.558v3.557h3.558v-3.557ZM125.699 90.124h-3.557v3.557h3.557v-3.557Z" fill="#fff"/><path d="M11.858 93.681H8.301v3.558h3.557V93.68ZM15.416 93.681h-3.558v3.558h3.558V93.68Z" fill="#000"/><path d="M18.974 93.681h-3.558v3.558h3.558V93.68ZM22.531 93.681h-3.557v3.558h3.557V93.68Z" fill="#fff"/><path d="M26.089 93.682H22.53v3.557h3.558v-3.557Z" fill="#fff"/><path d="M29.646 93.682H26.09v3.557h3.557v-3.557Z" fill="#000"/><path d="M33.204 93.682h-3.558v3.557h3.558v-3.557Z" fill="#000"/><path d="M36.76 93.682h-3.557v3.557h3.558v-3.557Z" fill="#000"/><path d="M40.318 93.682h-3.557v3.557h3.557v-3.557Z" fill="#fff"/><path d="M43.876 93.681h-3.558v3.558h3.558V93.68ZM47.434 93.681h-3.558v3.558h3.558V93.68ZM50.991 93.681h-3.557v3.558h3.557V93.68Z" fill="#000"/><path d="M54.549 93.681H50.99v3.558h3.558V93.68Z" fill="#fff"/><path d="M58.106 93.681H54.55v3.558h3.557V93.68Z" fill="#000"/><path d="M61.664 93.682h-3.558v3.557h3.558v-3.557Z" fill="#000"/><path d="M65.222 93.682h-3.558v3.557h3.558v-3.557Z" fill="#fff"/><path d="M68.78 93.682h-3.558v3.557h3.557v-3.557Z" fill="#000"/><path d="M72.336 93.682h-3.558v3.557h3.558v-3.557Z" fill="#000"/><path d="M75.894 93.682h-3.558v3.557h3.558v-3.557Z" fill="#fff"/><path d="M79.451 93.682h-3.557v3.557h3.557v-3.557Z" fill="#000"/><path d="M83.009 93.681H79.45v3.558h3.558V93.68Z" fill="#fff"/><path d="M86.566 93.681H83.01v3.558h3.557V93.68Z" fill="#000"/><path d="M90.124 93.681h-3.558v3.558h3.558V93.68ZM93.681 93.681h-3.557v3.558h3.558V93.68ZM97.24 93.681h-3.558v3.558h3.557V93.68Z" fill="#000"/><path d="M100.797 93.682h-3.558v3.557h3.558v-3.557ZM104.354 93.682h-3.557v3.557h3.557v-3.557ZM107.911 93.682h-3.557v3.557h3.557v-3.557ZM111.469 93.682h-3.558v3.557h3.558v-3.557Z" fill="#000"/><path d="M115.026 93.682h-3.557v3.557h3.557v-3.557ZM118.584 93.681h-3.558v3.558h3.558V93.68Z" fill="#fff"/><path d="M122.142 93.681h-3.558v3.558h3.558V93.68Z" fill="#000"/><path d="M125.699 93.681h-3.557v3.558h3.557V93.68ZM11.858 97.239H8.301v3.558h3.557v-3.558ZM15.416 97.239h-3.558v3.558h3.558v-3.558ZM18.974 97.239h-3.558v3.558h3.558v-3.558ZM22.531 97.239h-3.557v3.558h3.557v-3.558Z" fill="#fff"/><path d="M26.089 97.239H22.53v3.557h3.558v-3.557ZM29.646 97.239H26.09v3.557h3.557v-3.557Z" fill="#fff"/><path d="M33.204 97.239h-3.558v3.557h3.558v-3.557Z" fill="#fff"/><path d="M36.76 97.239h-3.557v3.557h3.558v-3.557Z" fill="#fff"/><path d="M40.318 97.239h-3.557v3.557h3.557v-3.557Z" fill="#000"/><path d="M43.876 97.239h-3.558v3.558h3.558v-3.558ZM47.434 97.239h-3.558v3.558h3.558v-3.558ZM50.991 97.239h-3.557v3.558h3.557v-3.558Z" fill="#fff"/><path d="M54.549 97.239H50.99v3.558h3.558v-3.558Z" fill="#000"/><path d="M58.106 97.239H54.55v3.558h3.557v-3.558Z" fill="#fff"/><path d="M61.664 97.239h-3.558v3.557h3.558v-3.557Z" fill="#fff"/><path d="M65.222 97.239h-3.558v3.557h3.558v-3.557ZM68.78 97.239h-3.558v3.557h3.557v-3.557Z" fill="#000"/><path d="M72.336 97.239h-3.558v3.557h3.558v-3.557ZM75.894 97.239h-3.558v3.557h3.558v-3.557Z" fill="#fff"/><path d="M79.451 97.239h-3.557v3.557h3.557v-3.557Z" fill="#fff"/><path d="M83.009 97.239H79.45v3.558h3.558v-3.558Z" fill="#000"/><path d="M86.566 97.239H83.01v3.558h3.557v-3.558Z" fill="#fff"/><path d="M90.124 97.239h-3.558v3.558h3.558v-3.558Z" fill="#000"/><path d="M93.681 97.239h-3.557v3.558h3.558v-3.558Z" fill="#fff"/><path d="M97.24 97.239h-3.558v3.558h3.557v-3.558Z" fill="#000"/><path d="M100.797 97.239h-3.558v3.557h3.558v-3.557ZM104.354 97.239h-3.557v3.557h3.557v-3.557ZM107.911 97.239h-3.557v3.557h3.557v-3.557Z" fill="#fff"/><path d="M111.469 97.239h-3.558v3.557h3.558v-3.557Z" fill="#000"/><path d="M115.026 97.239h-3.557v3.557h3.557v-3.557ZM118.584 97.239h-3.558v3.558h3.558v-3.558Z" fill="#fff"/><path d="M122.142 97.239h-3.558v3.558h3.558v-3.558Z" fill="#000"/><path d="M125.699 97.239h-3.557v3.558h3.557v-3.558Z" fill="#fff"/><path d="M11.858 100.796H8.301v3.558h3.557v-3.558ZM15.416 100.796h-3.558v3.558h3.558v-3.558ZM18.974 100.796h-3.558v3.558h3.558v-3.558ZM22.531 100.796h-3.557v3.558h3.557v-3.558Z" fill="#000"/><path d="M26.089 100.796H22.53v3.558h3.558v-3.558ZM29.646 100.796H26.09v3.558h3.557v-3.558Z" fill="#000"/><path d="M33.204 100.796h-3.558v3.558h3.558v-3.558Z" fill="#000"/><path d="M36.76 100.796h-3.557v3.558h3.558v-3.558ZM40.318 100.796h-3.557v3.558h3.557v-3.558Z" fill="#fff"/><path d="M43.876 100.796h-3.558v3.558h3.558v-3.558Z" fill="#000"/><path d="M47.434 100.796h-3.558v3.558h3.558v-3.558Z" fill="#fff"/><path d="M50.991 100.796h-3.557v3.558h3.557v-3.558Z" fill="#000"/><path d="M54.549 100.796H50.99v3.558h3.558v-3.558ZM58.106 100.796H54.55v3.558h3.557v-3.558Z" fill="#000"/><path d="M61.664 100.796h-3.558v3.558h3.558v-3.558Z" fill="#000"/><path d="M65.222 100.796h-3.558v3.558h3.558v-3.558ZM68.78 100.796h-3.558v3.558h3.557v-3.558Z" fill="#000"/><path d="M72.336 100.796h-3.558v3.558h3.558v-3.558ZM75.894 100.796h-3.558v3.558h3.558v-3.558Z" fill="#fff"/><path d="M79.451 100.796h-3.557v3.558h3.557v-3.558Z" fill="#fff"/><path d="M83.009 100.796H79.45v3.558h3.558v-3.558Z" fill="#fff"/><path d="M86.566 100.796H83.01v3.558h3.557v-3.558Z" fill="#000"/><path d="M90.124 100.796h-3.558v3.558h3.558v-3.558Z" fill="#000"/><path d="M93.681 100.796h-3.557v3.558h3.558v-3.558Z" fill="#fff"/><path d="M97.24 100.796h-3.558v3.558h3.557v-3.558Z" fill="#000"/><path d="M100.797 100.796h-3.558v3.558h3.558v-3.558Z" fill="#fff"/><path d="M104.354 100.796h-3.557v3.558h3.557v-3.558Z" fill="#000"/><path d="M107.911 100.796h-3.557v3.558h3.557v-3.558Z" fill="#fff"/><path d="M111.469 100.796h-3.558v3.558h3.558v-3.558ZM115.026 100.796h-3.557v3.558h3.557v-3.558Z" fill="#000"/><path d="M118.584 100.796h-3.558v3.558h3.558v-3.558Z" fill="#fff"/><path d="M122.142 100.796h-3.558v3.558h3.558v-3.558Z" fill="#000"/><path d="M125.699 100.796h-3.557v3.558h3.557v-3.558Z" fill="#fff"/><path d="M11.858 104.354H8.301v3.558h3.557v-3.558Z" fill="#000"/><path d="M15.416 104.354h-3.558v3.558h3.558v-3.558ZM18.974 104.354h-3.558v3.558h3.558v-3.558ZM22.531 104.354h-3.557v3.558h3.557v-3.558Z" fill="#fff"/><path d="M26.089 104.354H22.53v3.558h3.558v-3.558ZM29.646 104.354H26.09v3.558h3.557v-3.558Z" fill="#fff"/><path d="M33.204 104.354h-3.558v3.558h3.558v-3.558Z" fill="#000"/><path d="M36.76 104.354h-3.557v3.558h3.558v-3.558Z" fill="#fff"/><path d="M40.318 104.354h-3.557v3.558h3.557v-3.558Z" fill="#000"/><path d="M43.876 104.354h-3.558v3.558h3.558v-3.558ZM47.434 104.354h-3.558v3.558h3.558v-3.558Z" fill="#fff"/><path d="M50.991 104.354h-3.557v3.558h3.557v-3.558Z" fill="#000"/><path d="M54.549 104.354H50.99v3.558h3.558v-3.558Z" fill="#fff"/><path d="M58.106 104.354H54.55v3.558h3.557v-3.558Z" fill="#000"/><path d="M61.664 104.354h-3.558v3.558h3.558v-3.558Z" fill="#fff"/><path d="M65.222 104.354h-3.558v3.558h3.558v-3.558Z" fill="#fff"/><path d="M68.78 104.354h-3.558v3.558h3.557v-3.558Z" fill="#000"/><path d="M72.336 104.354h-3.558v3.558h3.558v-3.558Z" fill="#000"/><path d="M75.894 104.354h-3.558v3.558h3.558v-3.558Z" fill="#fff"/><path d="M79.451 104.354h-3.557v3.558h3.557v-3.558Z" fill="#000"/><path d="M83.009 104.354H79.45v3.558h3.558v-3.558Z" fill="#fff"/><path d="M86.566 104.354H83.01v3.558h3.557v-3.558Z" fill="#000"/><path d="M90.124 104.354h-3.558v3.558h3.558v-3.558Z" fill="#000"/><path d="M93.681 104.354h-3.557v3.558h3.558v-3.558Z" fill="#fff"/><path d="M97.24 104.354h-3.558v3.558h3.557v-3.558Z" fill="#000"/><path d="M100.797 104.354h-3.558v3.558h3.558v-3.558ZM104.354 104.354h-3.557v3.558h3.557v-3.558ZM107.911 104.354h-3.557v3.558h3.557v-3.558Z" fill="#fff"/><path d="M111.469 104.354h-3.558v3.558h3.558v-3.558Z" fill="#000"/><path d="M115.026 104.354h-3.557v3.558h3.557v-3.558ZM118.584 104.354h-3.558v3.558h3.558v-3.558Z" fill="#fff"/><path d="M122.142 104.354h-3.558v3.558h3.558v-3.558ZM125.699 104.354h-3.557v3.558h3.557v-3.558ZM11.858 107.912H8.301v3.557h3.557v-3.557Z" fill="#000"/><path d="M15.416 107.912h-3.558v3.557h3.558v-3.557Z" fill="#fff"/><path d="M18.974 107.912h-3.558v3.557h3.558v-3.557ZM22.531 107.912h-3.557v3.557h3.557v-3.557Z" fill="#000"/><path d="M26.089 107.912H22.53v3.557h3.558v-3.557Z" fill="#000"/><path d="M29.646 107.912H26.09v3.557h3.557v-3.557Z" fill="#fff"/><path d="M33.204 107.912h-3.558v3.557h3.558v-3.557Z" fill="#000"/><path d="M36.76 107.912h-3.557v3.557h3.558v-3.557Z" fill="#fff"/><path d="M40.318 107.912h-3.557v3.557h3.557v-3.557ZM43.876 107.912h-3.558v3.557h3.558v-3.557ZM47.434 107.912h-3.558v3.557h3.558v-3.557Z" fill="#000"/><path d="M50.991 107.912h-3.557v3.557h3.557v-3.557Z" fill="#fff"/><path d="M54.549 107.912H50.99v3.557h3.558v-3.557ZM58.106 107.912H54.55v3.557h3.557v-3.557Z" fill="#000"/><path d="M61.664 107.912h-3.558v3.557h3.558v-3.557Z" fill="#fff"/><path d="M65.222 107.912h-3.558v3.557h3.558v-3.557Z" fill="#fff"/><path d="M68.78 107.912h-3.558v3.557h3.557v-3.557Z" fill="#000"/><path d="M72.336 107.912h-3.558v3.557h3.558v-3.557ZM75.894 107.912h-3.558v3.557h3.558v-3.557Z" fill="#000"/><path d="M79.451 107.912h-3.557v3.557h3.557v-3.557Z" fill="#000"/><path d="M83.009 107.912H79.45v3.557h3.558v-3.557Z" fill="#000"/><path d="M86.566 107.912H83.01v3.557h3.557v-3.557Z" fill="#fff"/><path d="M90.124 107.912h-3.558v3.557h3.558v-3.557Z" fill="#000"/><path d="M93.681 107.912h-3.557v3.557h3.558v-3.557Z" fill="#fff"/><path d="M97.24 107.912h-3.558v3.557h3.557v-3.557Z" fill="#000"/><path d="M100.797 107.912h-3.558v3.557h3.558v-3.557ZM104.354 107.912h-3.557v3.557h3.557v-3.557ZM107.911 107.912h-3.557v3.557h3.557v-3.557ZM111.469 107.912h-3.558v3.557h3.558v-3.557Z" fill="#000"/><path d="M115.026 107.912h-3.557v3.557h3.557v-3.557ZM118.584 107.912h-3.558v3.557h3.558v-3.557ZM122.142 107.912h-3.558v3.557h3.558v-3.557Z" fill="#fff"/><path d="M125.699 107.912h-3.557v3.557h3.557v-3.557ZM11.858 111.469H8.301v3.558h3.557v-3.558Z" fill="#000"/><path d="M15.416 111.469h-3.558v3.558h3.558v-3.558Z" fill="#fff"/><path d="M18.974 111.469h-3.558v3.558h3.558v-3.558ZM22.531 111.469h-3.557v3.558h3.557v-3.558Z" fill="#000"/><path d="M26.089 111.469H22.53v3.558h3.558v-3.558Z" fill="#000"/><path d="M29.646 111.469H26.09v3.558h3.557v-3.558Z" fill="#fff"/><path d="M33.204 111.469h-3.558v3.558h3.558v-3.558Z" fill="#000"/><path d="M36.76 111.469h-3.557v3.558h3.558v-3.558ZM40.318 111.469h-3.557v3.558h3.557v-3.558ZM43.876 111.469h-3.558v3.558h3.558v-3.558Z" fill="#fff"/><path d="M47.434 111.469h-3.558v3.558h3.558v-3.558Z" fill="#000"/><path d="M50.991 111.469h-3.557v3.558h3.557v-3.558Z" fill="#fff"/><path d="M54.549 111.469H50.99v3.558h3.558v-3.558Z" fill="#fff"/><path d="M58.106 111.469H54.55v3.558h3.557v-3.558Z" fill="#000"/><path d="M61.664 111.469h-3.558v3.558h3.558v-3.558Z" fill="#000"/><path d="M65.222 111.469h-3.558v3.558h3.558v-3.558ZM68.78 111.469h-3.558v3.558h3.557v-3.558Z" fill="#000"/><path d="M72.336 111.469h-3.558v3.558h3.558v-3.558Z" fill="#000"/><path d="M75.894 111.469h-3.558v3.558h3.558v-3.558Z" fill="#fff"/><path d="M79.451 111.469h-3.557v3.558h3.557v-3.558Z" fill="#fff"/><path d="M83.009 111.469H79.45v3.558h3.558v-3.558ZM86.566 111.469H83.01v3.558h3.557v-3.558Z" fill="#fff"/><path d="M90.124 111.469h-3.558v3.558h3.558v-3.558ZM93.681 111.469h-3.557v3.558h3.558v-3.558Z" fill="#000"/><path d="M97.24 111.469h-3.558v3.558h3.557v-3.558Z" fill="#fff"/><path d="M100.797 111.469h-3.558v3.558h3.558v-3.558ZM104.354 111.469h-3.557v3.558h3.557v-3.558Z" fill="#000"/><path d="M107.911 111.469h-3.557v3.558h3.557v-3.558Z" fill="#fff"/><path d="M111.469 111.469h-3.558v3.558h3.558v-3.558Z" fill="#000"/><path d="M115.026 111.469h-3.557v3.558h3.557v-3.558ZM118.584 111.469h-3.558v3.558h3.558v-3.558ZM122.142 111.469h-3.558v3.558h3.558v-3.558ZM125.699 111.469h-3.557v3.558h3.557v-3.558Z" fill="#fff"/><path d="M11.858 115.027H8.301v3.557h3.557v-3.557Z" fill="#000"/><path d="M15.416 115.027h-3.558v3.557h3.558v-3.557Z" fill="#fff"/><path d="M18.974 115.027h-3.558v3.557h3.558v-3.557ZM22.531 115.027h-3.557v3.557h3.557v-3.557Z" fill="#000"/><path d="M26.089 115.026H22.53v3.558h3.558v-3.558Z" fill="#000"/><path d="M29.646 115.026H26.09v3.558h3.557v-3.558Z" fill="#fff"/><path d="M33.204 115.026h-3.558v3.558h3.558v-3.558Z" fill="#000"/><path d="M36.76 115.026h-3.557v3.558h3.558v-3.558ZM40.318 115.026h-3.557v3.558h3.557v-3.558Z" fill="#fff"/><path d="M43.876 115.027h-3.558v3.557h3.558v-3.557ZM47.434 115.027h-3.558v3.557h3.558v-3.557Z" fill="#000"/><path d="M50.991 115.027h-3.557v3.557h3.557v-3.557Z" fill="#fff"/><path d="M54.549 115.027H50.99v3.557h3.558v-3.557ZM58.106 115.027H54.55v3.557h3.557v-3.557Z" fill="#fff"/><path d="M61.664 115.026h-3.558v3.558h3.558v-3.558Z" fill="#fff"/><path d="M65.222 115.026h-3.558v3.558h3.558v-3.558ZM68.78 115.026h-3.558v3.558h3.557v-3.558Z" fill="#000"/><path d="M72.336 115.026h-3.558v3.558h3.558v-3.558ZM75.894 115.026h-3.558v3.558h3.558v-3.558Z" fill="#000"/><path d="M79.451 115.026h-3.557v3.558h3.557v-3.558Z" fill="#fff"/><path d="M83.009 115.027H79.45v3.557h3.558v-3.557ZM86.566 115.027H83.01v3.557h3.557v-3.557Z" fill="#000"/><path d="M90.124 115.027h-3.558v3.557h3.558v-3.557Z" fill="#000"/><path d="M93.681 115.027h-3.557v3.557h3.558v-3.557Z" fill="#fff"/><path d="M97.24 115.027h-3.558v3.557h3.557v-3.557Z" fill="#000"/><path d="M100.797 115.026h-3.558v3.558h3.558v-3.558Z" fill="#fff"/><path d="M104.354 115.026h-3.557v3.558h3.557v-3.558Z" fill="#000"/><path d="M107.911 115.026h-3.557v3.558h3.557v-3.558Z" fill="#fff"/><path d="M111.469 115.026h-3.558v3.558h3.558v-3.558Z" fill="#000"/><path d="M115.026 115.026h-3.557v3.558h3.557v-3.558ZM118.584 115.027h-3.558v3.557h3.558v-3.557ZM122.142 115.027h-3.558v3.557h3.558v-3.557ZM125.699 115.027h-3.557v3.557h3.557v-3.557Z" fill="#fff"/><path d="M11.858 118.584H8.301v3.558h3.557v-3.558Z" fill="#000"/><path d="M15.416 118.584h-3.558v3.558h3.558v-3.558ZM18.974 118.584h-3.558v3.558h3.558v-3.558ZM22.531 118.584h-3.557v3.558h3.557v-3.558Z" fill="#fff"/><path d="M26.089 118.584H22.53v3.558h3.558v-3.558ZM29.646 118.584H26.09v3.558h3.557v-3.558Z" fill="#fff"/><path d="M33.204 118.584h-3.558v3.558h3.558v-3.558Z" fill="#000"/><path d="M36.76 118.584h-3.557v3.558h3.558v-3.558Z" fill="#fff"/><path d="M40.318 118.584h-3.557v3.558h3.557v-3.558ZM43.876 118.584h-3.558v3.558h3.558v-3.558Z" fill="#000"/><path d="M47.434 118.584h-3.558v3.558h3.558v-3.558ZM50.991 118.584h-3.557v3.558h3.557v-3.558Z" fill="#fff"/><path d="M54.549 118.584H50.99v3.558h3.558v-3.558Z" fill="#000"/><path d="M58.106 118.584H54.55v3.558h3.557v-3.558Z" fill="#fff"/><path d="M61.664 118.584h-3.558v3.558h3.558v-3.558Z" fill="#000"/><path d="M65.222 118.584h-3.558v3.558h3.558v-3.558Z" fill="#000"/><path d="M68.78 118.584h-3.558v3.558h3.557v-3.558Z" fill="#fff"/><path d="M72.336 118.584h-3.558v3.558h3.558v-3.558ZM75.894 118.584h-3.558v3.558h3.558v-3.558Z" fill="#000"/><path d="M79.451 118.584h-3.557v3.558h3.557v-3.558Z" fill="#000"/><path d="M83.009 118.584H79.45v3.558h3.558v-3.558ZM86.566 118.584H83.01v3.558h3.557v-3.558Z" fill="#000"/><path d="M90.124 118.584h-3.558v3.558h3.558v-3.558Z" fill="#fff"/><path d="M93.681 118.584h-3.557v3.558h3.558v-3.558ZM97.24 118.584h-3.558v3.558h3.557v-3.558Z" fill="#000"/><path d="M100.797 118.584h-3.558v3.558h3.558v-3.558ZM104.354 118.584h-3.557v3.558h3.557v-3.558ZM107.911 118.584h-3.557v3.558h3.557v-3.558Z" fill="#000"/><path d="M111.469 118.584h-3.558v3.558h3.558v-3.558ZM115.026 118.584h-3.557v3.558h3.557v-3.558ZM118.584 118.584h-3.558v3.558h3.558v-3.558ZM122.142 118.584h-3.558v3.558h3.558v-3.558ZM125.699 118.584h-3.557v3.558h3.557v-3.558Z" fill="#fff"/><path d="M11.858 122.142H8.301v3.557h3.557v-3.557ZM15.416 122.142h-3.558v3.557h3.558v-3.557ZM18.974 122.142h-3.558v3.557h3.558v-3.557ZM22.531 122.142h-3.557v3.557h3.557v-3.557Z" fill="#000"/><path d="M26.089 122.142H22.53v3.557h3.558v-3.557ZM29.646 122.142H26.09v3.557h3.557v-3.557Z" fill="#000"/><path d="M33.204 122.142h-3.558v3.557h3.558v-3.557Z" fill="#000"/><path d="M36.76 122.142h-3.557v3.557h3.558v-3.557Z" fill="#fff"/><path d="M40.318 122.142h-3.557v3.557h3.557v-3.557Z" fill="#000"/><path d="M43.876 122.142h-3.558v3.557h3.558v-3.557ZM47.434 122.142h-3.558v3.557h3.558v-3.557Z" fill="#fff"/><path d="M50.991 122.142h-3.557v3.557h3.557v-3.557Z" fill="#000"/><path d="M54.549 122.142H50.99v3.557h3.558v-3.557Z" fill="#fff"/><path d="M58.106 122.142H54.55v3.557h3.557v-3.557Z" fill="#000"/><path d="M61.664 122.142h-3.558v3.557h3.558v-3.557Z" fill="#000"/><path d="M65.222 122.142h-3.558v3.557h3.558v-3.557Z" fill="#fff"/><path d="M68.78 122.142h-3.558v3.557h3.557v-3.557Z" fill="#000"/><path d="M72.336 122.142h-3.558v3.557h3.558v-3.557Z" fill="#000"/><path d="M75.894 122.142h-3.558v3.557h3.558v-3.557Z" fill="#fff"/><path d="M79.451 122.142h-3.557v3.557h3.557v-3.557Z" fill="#fff"/><path d="M83.009 122.142H79.45v3.557h3.558v-3.557ZM86.566 122.142H83.01v3.557h3.557v-3.557Z" fill="#000"/><path d="M90.124 122.142h-3.558v3.557h3.558v-3.557Z" fill="#fff"/><path d="M93.681 122.142h-3.557v3.557h3.558v-3.557ZM97.24 122.142h-3.558v3.557h3.557v-3.557Z" fill="#000"/><path d="M100.797 122.142h-3.558v3.557h3.558v-3.557Z" fill="#000"/><path d="M104.354 122.142h-3.557v3.557h3.557v-3.557ZM107.911 122.142h-3.557v3.557h3.557v-3.557ZM111.469 122.142h-3.558v3.557h3.558v-3.557Z" fill="#fff"/><path d="M115.026 122.142h-3.557v3.557h3.557v-3.557Z" fill="#000"/><path d="M118.584 122.142h-3.558v3.557h3.558v-3.557ZM122.142 122.142h-3.558v3.557h3.558v-3.557Z" fill="#fff"/><path d="M125.699 122.142h-3.557v3.557h3.557v-3.557Z" fill="#000"/></svg>