 <svg id="Layer_1" data-name="Layer 1" xmlns="http://www.w3.org/2000/svg"
            xmlns:xlink="http://www.w3.org/1999/xlink" viewBox="0 0 252 72" style="width: 12vw; height: 7vh;">
            <defs>
                <style>
                    .cls-1 {
                        fill: none;
                    }

                    .cls-2,
                    .cls-3,
                    .cls-6,
                    .cls-8 {
                        fill-rule: evenodd;
                    }

                    .cls-3 {
                        fill: #29e19e;
                    }

                    .cls-4 {
                        clip-path: url(#clip-path);
                    }

                    .cls-5 {
                        fill: url(#linear-gradient);
                    }

                    .cls-6 {
                        fill: #fff;
                    }

                    .cls-7,
                    .cls-8 {
                        fill: #0e101a;
                    }
                </style>
                <clipPath id="clip-path">
                    <path class="cls-1"
                        d="M21.66,3.62A17.65,17.65,0,0,0,4,21.2V50.8A17.66,17.66,0,0,0,21.66,68.38H51.1A17.66,17.66,0,0,0,68.76,50.72V21.28A17.66,17.66,0,0,0,51.1,3.62Z">
                    </path>
                </clipPath>
                <linearGradient id="linear-gradient" x1="-3324.53" y1="1772.46" x2="-3324.34" y2="1772.46"
                    gradientTransform="matrix(0, 327.27, 327.26, 0, -580025.89, 1088031.69)"
                    gradientUnits="userSpaceOnUse">
                    <stop offset="0" stop-color="#53f2cd"></stop>
                    <stop offset="1" stop-color="#29e19e"></stop>
                </linearGradient>
            </defs>
            <title>Artboard 1</title>
            <polygon class="cls-2"
                points="88.84 19.06 100.87 19.06 100.87 33.69 112.25 33.69 112.25 19.06 124.33 19.06 124.33 55.8 112.25 55.8 112.25 41.38 100.87 41.38 100.87 55.8 88.84 55.8 88.84 19.06">
            </polygon>
            <path class="cls-2"
                d="M132.88,53.34a11.51,11.51,0,0,1-2.51-7.85V29H141.7V45a2.52,2.52,0,0,0,.67,1.89,2.31,2.31,0,0,0,1.73.67,4.33,4.33,0,0,0,2.19-.64l.59,7.42a8.24,8.24,0,0,1-3.07,1.39,16,16,0,0,1-3.93.48,8.79,8.79,0,0,1-7-2.88">
            </path>
            <path class="cls-2"
                d="M150,29.42h11.28v5.44a10.08,10.08,0,0,1,3.34-4.67,8.25,8.25,0,0,1,4.94-1.52l1.55,8.7c-3.38,0-5.87.37-7.45,1.1a3.61,3.61,0,0,0-2.38,3.44V55.79H150Z">
            </path>
            <path class="cls-2"
                d="M191.35,38.49c-.57-2.24-1.93-3.36-4.06-3.36a3.66,3.66,0,0,0-3,1.44,6.18,6.18,0,0,0-1.18,3.74ZM179.78,54.43a13.37,13.37,0,0,1-5.37-4.91,13.14,13.14,0,0,1-1.93-7.07,13.19,13.19,0,0,1,7.32-12.07,16.31,16.31,0,0,1,7.49-1.71,12.68,12.68,0,0,1,6.76,1.73,10.82,10.82,0,0,1,4.19,4.7,15.46,15.46,0,0,1,1.39,6.65,6.54,6.54,0,0,1-.1,1.39l-16,2.08a4.69,4.69,0,0,0,2.09,2.7,7.58,7.58,0,0,0,3.79.83,19.67,19.67,0,0,0,7.86-1.87L198.56,54a26.7,26.7,0,0,1-10.9,2.19,16.76,16.76,0,0,1-7.88-1.79">
            </path>
            <path class="cls-2"
                d="M209.17,54.49A12.72,12.72,0,0,1,204,49.6a13.87,13.87,0,0,1-1.84-7.15,13.18,13.18,0,0,1,1.92-7,13.84,13.84,0,0,1,5.24-5,15.21,15.21,0,0,1,7.37-1.81q5.19,0,8.18,2.14l-1,7.1a18.21,18.21,0,0,0-5-.91,5.54,5.54,0,0,0-4.06,1.47,5.31,5.31,0,0,0-1.5,4,5.16,5.16,0,0,0,5.46,5.5,17.27,17.27,0,0,0,5-.91l1,7.47a15.68,15.68,0,0,1-3.69,1.31,21,21,0,0,1-4.39.4,16,16,0,0,1-7.56-1.73">
            </path>
            <path class="cls-2"
                d="M233.14,53.53a10.27,10.27,0,0,1-2.62-7.45V35.66H227.1V29h4.22l5-10.09h5.39V29h6.2v6.62h-6.2v9.08a2.61,2.61,0,0,0,.86,2.08,3.52,3.52,0,0,0,2.4.75,5.32,5.32,0,0,0,2.62-.64l.43,7.48a12.51,12.51,0,0,1-3.45,1.31,17.92,17.92,0,0,1-4.09.5,9.77,9.77,0,0,1-7.32-2.69">
            </path>
            <path class="cls-3" d="M130.29,21.35a5.34,5.34,0,1,1,5.34,5.34,5.34,5.34,0,0,1-5.34-5.34"></path>
            <g class="cls-4">
                <rect class="cls-5" x="4" y="3.62" width="64.76" height="64.76"></rect>
            </g>
            <path class="cls-6"
                d="M24.58,22.25A7.61,7.61,0,0,0,17,29.84V45.63a4,4,0,0,0,1.51,3.14l0,0a1.9,1.9,0,0,0,.33.22l0,0c.16.09.32.18.49.26l8.37,4.47a.53.53,0,0,0,.41,0,.52.52,0,0,0,.31-.65l-1.25-3.49H48a7.61,7.61,0,0,0,7.63-7.59V29.84A7.61,7.61,0,0,0,48,22.25Z">
            </path>
            <path class="cls-3" d="M29.31,28.61a2.23,2.23,0,1,1,2.23,2.2,2.22,2.22,0,0,1-2.23-2.2"></path>
            <path class="cls-7"
                d="M35.46,40.42a6.54,6.54,0,0,1-3.54-1,1.61,1.61,0,1,1,1.73-2.71,3.4,3.4,0,0,0,4.65-1A1.61,1.61,0,1,1,41,37.42a6.58,6.58,0,0,1-5.54,3">
            </path>
            <path class="cls-8"
                d="M38,35.41V33.88a2.21,2.21,0,0,1,2.22-2.21h0a2.22,2.22,0,0,1,2.22,2.21V43a2.22,2.22,0,0,1-2.22,2.21h0A2.21,2.21,0,0,1,38,43V38.24M33.79,40V43a2.22,2.22,0,0,1-4.44,0V33.88a2.22,2.22,0,0,1,4.44,0v3.33">
            </path>
            <path class="cls-3" d="M38,28.61a2.22,2.22,0,1,1,2.22,2.2A2.21,2.21,0,0,1,38,28.61"></path>
        </svg>